SplineFontDB: 3.0
FontName: VarelaRound-Regular
FullName: Varela Round
FamilyName: Varela Round
Weight: Book
Copyright: Copyright (c) 2011, Joe Prince, Admix Designs (http://www.admixdesigns.com/) with Reserved Font Name Varela Round.
Version: 1.000
ItalicAngle: 0
UnderlinePosition: -50
UnderlineWidth: 50
Ascent: 800
Descent: 200
sfntRevision: 0x00010000
LayerCount: 2
Layer: 0 1 "Back"  1
Layer: 1 1 "Fore"  0
XUID: [1021 288 713564382 8642447]
FSType: 0
OS2Version: 3
OS2_WeightWidthSlopeOnly: 0
OS2_UseTypoMetrics: 1
CreationTime: 1309571100
ModificationTime: 1309560418
PfmFamily: 17
TTFWeight: 400
TTFWidth: 5
LineGap: 0
VLineGap: 0
Panose: 2 0 0 0 0 0 0 0 0 0
OS2TypoAscent: 118
OS2TypoAOffset: 1
OS2TypoDescent: -86
OS2TypoDOffset: 1
OS2TypoLinegap: 0
OS2WinAscent: 0
OS2WinAOffset: 1
OS2WinDescent: 0
OS2WinDOffset: 1
HheadAscent: 0
HheadAOffset: 1
HheadDescent: 0
HheadDOffset: 1
OS2SubXSize: 700
OS2SubYSize: 650
OS2SubXOff: 0
OS2SubYOff: 140
OS2SupXSize: 700
OS2SupYSize: 650
OS2SupXOff: 0
OS2SupYOff: 477
OS2StrikeYSize: 50
OS2StrikeYPos: 250
OS2Vendor: 'pyrs'
OS2CodePages: 00000001.00000000
OS2UnicodeRanges: 00000001.00000000.00000000.00000000
Lookup: 258 0 0 "'kern' Horizontal Kerning in Latin lookup 0"  {"'kern' Horizontal Kerning in Latin lookup 0 subtable"  } ['kern' ('DFLT' <'dflt' > 'latn' <'dflt' > ) ]
DEI: 91125
TtTable: prep
PUSHW_1
 511
SCANCTRL
PUSHB_1
 4
SCANTYPE
EndTTInstrs
ShortTable: maxp 16
  1
  0
  251
  102
  5
  87
  4
  2
  0
  1
  1
  0
  64
  0
  2
  1
EndShort

StartChar: .notdef
Encoding: 65536 -1 0
Width: 514
Flags: W
LayerCount: 2
Fore
SplineSet
441 698 m 2,0,1
 463 698 463 698 478.5 682.5 c 128,-1,2
 494 667 494 667 494 645 c 2,3,-1
 494 52 l 2,4,5
 494 30 494 30 478.5 15 c 128,-1,6
 463 0 463 0 441 0 c 2,7,-1
 72 0 l 2,8,9
 50 0 50 0 35 15 c 128,-1,10
 20 30 20 30 20 52 c 2,11,-1
 20 645 l 2,12,13
 20 667 20 667 35 682.5 c 128,-1,14
 50 698 50 698 72 698 c 2,15,-1
 441 698 l 2,0,1
444 602 m 1,16,-1
 286 349 l 1,17,-1
 444 96 l 1,18,-1
 444 602 l 1,16,-1
100 648 m 1,19,-1
 257 397 l 1,20,-1
 413 648 l 1,21,-1
 100 648 l 1,19,-1
227 349 m 1,22,-1
 70 602 l 1,23,-1
 70 96 l 1,24,-1
 227 349 l 1,22,-1
413 50 m 1,25,-1
 257 302 l 1,26,-1
 100 50 l 1,27,-1
 413 50 l 1,25,-1
EndSplineSet
EndChar

StartChar: exclam
Encoding: 33 33 4
Width: 281
Flags: W
LayerCount: 2
Fore
SplineSet
141 193 m 0,0,1
 109 193 109 193 107 222 c 2,2,-1
 89 552 l 1,3,-1
 89 651 l 2,4,5
 89 673 89 673 104 688 c 128,-1,6
 119 703 119 703 141 703 c 256,7,8
 163 703 163 703 177.5 688 c 128,-1,9
 192 673 192 673 192 651 c 2,10,-1
 192 552 l 1,11,-1
 174 222 l 2,12,13
 172 193 172 193 141 193 c 0,0,1
99.5 97.5 m 128,-1,15
 117 115 117 115 141.5 115 c 128,-1,16
 166 115 166 115 183.5 97.5 c 128,-1,17
 201 80 201 80 201 55.5 c 128,-1,18
 201 31 201 31 183.5 13.5 c 128,-1,19
 166 -4 166 -4 141.5 -4 c 128,-1,20
 117 -4 117 -4 99.5 13.5 c 128,-1,21
 82 31 82 31 82 55.5 c 128,-1,14
 82 80 82 80 99.5 97.5 c 128,-1,15
EndSplineSet
EndChar

StartChar: quotedbl
Encoding: 34 34 5
Width: 411
Flags: W
LayerCount: 2
Fore
SplineSet
66.5 602 m 128,-1,1
 63 626 63 626 61.5 647 c 128,-1,2
 60 668 60 668 60 692.5 c 128,-1,3
 60 717 60 717 75.5 732 c 128,-1,4
 91 747 91 747 111 747 c 256,5,6
 131 747 131 747 146 732 c 0,7,8
 162 717 162 717 162 692.5 c 128,-1,9
 162 668 162 668 160.5 647 c 128,-1,10
 159 626 159 626 155.5 602 c 128,-1,11
 152 578 152 578 147.5 555.5 c 128,-1,12
 143 533 143 533 140 520 c 0,13,14
 135 492 135 492 111 492 c 0,15,16
 99 492 99 492 91.5 499.5 c 128,-1,17
 84 507 84 507 81.5 520 c 128,-1,18
 79 533 79 533 74.5 555.5 c 128,-1,0
 70 578 70 578 66.5 602 c 128,-1,1
255.5 602 m 128,-1,20
 252 626 252 626 250.5 647 c 128,-1,21
 249 668 249 668 249 692.5 c 128,-1,22
 249 717 249 717 264.5 732 c 128,-1,23
 280 747 280 747 300 747 c 256,24,25
 320 747 320 747 335 732 c 0,26,27
 351 717 351 717 351 692.5 c 128,-1,28
 351 668 351 668 349.5 647 c 128,-1,29
 348 626 348 626 344.5 602 c 128,-1,30
 341 578 341 578 336.5 555.5 c 128,-1,31
 332 533 332 533 330 520 c 0,32,33
 324 492 324 492 300 492 c 0,34,35
 288 492 288 492 280.5 499.5 c 128,-1,36
 273 507 273 507 270.5 520 c 128,-1,37
 268 533 268 533 263.5 555.5 c 128,-1,19
 259 578 259 578 255.5 602 c 128,-1,20
EndSplineSet
EndChar

StartChar: numbersign
Encoding: 35 35 6
Width: 612
Flags: W
LayerCount: 2
Fore
SplineSet
134.5 5 m 128,-1,1
 124 15 124 15 124 24 c 128,-1,2
 124 33 124 33 148 182 c 1,3,-1
 71 182 l 2,4,5
 57 182 57 182 46.5 192.5 c 128,-1,6
 36 203 36 203 36 217 c 256,7,8
 36 231 36 231 46.5 241.5 c 128,-1,9
 57 252 57 252 71 252 c 2,10,-1
 159 252 l 1,11,-1
 183 404 l 1,12,-1
 106 404 l 2,13,14
 92 404 92 404 81.5 414.5 c 128,-1,15
 71 425 71 425 71 439 c 256,16,17
 71 453 71 453 81.5 463.5 c 128,-1,18
 92 474 92 474 106 474 c 2,19,-1
 194 474 l 1,20,-1
 219 632 l 2,21,22
 221 643 221 643 230.5 651.5 c 128,-1,23
 240 660 240 660 255 660 c 128,-1,24
 270 660 270 660 279.5 650 c 128,-1,25
 289 640 289 640 289 632 c 128,-1,26
 289 624 289 624 288.5 620.5 c 128,-1,27
 288 617 288 617 286 602.5 c 128,-1,28
 284 588 284 588 279 558 c 2,29,-1
 265 474 l 1,30,-1
 392 474 l 1,31,-1
 417 632 l 2,32,33
 419 643 419 643 428.5 651.5 c 128,-1,34
 438 660 438 660 453 660 c 128,-1,35
 468 660 468 660 477.5 650 c 128,-1,36
 487 640 487 640 487 632 c 128,-1,37
 487 624 487 624 486.5 620.5 c 128,-1,38
 486 617 486 617 484 602.5 c 128,-1,39
 482 588 482 588 477 558 c 2,40,-1
 463 474 l 1,41,-1
 540 474 l 2,42,43
 554 474 554 474 564.5 463.5 c 128,-1,44
 575 453 575 453 575 439 c 256,45,46
 575 425 575 425 564.5 414.5 c 128,-1,47
 554 404 554 404 540 404 c 2,48,-1
 452 404 l 1,49,-1
 428 252 l 1,50,-1
 505 252 l 2,51,52
 519 252 519 252 529.5 241.5 c 128,-1,53
 540 231 540 231 540 217 c 256,54,55
 540 203 540 203 529.5 192.5 c 128,-1,56
 519 182 519 182 505 182 c 2,57,-1
 417 182 l 1,58,-1
 392 24 l 2,59,60
 390 13 390 13 380.5 4 c 128,-1,61
 371 -5 371 -5 357 -5 c 256,62,63
 343 -5 343 -5 332.5 5 c 128,-1,64
 322 15 322 15 322 24 c 128,-1,65
 322 33 322 33 346 182 c 1,66,-1
 219 182 l 1,67,-1
 194 24 l 2,68,69
 192 13 192 13 182.5 4 c 128,-1,70
 173 -5 173 -5 159 -5 c 256,71,0
 145 -5 145 -5 134.5 5 c 128,-1,1
381 404 m 1,72,-1
 254 404 l 1,73,-1
 230 252 l 1,74,-1
 357 252 l 1,75,-1
 381 404 l 1,72,-1
EndSplineSet
EndChar

StartChar: dollar
Encoding: 36 36 7
Width: 612
Flags: W
LayerCount: 2
Fore
SplineSet
334 387 m 1,0,1
 376 377 376 377 418 364 c 128,-1,2
 460 351 460 351 494 329 c 0,3,4
 569 279 569 279 569 185 c 0,5,6
 569 104 569 104 505 50 c 256,7,8
 441 -4 441 -4 334 -10 c 1,9,-1
 334 -88 l 2,10,11
 334 -98 334 -98 327.5 -104 c 128,-1,12
 321 -110 321 -110 311 -110 c 0,13,14
 289 -110 289 -110 289 -88 c 2,15,-1
 289 -10 l 1,16,17
 176 -5 176 -5 75 38 c 0,18,19
 47 51 47 51 47 72.5 c 128,-1,20
 47 94 47 94 58 106 c 128,-1,21
 69 118 69 118 83.5 118 c 128,-1,22
 98 118 98 118 118 109 c 0,23,24
 188 78 188 78 289 75 c 1,25,-1
 289 304 l 1,26,27
 178 333 178 333 137 360 c 128,-1,28
 96 387 96 387 75 420 c 128,-1,29
 54 453 54 453 54 498 c 128,-1,30
 54 543 54 543 69 578.5 c 128,-1,31
 84 614 84 614 114 642 c 0,32,33
 178 701 178 701 289 707 c 1,34,-1
 289 785 l 2,35,36
 289 795 289 795 295 801.5 c 128,-1,37
 301 808 301 808 311 808 c 256,38,39
 321 808 321 808 327.5 801.5 c 128,-1,40
 334 795 334 795 334 785 c 2,41,-1
 334 708 l 1,42,43
 435 704 435 704 512 675 c 0,44,45
 540 665 540 665 540 635 c 0,46,47
 540 620 540 620 529.5 607 c 128,-1,48
 519 594 519 594 506.5 594 c 128,-1,49
 494 594 494 594 473 602 c 0,50,51
 412 623 412 623 334 625 c 1,52,-1
 334 387 l 1,0,1
144 510 m 0,53,54
 144 444 144 444 232 414 c 0,55,56
 259 405 259 405 289 398 c 1,57,-1
 289 623 l 1,58,59
 226 617 226 617 185 588.5 c 128,-1,60
 144 560 144 560 144 510 c 0,53,54
334 76 m 1,61,62
 437 83 437 83 468 141 c 0,63,64
 479 162 479 162 479 187.5 c 128,-1,65
 479 213 479 213 467.5 228.5 c 128,-1,66
 456 244 456 244 436 256 c 0,67,68
 407 274 407 274 334 293 c 1,69,-1
 334 76 l 1,61,62
EndSplineSet
EndChar

StartChar: percent
Encoding: 37 37 8
Width: 814
Flags: W
LayerCount: 2
Fore
SplineSet
204 715 m 0,0,1
 281 715 281 715 324 663 c 0,2,3
 365 614 365 614 365 536 c 128,-1,4
 365 458 365 458 324 409 c 0,5,6
 281 357 281 357 204 357 c 0,7,8
 128 357 128 357 84 409 c 0,9,10
 43 456 43 456 43 536 c 0,11,12
 43 659 43 659 134 701 c 0,13,14
 164 715 164 715 204 715 c 0,0,1
204 422 m 256,15,16
 249 422 249 422 272 455 c 128,-1,17
 295 488 295 488 295 536 c 256,18,19
 295 584 295 584 272 617 c 128,-1,20
 249 650 249 650 204 650 c 256,21,22
 159 650 159 650 136 617 c 128,-1,23
 113 584 113 584 113 536 c 256,24,25
 113 488 113 488 136 455 c 128,-1,26
 159 422 159 422 204 422 c 256,15,16
610 340 m 0,27,28
 687 340 687 340 730 288 c 0,29,30
 771 239 771 239 771 161 c 128,-1,31
 771 83 771 83 730 34 c 0,32,33
 687 -18 687 -18 610 -18 c 0,34,35
 534 -18 534 -18 490 34 c 0,36,37
 449 81 449 81 449 161 c 0,38,39
 449 284 449 284 540 326 c 0,40,41
 570 340 570 340 610 340 c 0,27,28
610 47 m 256,42,43
 655 47 655 47 678 80 c 128,-1,44
 701 113 701 113 701 161 c 256,45,46
 701 209 701 209 678 242 c 128,-1,47
 655 275 655 275 610 275 c 256,48,49
 565 275 565 275 542 242 c 128,-1,50
 519 209 519 209 519 161 c 256,51,52
 519 113 519 113 542 80 c 128,-1,53
 565 47 565 47 610 47 c 256,42,43
635.5 699 m 128,-1,55
 645 691 645 691 645 678.5 c 128,-1,56
 645 666 645 666 638 655 c 2,57,-1
 234 8 l 2,58,59
 223 -10 223 -10 207 -10 c 128,-1,60
 191 -10 191 -10 181 -0.5 c 128,-1,61
 171 9 171 9 171 20.5 c 128,-1,62
 171 32 171 32 176 40 c 2,63,-1
 583 691 l 2,64,65
 593 707 593 707 609.5 707 c 128,-1,54
 626 707 626 707 635.5 699 c 128,-1,55
EndSplineSet
EndChar

StartChar: ampersand
Encoding: 38 38 9
Width: 732
Flags: W
LayerCount: 2
Fore
SplineSet
521 68 m 1,0,1
 430 -10 430 -10 316 -10 c 0,2,3
 193 -10 193 -10 127 56 c 0,4,5
 71 112 71 112 71 196 c 0,6,7
 71 264 71 264 112 321 c 0,8,9
 144 364 144 364 184 388 c 1,10,11
 158 420 158 420 140.5 452.5 c 128,-1,12
 123 485 123 485 123 526.5 c 128,-1,13
 123 568 123 568 136 600 c 128,-1,14
 149 632 149 632 173 656 c 0,15,16
 225 708 225 708 310 708 c 0,17,18
 377 708 377 708 443 664 c 1,19,20
 461 654 461 654 461 637 c 128,-1,21
 461 620 461 620 451 609.5 c 128,-1,22
 441 599 441 599 429.5 599 c 128,-1,23
 418 599 418 599 403 607 c 0,24,25
 360 630 360 630 324 630 c 128,-1,26
 288 630 288 630 268 622 c 128,-1,27
 248 614 248 614 234 601 c 0,28,29
 207 575 207 575 207 545 c 128,-1,30
 207 515 207 515 212.5 498 c 128,-1,31
 218 481 218 481 230 464 c 0,32,33
 247 438 247 438 307 383 c 1,34,-1
 516 186 l 1,35,36
 533 212 533 212 543.5 235 c 128,-1,37
 554 258 554 258 564.5 265 c 128,-1,38
 575 272 575 272 590.5 272 c 128,-1,39
 606 272 606 272 618 260.5 c 128,-1,40
 630 249 630 249 630 235 c 0,41,42
 630 203 630 203 577 129 c 1,43,-1
 644 65 l 2,44,45
 660 51 660 51 660 34 c 128,-1,46
 660 17 660 17 649.5 4.5 c 128,-1,47
 639 -8 639 -8 620 -8 c 128,-1,48
 601 -8 601 -8 588 4 c 2,49,-1
 521 68 l 1,0,1
239 332 m 1,50,51
 184 297 184 297 164 240 c 0,52,53
 157 219 157 219 157 192 c 128,-1,54
 157 165 157 165 169 141.5 c 128,-1,55
 181 118 181 118 201 102 c 0,56,57
 243 67 243 67 300 67 c 128,-1,58
 357 67 357 67 395 83.5 c 128,-1,59
 433 100 433 100 462 123 c 1,60,-1
 239 332 l 1,50,51
EndSplineSet
EndChar

StartChar: quotesingle
Encoding: 39 39 10
Width: 238
Flags: W
LayerCount: 2
Fore
SplineSet
174.5 726.5 m 128,-1,1
 191 710 191 710 191 687 c 2,2,-1
 191 628 l 2,3,4
 191 575 191 575 164 534 c 0,5,6
 145 504 145 504 109 482 c 1,7,8
 104 477 104 477 91.5 477 c 128,-1,9
 79 477 79 477 71 486 c 128,-1,10
 63 495 63 495 63 509 c 128,-1,11
 63 523 63 523 78 532 c 0,12,13
 100 545 100 545 114.5 564.5 c 128,-1,14
 129 584 129 584 129 625 c 1,15,-1
 125 625 l 2,16,17
 102 625 102 625 85.5 641.5 c 128,-1,18
 69 658 69 658 69 681 c 2,19,-1
 69 687 l 2,20,21
 69 710 69 710 85.5 726.5 c 128,-1,22
 102 743 102 743 125 743 c 2,23,-1
 135 743 l 2,24,0
 158 743 158 743 174.5 726.5 c 128,-1,1
EndSplineSet
EndChar

StartChar: parenleft
Encoding: 40 40 11
Width: 312
Flags: W
LayerCount: 2
Fore
SplineSet
259 -93 m 0,0,1
 265 -104 265 -104 265 -118 c 128,-1,2
 265 -132 265 -132 253 -143 c 128,-1,3
 241 -154 241 -154 226.5 -154 c 128,-1,4
 212 -154 212 -154 205.5 -149 c 128,-1,5
 199 -144 199 -144 192 -136 c 0,6,7
 120 -50 120 -50 85.5 65.5 c 128,-1,8
 51 181 51 181 51 307 c 256,9,10
 51 433 51 433 85.5 548.5 c 128,-1,11
 120 664 120 664 192 750 c 0,12,13
 199 758 199 758 205.5 763 c 128,-1,14
 212 768 212 768 226.5 768 c 128,-1,15
 241 768 241 768 253 757 c 128,-1,16
 265 746 265 746 265 731.5 c 128,-1,17
 265 717 265 717 259 707 c 0,18,19
 142 511 142 511 142 307 c 256,20,21
 142 103 142 103 259 -93 c 0,0,1
EndSplineSet
EndChar

StartChar: parenright
Encoding: 41 41 12
Width: 312
Flags: W
LayerCount: 2
Fore
SplineSet
60 -143 m 128,-1,1
 48 -132 48 -132 48 -118 c 128,-1,2
 48 -104 48 -104 54 -93 c 0,3,4
 171 103 171 103 171 307 c 256,5,6
 171 511 171 511 54 707 c 0,7,8
 48 717 48 717 48 731.5 c 128,-1,9
 48 746 48 746 60 757 c 128,-1,10
 72 768 72 768 86.5 768 c 128,-1,11
 101 768 101 768 107.5 763 c 128,-1,12
 114 758 114 758 121 750 c 0,13,14
 193 664 193 664 227.5 548.5 c 128,-1,15
 262 433 262 433 262 307 c 256,16,17
 262 181 262 181 227.5 65.5 c 128,-1,18
 193 -50 193 -50 121 -136 c 0,19,20
 114 -144 114 -144 107.5 -149 c 128,-1,21
 101 -154 101 -154 86.5 -154 c 128,-1,0
 72 -154 72 -154 60 -143 c 128,-1,1
EndSplineSet
EndChar

StartChar: asterisk
Encoding: 42 42 13
Width: 417
Flags: W
LayerCount: 2
Fore
SplineSet
236 543 m 1,0,-1
 336 504 l 1,1,2
 350 497 350 497 350 484 c 0,3,4
 350 457 350 457 328 450 c 0,5,6
 314 445 314 445 303 454 c 0,7,8
 300 456 300 456 276 475.5 c 128,-1,9
 252 495 252 495 222 519 c 1,10,11
 228 481 228 481 231 460 c 2,12,-1
 236 428 l 2,13,14
 237 418 237 418 237.5 416 c 128,-1,15
 238 414 238 414 238 407 c 128,-1,16
 238 400 238 400 228.5 392 c 128,-1,17
 219 384 219 384 208 384 c 256,18,19
 197 384 197 384 187.5 392 c 128,-1,20
 178 400 178 400 178 407 c 2,21,-1
 178 416 l 2,22,23
 178 421 178 421 183 451 c 128,-1,24
 188 481 188 481 194 519 c 1,25,26
 110 452 110 452 104.5 449 c 128,-1,27
 99 446 99 446 88 450 c 0,28,29
 66 457 66 457 66 477 c 128,-1,30
 66 497 66 497 80 504 c 0,31,32
 81 504 81 504 83 505 c 128,-1,33
 85 506 85 506 94.5 510 c 128,-1,34
 104 514 104 514 124 521.5 c 128,-1,35
 144 529 144 529 180 543 c 1,36,-1
 80 582 l 1,37,38
 66 591 66 591 66 603 c 0,39,40
 66 630 66 630 88 637 c 0,41,42
 99 641 99 641 110 634 c 0,43,44
 111 634 111 634 137.5 612.5 c 128,-1,45
 164 591 164 591 194 567 c 1,46,47
 178 668 178 668 178 670 c 2,48,-1
 178 673 l 2,49,50
 178 686 178 686 187.5 694 c 128,-1,51
 197 702 197 702 208 702 c 256,52,53
 219 702 219 702 228.5 694 c 128,-1,54
 238 686 238 686 238 679 c 128,-1,55
 238 672 238 672 237.5 670 c 128,-1,56
 237 668 237 668 236 658 c 2,57,-1
 231 626 l 2,58,59
 228 605 228 605 222 567 c 1,60,61
 306 634 306 634 306 634 c 1,62,63
 317 641 317 641 328 637 c 0,64,65
 350 630 350 630 350 610.5 c 128,-1,66
 350 591 350 591 336 582 c 0,67,68
 335 582 335 582 333 581 c 128,-1,69
 331 580 331 580 321.5 576 c 128,-1,70
 312 572 312 572 292 564.5 c 128,-1,71
 272 557 272 557 236 543 c 1,0,-1
EndSplineSet
EndChar

StartChar: plus
Encoding: 43 43 14
Width: 562
Flags: W
LayerCount: 2
Fore
SplineSet
511 373 m 128,-1,1
 522 362 522 362 522 345 c 256,2,3
 522 328 522 328 511 317.5 c 128,-1,4
 500 307 500 307 483 307 c 2,5,-1
 320 307 l 1,6,-1
 320 143 l 2,7,8
 320 126 320 126 309 115 c 128,-1,9
 298 104 298 104 281 104 c 256,10,11
 264 104 264 104 253 115 c 128,-1,12
 242 126 242 126 242 143 c 2,13,-1
 242 307 l 1,14,-1
 78 307 l 2,15,16
 61 307 61 307 50.5 317.5 c 128,-1,17
 40 328 40 328 40 345 c 256,18,19
 40 362 40 362 50.5 373 c 128,-1,20
 61 384 61 384 78 384 c 2,21,-1
 242 384 l 1,22,-1
 242 548 l 2,23,24
 242 565 242 565 253 576 c 128,-1,25
 264 587 264 587 281 587 c 256,26,27
 298 587 298 587 309 576 c 128,-1,28
 320 565 320 565 320 548 c 2,29,-1
 320 384 l 1,30,-1
 483 384 l 2,31,0
 500 384 500 384 511 373 c 128,-1,1
EndSplineSet
EndChar

StartChar: comma
Encoding: 44 44 15
Width: 260
Flags: W
LayerCount: 2
Fore
SplineSet
174.5 98.5 m 128,-1,1
 191 82 191 82 191 59 c 2,2,-1
 191 0 l 2,3,4
 191 -53 191 -53 164 -94 c 0,5,6
 145 -124 145 -124 109 -146 c 1,7,8
 104 -151 104 -151 91.5 -151 c 128,-1,9
 79 -151 79 -151 71 -142 c 128,-1,10
 63 -133 63 -133 63 -119 c 128,-1,11
 63 -105 63 -105 78 -96 c 0,12,13
 100 -83 100 -83 114.5 -63.5 c 128,-1,14
 129 -44 129 -44 129 -3 c 1,15,-1
 125 -3 l 2,16,17
 102 -3 102 -3 85.5 13.5 c 128,-1,18
 69 30 69 30 69 53 c 2,19,-1
 69 59 l 2,20,21
 69 82 69 82 85.5 98.5 c 128,-1,22
 102 115 102 115 125 115 c 2,23,-1
 135 115 l 2,24,0
 158 115 158 115 174.5 98.5 c 128,-1,1
EndSplineSet
EndChar

StartChar: hyphen
Encoding: 45 45 16
Width: 408
Flags: W
LayerCount: 2
Fore
SplineSet
327 309 m 128,-1,1
 339 297 339 297 339 280 c 256,2,3
 339 263 339 263 327 251.5 c 128,-1,4
 315 240 315 240 298 240 c 2,5,-1
 109 240 l 2,6,7
 92 240 92 240 80.5 251.5 c 128,-1,8
 69 263 69 263 69 280 c 256,9,10
 69 297 69 297 80.5 309 c 128,-1,11
 92 321 92 321 109 321 c 2,12,-1
 298 321 l 2,13,0
 315 321 315 321 327 309 c 128,-1,1
EndSplineSet
EndChar

StartChar: period
Encoding: 46 46 17
Width: 260
Flags: W
LayerCount: 2
Fore
SplineSet
174.5 98.5 m 128,-1,1
 191 82 191 82 191 59 c 2,2,-1
 191 53 l 2,3,4
 191 30 191 30 174.5 13.5 c 128,-1,5
 158 -3 158 -3 135 -3 c 2,6,-1
 125 -3 l 2,7,8
 102 -3 102 -3 85.5 13.5 c 128,-1,9
 69 30 69 30 69 53 c 2,10,-1
 69 59 l 2,11,12
 69 82 69 82 85.5 98.5 c 128,-1,13
 102 115 102 115 125 115 c 2,14,-1
 135 115 l 2,15,0
 158 115 158 115 174.5 98.5 c 128,-1,1
EndSplineSet
EndChar

StartChar: slash
Encoding: 47 47 18
Width: 443
Flags: W
LayerCount: 2
Fore
SplineSet
316 736 m 2,0,1
 325 764 325 764 356 764 c 0,2,3
 373 764 373 764 384.5 752 c 128,-1,4
 396 740 396 740 396 730 c 0,5,6
 396 714 396 714 393 708 c 2,7,-1
 128 -67 l 2,8,9
 119 -95 119 -95 89 -95 c 0,10,11
 71 -95 71 -95 59.5 -83 c 128,-1,12
 48 -71 48 -71 48 -60 c 0,13,14
 48 -45 48 -45 51 -39 c 2,15,-1
 316 736 l 2,0,1
EndSplineSet
EndChar

StartChar: zero
Encoding: 48 48 19
Width: 628
Flags: W
LayerCount: 2
Fore
SplineSet
314 708 m 0,0,1
 381 708 381 708 432 682 c 128,-1,2
 483 656 483 656 517 608 c 0,3,4
 585 514 585 514 585 349 c 0,5,6
 585 183 585 183 517 89 c 0,7,8
 445 -10 445 -10 314 -10 c 128,-1,9
 183 -10 183 -10 111 89 c 0,10,11
 43 183 43 183 43 349 c 0,12,13
 43 514 43 514 111 608 c 1,14,15
 182 708 182 708 314 708 c 0,0,1
314 74 m 256,16,17
 402 74 402 74 448 148 c 0,18,19
 494 221 494 221 494 349 c 0,20,21
 494 476 494 476 448 549 c 0,22,23
 402 623 402 623 313.5 623 c 128,-1,24
 225 623 225 623 179.5 549 c 128,-1,25
 134 475 134 475 134 349 c 0,26,27
 134 221 134 221 180 148 c 0,28,29
 226 74 226 74 314 74 c 256,16,17
EndSplineSet
EndChar

StartChar: one
Encoding: 49 49 20
Width: 628
Flags: W
LayerCount: 2
Fore
SplineSet
516.5 72.5 m 128,-1,1
 529 60 529 60 529 42 c 256,2,3
 529 24 529 24 516.5 12 c 128,-1,4
 504 0 504 0 486 0 c 2,5,-1
 177 0 l 2,6,7
 159 0 159 0 147 12 c 128,-1,8
 135 24 135 24 135 42 c 256,9,10
 135 60 135 60 147 72.5 c 128,-1,11
 159 85 159 85 177 85 c 2,12,-1
 296 85 l 1,13,-1
 296 592 l 1,14,-1
 194 542 l 2,15,16
 189 540 189 540 184 538 c 128,-1,17
 179 536 179 536 165.5 536 c 128,-1,18
 152 536 152 536 140 548 c 128,-1,19
 128 560 128 560 128 583.5 c 128,-1,20
 128 607 128 607 154 620 c 2,21,-1
 290 691 l 2,22,23
 304 698 304 698 318 698 c 2,24,-1
 339 698 l 2,25,26
 359 698 359 698 373 684 c 128,-1,27
 387 670 387 670 387 650 c 2,28,-1
 387 85 l 1,29,-1
 486 85 l 2,30,0
 504 85 504 85 516.5 72.5 c 128,-1,1
EndSplineSet
EndChar

StartChar: two
Encoding: 50 50 21
Width: 628
Flags: W
LayerCount: 2
Fore
SplineSet
534.5 72.5 m 128,-1,1
 547 60 547 60 547 42 c 256,2,3
 547 24 547 24 534.5 12 c 128,-1,4
 522 0 522 0 504 0 c 2,5,-1
 118 0 l 2,6,7
 95 0 95 0 80 14.5 c 128,-1,8
 65 29 65 29 65 52 c 0,9,10
 65 105 65 105 94.5 147 c 128,-1,11
 124 189 124 189 168.5 225 c 128,-1,12
 213 261 213 261 265 293 c 128,-1,13
 317 325 317 325 361.5 357 c 128,-1,14
 406 389 406 389 435.5 423 c 128,-1,15
 465 457 465 457 465 491 c 128,-1,16
 465 525 465 525 456.5 547.5 c 128,-1,17
 448 570 448 570 430 586 c 0,18,19
 390 622 390 622 307 622 c 0,20,21
 218 622 218 622 136 586 c 0,22,23
 126 581 126 581 113 581 c 128,-1,24
 100 581 100 581 89.5 592 c 128,-1,25
 79 603 79 603 79 624 c 128,-1,26
 79 645 79 645 101 657 c 0,27,28
 203 708 203 708 323 708 c 0,29,30
 421 708 421 708 486 652 c 0,31,32
 553 595 553 595 553 505 c 0,33,34
 553 414 553 414 462 330 c 0,35,36
 422 294 422 294 374.5 262 c 128,-1,37
 327 230 327 230 283 200.5 c 128,-1,38
 239 171 239 171 204 142.5 c 128,-1,39
 169 114 169 114 156 85 c 1,40,-1
 504 85 l 2,41,0
 522 85 522 85 534.5 72.5 c 128,-1,1
EndSplineSet
EndChar

StartChar: three
Encoding: 51 51 22
Width: 628
Flags: W
LayerCount: 2
Fore
SplineSet
528 528 m 0,0,1
 528 407 528 407 407 361 c 1,2,3
 502 338 502 338 538 261 c 0,4,5
 553 229 553 229 553 182 c 128,-1,6
 553 135 553 135 533 99 c 128,-1,7
 513 63 513 63 478 39 c 0,8,9
 407 -10 407 -10 294 -10 c 0,10,11
 184 -10 184 -10 85 30 c 1,12,13
 59 42 59 42 59 68 c 0,14,15
 59 84 59 84 70 97 c 128,-1,16
 81 110 81 110 94.5 110 c 128,-1,17
 108 110 108 110 128 102 c 0,18,19
 190 77 190 77 277 77 c 0,20,21
 402 77 402 77 446 134 c 0,22,23
 462 155 462 155 462 188 c 0,24,25
 462 314 462 314 241 314 c 2,26,-1
 225 314 l 2,27,28
 208 314 208 314 195.5 326.5 c 128,-1,29
 183 339 183 339 183 356 c 256,30,31
 183 373 183 373 195.5 385.5 c 128,-1,32
 208 398 208 398 225 398 c 2,33,-1
 231 398 l 2,34,35
 437 398 437 398 437 519 c 0,36,37
 437 566 437 566 398.5 594.5 c 128,-1,38
 360 623 360 623 279 623 c 0,39,40
 197 623 197 623 124 590 c 0,41,42
 116 586 116 586 103.5 586 c 128,-1,43
 91 586 91 586 80 596 c 128,-1,44
 69 606 69 606 69 626 c 128,-1,45
 69 646 69 646 89 657 c 0,46,47
 183 708 183 708 293 708 c 128,-1,48
 403 708 403 708 465.5 661 c 128,-1,49
 528 614 528 614 528 528 c 0,0,1
EndSplineSet
EndChar

StartChar: four
Encoding: 52 52 23
Width: 628
Flags: W
LayerCount: 2
Fore
SplineSet
555 257 m 2,0,1
 572 257 572 257 584 245 c 128,-1,2
 596 233 596 233 596 216 c 256,3,4
 596 199 596 199 584 187.5 c 128,-1,5
 572 176 572 176 555 176 c 2,6,-1
 479 176 l 1,7,-1
 479 40 l 2,8,9
 479 21 479 21 465.5 8 c 128,-1,10
 452 -5 452 -5 433 -5 c 256,11,12
 414 -5 414 -5 401 8 c 128,-1,13
 388 21 388 21 388 40 c 2,14,-1
 388 176 l 1,15,-1
 83 176 l 2,16,17
 59 176 59 176 42 192.5 c 128,-1,18
 25 209 25 209 25 233 c 2,19,-1
 25 242 l 2,20,21
 25 263 25 263 37 278 c 2,22,-1
 351 679 l 1,23,24
 368 703 368 703 401 703 c 2,25,-1
 421 703 l 2,26,27
 447 703 447 703 463 686 c 128,-1,28
 479 669 479 669 479 645 c 2,29,-1
 479 257 l 1,30,-1
 555 257 l 2,0,1
388 257 m 1,31,-1
 388 600 l 1,32,-1
 122 257 l 1,33,-1
 388 257 l 1,31,-1
EndSplineSet
EndChar

StartChar: five
Encoding: 53 53 24
Width: 628
Flags: W
LayerCount: 2
Fore
SplineSet
169 401 m 1,0,1
 244 442 244 442 338 442 c 0,2,3
 449 442 449 442 512 378 c 0,4,5
 571 317 571 317 571 216 c 0,6,7
 571 58 571 58 420 8 c 0,8,9
 368 -10 368 -10 298 -10 c 0,10,11
 176 -10 176 -10 84 48 c 0,12,13
 64 60 64 60 64 80.5 c 128,-1,14
 64 101 64 101 75 114 c 128,-1,15
 86 127 86 127 100.5 127 c 128,-1,16
 115 127 115 127 136 116 c 0,17,18
 205 80 205 80 285 80 c 0,19,20
 428 80 428 80 466 153 c 0,21,22
 480 180 480 180 480 221 c 0,23,24
 480 283 480 283 438.5 319 c 128,-1,25
 397 355 397 355 336 355 c 0,26,27
 243 355 243 355 171 312 c 0,28,29
 150 300 150 300 129 300 c 128,-1,30
 108 300 108 300 89 315.5 c 128,-1,31
 70 331 70 331 70 358 c 0,32,33
 70 372 70 372 72 382 c 2,34,-1
 117 648 l 2,35,36
 120 671 120 671 134.5 684.5 c 128,-1,37
 149 698 149 698 170 698 c 2,38,-1
 491 698 l 2,39,40
 509 698 509 698 521.5 685.5 c 128,-1,41
 534 673 534 673 534 655 c 256,42,43
 534 637 534 637 521.5 625 c 128,-1,44
 509 613 509 613 491 613 c 2,45,-1
 201 613 l 1,46,-1
 169 401 l 1,0,1
EndSplineSet
EndChar

StartChar: six
Encoding: 54 54 25
Width: 628
Flags: W
LayerCount: 2
Fore
SplineSet
278 444 m 0,0,1
 310 452 310 452 356 452 c 128,-1,2
 402 452 402 452 444 435.5 c 128,-1,3
 486 419 486 419 516 388 c 0,4,5
 580 323 580 323 580 217 c 0,6,7
 580 120 580 120 514 56 c 0,8,9
 446 -10 446 -10 333 -10 c 0,10,11
 219 -10 219 -10 152 52 c 1,12,13
 73 127 73 127 62 274 c 0,14,15
 59 314 59 314 59 360 c 128,-1,16
 59 406 59 406 73.5 470 c 128,-1,17
 88 534 88 534 121.5 586.5 c 128,-1,18
 155 639 155 639 210.5 673.5 c 128,-1,19
 266 708 266 708 339 708 c 128,-1,20
 412 708 412 708 454 694.5 c 128,-1,21
 496 681 496 681 526 665 c 0,22,23
 547 653 547 653 547 633 c 128,-1,24
 547 613 547 613 536 600.5 c 128,-1,25
 525 588 525 588 510.5 588 c 128,-1,26
 496 588 496 588 480 596 c 0,27,28
 426 620 426 620 358.5 620 c 128,-1,29
 291 620 291 620 251 592.5 c 128,-1,30
 211 565 211 565 188 526 c 1,31,32
 152 461 152 461 146 364 c 1,33,34
 190 422 190 422 278 444 c 0,0,1
254 90 m 0,35,36
 287 75 287 75 328.5 75 c 128,-1,37
 370 75 370 75 398.5 86.5 c 128,-1,38
 427 98 427 98 447 118 c 0,39,40
 489 160 489 160 489 222.5 c 128,-1,41
 489 285 489 285 452 327 c 128,-1,42
 415 369 415 369 340 369 c 0,43,44
 262 369 262 369 210 329 c 0,45,46
 174 302 174 302 151 259 c 1,47,48
 169 129 169 129 254 90 c 0,35,36
EndSplineSet
EndChar

StartChar: seven
Encoding: 55 55 26
Width: 628
Flags: W
LayerCount: 2
Fore
SplineSet
551 683 m 128,-1,1
 567 668 567 668 567 645.5 c 128,-1,2
 567 623 567 623 557 601 c 2,3,-1
 273 20 l 1,4,5
 259 -5 259 -5 234.5 -5 c 128,-1,6
 210 -5 210 -5 197.5 7.5 c 128,-1,7
 185 20 185 20 185 36 c 128,-1,8
 185 52 185 52 191 64 c 2,9,-1
 466 611 l 1,10,-1
 103 611 l 2,11,12
 85 611 85 611 72.5 623.5 c 128,-1,13
 60 636 60 636 60 654 c 256,14,15
 60 672 60 672 72.5 685 c 128,-1,16
 85 698 85 698 103 698 c 2,17,-1
 511 698 l 2,18,0
 535 698 535 698 551 683 c 128,-1,1
EndSplineSet
EndChar

StartChar: eight
Encoding: 56 56 27
Width: 628
Flags: W
LayerCount: 2
Fore
SplineSet
548 525 m 0,0,1
 548 495 548 495 538.5 470.5 c 128,-1,2
 529 446 529 446 513 427 c 0,3,4
 483 392 483 392 432 374 c 1,5,6
 499 351 499 351 540 306.5 c 128,-1,7
 581 262 581 262 581 185 c 0,8,9
 581 106 581 106 522 54 c 0,10,11
 450 -10 450 -10 314 -10 c 256,12,13
 178 -10 178 -10 106 54 c 0,14,15
 47 106 47 106 47 184 c 128,-1,16
 47 262 47 262 88 306.5 c 128,-1,17
 129 351 129 351 196 374 c 1,18,19
 116 402 116 402 90 470 c 0,20,21
 80 495 80 495 80 525 c 128,-1,22
 80 555 80 555 92 587 c 128,-1,23
 104 619 104 619 132 646 c 0,24,25
 195 708 195 708 314 708 c 256,26,27
 433 708 433 708 496 646 c 0,28,29
 548 595 548 595 548 525 c 0,0,1
314 70 m 256,30,31
 405 70 405 70 452 116 c 1,32,33
 490 151 490 151 490 190 c 128,-1,34
 490 229 490 229 475.5 254 c 128,-1,35
 461 279 461 279 436 296 c 0,36,37
 388 330 388 330 314.5 330 c 128,-1,38
 241 330 241 330 192 296 c 0,39,40
 138 259 138 259 138 195 c 0,41,42
 138 151 138 151 176 116 c 1,43,44
 223 70 223 70 314 70 c 256,30,31
314 412 m 256,45,46
 388 412 388 412 426 449 c 0,47,48
 457 479 457 479 457 521.5 c 128,-1,49
 457 564 457 564 422 596 c 128,-1,50
 387 628 387 628 314 628 c 256,51,52
 241 628 241 628 206 596 c 128,-1,53
 171 564 171 564 171 521.5 c 128,-1,54
 171 479 171 479 205.5 445.5 c 128,-1,55
 240 412 240 412 314 412 c 256,45,46
EndSplineSet
EndChar

StartChar: nine
Encoding: 57 57 28
Width: 628
Flags: W
LayerCount: 2
Fore
SplineSet
350 254 m 0,0,1
 318 246 318 246 272 246 c 128,-1,2
 226 246 226 246 184 262.5 c 128,-1,3
 142 279 142 279 112 310 c 0,4,5
 48 375 48 375 48 481 c 0,6,7
 48 579 48 579 114 642 c 0,8,9
 184 708 184 708 295 708 c 0,10,11
 409 708 409 708 476 646 c 1,12,13
 555 571 555 571 566 424 c 0,14,15
 569 384 569 384 569 337.5 c 128,-1,16
 569 291 569 291 554.5 227.5 c 128,-1,17
 540 164 540 164 506.5 111.5 c 128,-1,18
 473 59 473 59 417 24.5 c 128,-1,19
 361 -10 361 -10 288.5 -10 c 128,-1,20
 216 -10 216 -10 174 3.5 c 128,-1,21
 132 17 132 17 102 33 c 0,22,23
 81 45 81 45 81 65 c 128,-1,24
 81 85 81 85 92 97.5 c 128,-1,25
 103 110 103 110 117 110 c 128,-1,26
 131 110 131 110 148 102 c 0,27,28
 204 78 204 78 270 78 c 128,-1,29
 336 78 336 78 376.5 105.5 c 128,-1,30
 417 133 417 133 440 172 c 1,31,32
 476 237 476 237 482 334 c 1,33,34
 438 276 438 276 350 254 c 0,0,1
374 608 m 0,35,36
 341 623 341 623 299.5 623 c 128,-1,37
 258 623 258 623 229.5 611.5 c 128,-1,38
 201 600 201 600 181 580 c 0,39,40
 139 538 139 538 139 475.5 c 128,-1,41
 139 413 139 413 176 371 c 128,-1,42
 213 329 213 329 288 329 c 0,43,44
 366 329 366 329 418 369 c 0,45,46
 454 396 454 396 477 439 c 1,47,48
 459 569 459 569 374 608 c 0,35,36
EndSplineSet
EndChar

StartChar: colon
Encoding: 58 58 29
Width: 260
Flags: W
LayerCount: 2
Fore
SplineSet
135 115 m 2,0,1
 158 115 158 115 174.5 98.5 c 128,-1,2
 191 82 191 82 191 59 c 2,3,-1
 191 53 l 2,4,5
 191 30 191 30 174.5 13.5 c 128,-1,6
 158 -3 158 -3 135 -3 c 2,7,-1
 125 -3 l 2,8,9
 102 -3 102 -3 85.5 13.5 c 128,-1,10
 69 30 69 30 69 53 c 2,11,-1
 69 59 l 2,12,13
 69 82 69 82 85.5 98.5 c 128,-1,14
 102 115 102 115 125 115 c 2,15,-1
 135 115 l 2,0,1
135 513 m 2,16,17
 158 513 158 513 174.5 496.5 c 128,-1,18
 191 480 191 480 191 457 c 2,19,-1
 191 451 l 2,20,21
 191 428 191 428 174.5 411.5 c 128,-1,22
 158 395 158 395 135 395 c 2,23,-1
 125 395 l 2,24,25
 102 395 102 395 85.5 411.5 c 128,-1,26
 69 428 69 428 69 451 c 2,27,-1
 69 457 l 2,28,29
 69 480 69 480 85.5 496.5 c 128,-1,30
 102 513 102 513 125 513 c 2,31,-1
 135 513 l 2,16,17
EndSplineSet
EndChar

StartChar: semicolon
Encoding: 59 59 30
Width: 260
Flags: W
LayerCount: 2
Fore
SplineSet
135 115 m 2,0,1
 158 115 158 115 174.5 98.5 c 128,-1,2
 191 82 191 82 191 59 c 2,3,-1
 191 0 l 2,4,5
 191 -53 191 -53 164 -94 c 0,6,7
 145 -124 145 -124 109 -146 c 1,8,9
 104 -151 104 -151 91.5 -151 c 128,-1,10
 79 -151 79 -151 71 -142 c 128,-1,11
 63 -133 63 -133 63 -119 c 128,-1,12
 63 -105 63 -105 78 -96 c 0,13,14
 100 -83 100 -83 114.5 -63.5 c 128,-1,15
 129 -44 129 -44 129 -3 c 1,16,-1
 125 -3 l 2,17,18
 102 -3 102 -3 85.5 13.5 c 128,-1,19
 69 30 69 30 69 53 c 2,20,-1
 69 59 l 2,21,22
 69 82 69 82 85.5 98.5 c 128,-1,23
 102 115 102 115 125 115 c 2,24,-1
 135 115 l 2,0,1
135 513 m 2,25,26
 158 513 158 513 174.5 496.5 c 128,-1,27
 191 480 191 480 191 457 c 2,28,-1
 191 451 l 2,29,30
 191 428 191 428 174.5 411.5 c 128,-1,31
 158 395 158 395 135 395 c 2,32,-1
 125 395 l 2,33,34
 102 395 102 395 85.5 411.5 c 128,-1,35
 69 428 69 428 69 451 c 2,36,-1
 69 457 l 2,37,38
 69 480 69 480 85.5 496.5 c 128,-1,39
 102 513 102 513 125 513 c 2,40,-1
 135 513 l 2,25,26
EndSplineSet
EndChar

StartChar: less
Encoding: 60 60 31
Width: 580
Flags: W
LayerCount: 2
Fore
SplineSet
514.5 69.5 m 128,-1,1
 503 58 503 58 490 58 c 128,-1,2
 477 58 477 58 470 61 c 2,3,-1
 71 240 l 2,4,5
 35 257 35 257 35 292 c 2,6,-1
 35 300 l 2,7,8
 35 335 35 335 71 352 c 2,9,-1
 470 531 l 2,10,11
 477 534 477 534 490 534 c 128,-1,12
 503 534 503 534 514.5 522.5 c 128,-1,13
 526 511 526 511 526 496 c 0,14,15
 526 467 526 467 499 456 c 2,16,-1
 139 296 l 1,17,-1
 499 136 l 2,18,19
 511 131 511 131 518.5 120.5 c 128,-1,20
 526 110 526 110 526 95.5 c 128,-1,0
 526 81 526 81 514.5 69.5 c 128,-1,1
EndSplineSet
EndChar

StartChar: equal
Encoding: 61 61 32
Width: 712
Flags: W
LayerCount: 2
Fore
SplineSet
112 404 m 2,0,1
 95 404 95 404 84 415 c 128,-1,2
 73 426 73 426 73 443 c 256,3,4
 73 460 73 460 84 471 c 128,-1,5
 95 482 95 482 112 482 c 2,6,-1
 600 482 l 2,7,8
 617 482 617 482 628 471 c 128,-1,9
 639 460 639 460 639 443 c 256,10,11
 639 426 639 426 628 415 c 128,-1,12
 617 404 617 404 600 404 c 2,13,-1
 112 404 l 2,0,1
600 258 m 2,14,15
 617 258 617 258 628 247 c 128,-1,16
 639 236 639 236 639 219 c 256,17,18
 639 202 639 202 628 191 c 128,-1,19
 617 180 617 180 600 180 c 2,20,-1
 112 180 l 2,21,22
 95 180 95 180 84 191 c 128,-1,23
 73 202 73 202 73 219 c 256,24,25
 73 236 73 236 84 247 c 128,-1,26
 95 258 95 258 112 258 c 2,27,-1
 600 258 l 2,14,15
EndSplineSet
EndChar

StartChar: greater
Encoding: 62 62 33
Width: 580
Flags: W
LayerCount: 2
Fore
SplineSet
110 61 m 2,0,1
 102 58 102 58 89.5 58 c 128,-1,2
 77 58 77 58 65.5 69.5 c 128,-1,3
 54 81 54 81 54 96 c 0,4,5
 54 125 54 125 81 136 c 2,6,-1
 441 296 l 1,7,-1
 81 456 l 2,8,9
 69 461 69 461 61.5 471.5 c 128,-1,10
 54 482 54 482 54 496.5 c 128,-1,11
 54 511 54 511 65.5 522.5 c 128,-1,12
 77 534 77 534 89.5 534 c 128,-1,13
 102 534 102 534 110 531 c 2,14,-1
 509 352 l 2,15,16
 545 335 545 335 545 300 c 2,17,-1
 545 292 l 2,18,19
 545 257 545 257 509 240 c 2,20,-1
 110 61 l 2,0,1
EndSplineSet
EndChar

StartChar: question
Encoding: 63 63 34
Width: 497
Flags: W
LayerCount: 2
Fore
SplineSet
362 514 m 0,0,1
 362 623 362 623 219 623 c 0,2,3
 141 623 141 623 91 590 c 0,4,5
 78 582 78 582 63.5 582 c 128,-1,6
 49 582 49 582 37.5 593.5 c 128,-1,7
 26 605 26 605 26 620 c 0,8,9
 26 645 26 645 51 660 c 0,10,11
 129 708 129 708 227 708 c 0,12,13
 330 708 330 708 390 657 c 0,14,15
 452 605 452 605 452 519 c 0,16,17
 452 429 452 429 358 360 c 0,18,19
 303 319 303 319 279 280 c 0,20,21
 265 257 265 257 265 232.5 c 128,-1,22
 265 208 265 208 251.5 197 c 128,-1,23
 238 186 238 186 220 186 c 128,-1,24
 202 186 202 186 189.5 197.5 c 128,-1,25
 177 209 177 209 177 225 c 0,26,27
 177 324 177 324 270 396 c 1,28,29
 330 444 330 444 346 466.5 c 128,-1,30
 362 489 362 489 362 514 c 0,0,1
177.5 97.5 m 128,-1,32
 195 115 195 115 219.5 115 c 128,-1,33
 244 115 244 115 261.5 97.5 c 128,-1,34
 279 80 279 80 279 55.5 c 128,-1,35
 279 31 279 31 261.5 13.5 c 128,-1,36
 244 -4 244 -4 219.5 -4 c 128,-1,37
 195 -4 195 -4 177.5 13.5 c 128,-1,38
 160 31 160 31 160 55.5 c 128,-1,31
 160 80 160 80 177.5 97.5 c 128,-1,32
EndSplineSet
EndChar

StartChar: at
Encoding: 64 64 35
Width: 898
Flags: W
LayerCount: 2
Fore
SplineSet
458 513 m 0,0,1
 532 513 532 513 586 462 c 1,2,-1
 589 479 l 2,3,4
 591 493 591 493 601.5 501.5 c 128,-1,5
 612 510 612 510 626.5 510 c 128,-1,6
 641 510 641 510 651.5 499.5 c 128,-1,7
 662 489 662 489 662 480 c 2,8,-1
 662 469 l 2,9,10
 662 467 662 467 661 462 c 2,11,-1
 628 272 l 2,12,13
 621 230 621 230 621 205.5 c 128,-1,14
 621 181 621 181 632.5 161.5 c 128,-1,15
 644 142 644 142 671 142 c 0,16,17
 734 142 734 142 767 197 c 128,-1,18
 800 252 800 252 800 333 c 128,-1,19
 800 414 800 414 771.5 469 c 128,-1,20
 743 524 743 524 696 561 c 0,21,22
 603 635 603 635 473 635 c 0,23,24
 397 635 397 635 329.5 605 c 128,-1,25
 262 575 262 575 211 524 c 128,-1,26
 160 473 160 473 130.5 405.5 c 128,-1,27
 101 338 101 338 101 273 c 128,-1,28
 101 208 101 208 120.5 155.5 c 128,-1,29
 140 103 140 103 178 62 c 0,30,31
 263 -31 263 -31 400 -31 c 0,32,33
 465 -31 465 -31 502 -21 c 0,34,35
 548 -9 548 -9 581.5 4 c 128,-1,36
 615 17 615 17 623 17 c 128,-1,37
 631 17 631 17 638 10.5 c 128,-1,38
 645 4 645 4 645 -9.5 c 128,-1,39
 645 -23 645 -23 631 -30 c 0,40,41
 525 -83 525 -83 400 -83 c 0,42,43
 320 -83 320 -83 255 -54.5 c 128,-1,44
 190 -26 190 -26 144 21.5 c 128,-1,45
 98 69 98 69 73.5 131.5 c 128,-1,46
 49 194 49 194 49 271 c 128,-1,47
 49 348 49 348 83 425 c 128,-1,48
 117 502 117 502 174.5 560.5 c 128,-1,49
 232 619 232 619 309 653.5 c 128,-1,50
 386 688 386 688 468 688 c 128,-1,51
 550 688 550 688 619.5 662.5 c 128,-1,52
 689 637 689 637 741 591.5 c 128,-1,53
 793 546 793 546 823.5 482.5 c 128,-1,54
 854 419 854 419 854 342 c 0,55,56
 854 242 854 242 812 174 c 1,57,58
 761 95 761 95 668 95 c 0,59,60
 593 95 593 95 566 142 c 0,61,62
 559 156 559 156 556 169 c 1,63,64
 494 94 494 94 391 94 c 0,65,66
 311 94 311 94 264 144 c 1,67,68
 221 192 221 192 221 260 c 128,-1,69
 221 328 221 328 241.5 373.5 c 128,-1,70
 262 419 262 419 295 450 c 0,71,72
 362 513 362 513 458 513 c 0,0,1
575 396 m 1,73,74
 532 442 532 442 462 442 c 0,75,76
 394 442 394 442 348 400 c 0,77,78
 298 354 298 354 298 280 c 0,79,80
 298 221 298 221 332 190 c 0,81,82
 362 163 362 163 413 163 c 0,83,84
 498 163 498 163 537 234 c 0,85,86
 552 261 552 261 559 303 c 2,87,-1
 575 396 l 1,73,74
EndSplineSet
EndChar

StartChar: A
Encoding: 65 65 36
Width: 697
Flags: W
LayerCount: 2
Fore
SplineSet
667 60 m 2,0,1
 672 48 672 48 672 34.5 c 128,-1,2
 672 21 672 21 660 8 c 128,-1,3
 648 -5 648 -5 622 -5 c 128,-1,4
 596 -5 596 -5 584 23 c 2,5,-1
 519 179 l 1,6,-1
 179 179 l 1,7,-1
 114 23 l 2,8,9
 102 -5 102 -5 76 -5 c 128,-1,10
 50 -5 50 -5 38 8 c 128,-1,11
 26 21 26 21 26 34.5 c 128,-1,12
 26 48 26 48 31 60 c 2,13,-1
 286 662 l 2,14,15
 304 703 304 703 344 703 c 2,16,-1
 354 703 l 2,17,18
 394 703 394 703 412 662 c 2,19,-1
 667 60 l 2,0,1
484 262 m 1,20,-1
 349 587 l 1,21,-1
 214 262 l 1,22,-1
 484 262 l 1,20,-1
EndSplineSet
EndChar

StartChar: B
Encoding: 66 66 37
Width: 693
Flags: W
LayerCount: 2
Fore
SplineSet
602 517 m 0,0,1
 602 409 602 409 504 363 c 1,2,3
 599 331 599 331 630 258 c 0,4,5
 641 230 641 230 641 191 c 128,-1,6
 641 152 641 152 627 116 c 128,-1,7
 613 80 613 80 582 54 c 0,8,9
 518 0 518 0 384 0 c 2,10,-1
 142 0 l 2,11,12
 123 0 123 0 110 13 c 128,-1,13
 97 26 97 26 97 45 c 2,14,-1
 97 652 l 2,15,16
 97 671 97 671 110 684.5 c 128,-1,17
 123 698 123 698 142 698 c 2,18,-1
 378 698 l 2,19,20
 488 698 488 698 545 648 c 128,-1,21
 602 598 602 598 602 517 c 0,0,1
515 510 m 0,22,23
 515 557 515 557 477.5 585 c 128,-1,24
 440 613 440 613 371 613 c 2,25,-1
 188 613 l 1,26,-1
 188 396 l 1,27,-1
 354 396 l 2,28,29
 483 396 483 396 508 465 c 0,30,31
 515 486 515 486 515 510 c 0,22,23
375 85 m 2,32,33
 517 85 517 85 544 153 c 0,34,35
 553 174 553 174 553 200 c 0,36,37
 553 260 553 260 508 287 c 128,-1,38
 463 314 463 314 376 314 c 2,39,-1
 188 314 l 1,40,-1
 188 85 l 1,41,-1
 375 85 l 2,32,33
EndSplineSet
EndChar

StartChar: C
Encoding: 67 67 38
Width: 698
Flags: W
LayerCount: 2
Fore
SplineSet
598 124 m 0,0,1
 606 128 606 128 620.5 128 c 128,-1,2
 635 128 635 128 645.5 116.5 c 128,-1,3
 656 105 656 105 656 90 c 0,4,5
 656 63 656 63 634 52 c 1,6,7
 587 26 587 26 533.5 8 c 128,-1,8
 480 -10 480 -10 405.5 -10 c 128,-1,9
 331 -10 331 -10 267 14.5 c 128,-1,10
 203 39 203 39 156 86 c 0,11,12
 56 184 56 184 56 349 c 256,13,14
 56 514 56 514 156 612 c 0,15,16
 253 708 253 708 406 708 c 0,17,18
 480 708 480 708 533.5 690 c 128,-1,19
 587 672 587 672 615.5 656.5 c 128,-1,20
 644 641 644 641 650 631.5 c 128,-1,21
 656 622 656 622 656 607.5 c 128,-1,22
 656 593 656 593 645.5 581.5 c 128,-1,23
 635 570 635 570 620.5 570 c 128,-1,24
 606 570 606 570 598 574 c 0,25,26
 558 595 558 595 516 608 c 128,-1,27
 474 621 474 621 411.5 621 c 128,-1,28
 349 621 349 621 298.5 600 c 128,-1,29
 248 579 248 579 214 542 c 0,30,31
 147 469 147 469 147 349 c 256,32,33
 147 229 147 229 214 156 c 0,34,35
 287 77 287 77 415 77 c 0,36,37
 474 77 474 77 516 90 c 128,-1,38
 558 103 558 103 598 124 c 0,0,1
EndSplineSet
EndChar

StartChar: D
Encoding: 68 68 39
Width: 750
Flags: W
LayerCount: 2
Fore
SplineSet
343 698 m 2,0,1
 510 698 510 698 609 586 c 0,2,3
 653 537 653 537 674.5 474.5 c 128,-1,4
 696 412 696 412 696 349 c 256,5,6
 696 286 696 286 674.5 223.5 c 128,-1,7
 653 161 653 161 609 112 c 0,8,9
 510 0 510 0 343 0 c 2,10,-1
 142 0 l 2,11,12
 123 0 123 0 110 13 c 128,-1,13
 97 26 97 26 97 45 c 2,14,-1
 97 652 l 2,15,16
 97 671 97 671 110 684.5 c 128,-1,17
 123 698 123 698 142 698 c 2,18,-1
 343 698 l 2,0,1
332 85 m 2,19,20
 456 85 456 85 532 158 c 1,21,22
 606 231 606 231 606 349 c 128,-1,23
 606 467 606 467 532 540 c 1,24,25
 456 613 456 613 332 613 c 2,26,-1
 188 613 l 1,27,-1
 188 85 l 1,28,-1
 332 85 l 2,19,20
EndSplineSet
EndChar

StartChar: E
Encoding: 69 69 40
Width: 638
Flags: W
LayerCount: 2
Fore
SplineSet
573.5 72.5 m 128,-1,1
 586 60 586 60 586 42 c 256,2,3
 586 24 586 24 573.5 12 c 128,-1,4
 561 0 561 0 543 0 c 2,5,-1
 142 0 l 2,6,7
 123 0 123 0 110 13 c 128,-1,8
 97 26 97 26 97 45 c 2,9,-1
 97 652 l 2,10,11
 97 671 97 671 110 684.5 c 128,-1,12
 123 698 123 698 142 698 c 2,13,-1
 543 698 l 2,14,15
 561 698 561 698 573.5 685.5 c 128,-1,16
 586 673 586 673 586 655 c 256,17,18
 586 637 586 637 573.5 625 c 128,-1,19
 561 613 561 613 543 613 c 2,20,-1
 188 613 l 1,21,-1
 188 392 l 1,22,-1
 507 392 l 2,23,24
 525 392 525 392 537.5 379.5 c 128,-1,25
 550 367 550 367 550 349 c 256,26,27
 550 331 550 331 537.5 319 c 128,-1,28
 525 307 525 307 507 307 c 2,29,-1
 188 307 l 1,30,-1
 188 85 l 1,31,-1
 543 85 l 2,32,0
 561 85 561 85 573.5 72.5 c 128,-1,1
EndSplineSet
EndChar

StartChar: F
Encoding: 70 70 41
Width: 610
Flags: W
LayerCount: 2
Fore
SplineSet
188 613 m 1,0,-1
 188 392 l 1,1,-1
 496 392 l 2,2,3
 514 392 514 392 526.5 379.5 c 128,-1,4
 539 367 539 367 539 349 c 256,5,6
 539 331 539 331 526.5 319 c 128,-1,7
 514 307 514 307 496 307 c 2,8,-1
 188 307 l 1,9,-1
 188 40 l 2,10,11
 188 21 188 21 174.5 8 c 128,-1,12
 161 -5 161 -5 142 -5 c 256,13,14
 123 -5 123 -5 110 8 c 128,-1,15
 97 21 97 21 97 40 c 2,16,-1
 97 652 l 2,17,18
 97 671 97 671 110 684.5 c 128,-1,19
 123 698 123 698 142 698 c 2,20,-1
 531 698 l 2,21,22
 549 698 549 698 561.5 685.5 c 128,-1,23
 574 673 574 673 574 655 c 256,24,25
 574 637 574 637 561.5 625 c 128,-1,26
 549 613 549 613 531 613 c 2,27,-1
 188 613 l 1,0,-1
EndSplineSet
EndChar

StartChar: G
Encoding: 71 71 42
Width: 744
Flags: W
LayerCount: 2
Fore
SplineSet
418 76 m 0,0,1
 512 76 512 76 593 120 c 1,2,-1
 593 301 l 1,3,-1
 428 301 l 2,4,5
 411 301 411 301 399 313 c 128,-1,6
 387 325 387 325 387 342 c 256,7,8
 387 359 387 359 399 371 c 128,-1,9
 411 383 411 383 428 383 c 2,10,-1
 625 383 l 2,11,12
 645 383 645 383 659 369 c 128,-1,13
 673 355 673 355 673 335 c 2,14,-1
 673 108 l 2,15,16
 673 87 673 87 662.5 70.5 c 128,-1,17
 652 54 652 54 635 46 c 0,18,19
 523 -10 523 -10 406 -10 c 0,20,21
 249 -10 249 -10 152 90 c 0,22,23
 55 191 55 191 55 348 c 0,24,25
 55 507 55 507 156 610 c 0,26,27
 253 708 253 708 403 708 c 0,28,29
 488 708 488 708 546.5 687 c 128,-1,30
 605 666 605 666 652 636 c 1,31,32
 672 625 672 625 672 604.5 c 128,-1,33
 672 584 672 584 661 571.5 c 128,-1,34
 650 559 650 559 634.5 559 c 128,-1,35
 619 559 619 559 609 564 c 0,36,37
 512 620 512 620 413 620 c 0,38,39
 297 620 297 620 223 550 c 0,40,41
 146 476 146 476 146 348 c 0,42,43
 146 230 146 230 218 154 c 0,44,45
 292 76 292 76 418 76 c 0,0,1
EndSplineSet
EndChar

StartChar: H
Encoding: 72 72 43
Width: 755
Flags: W
LayerCount: 2
Fore
SplineSet
612 703 m 256,0,1
 631 703 631 703 644.5 689.5 c 128,-1,2
 658 676 658 676 658 657 c 2,3,-1
 658 40 l 2,4,5
 658 21 658 21 644.5 8 c 128,-1,6
 631 -5 631 -5 612 -5 c 256,7,8
 593 -5 593 -5 580 8 c 128,-1,9
 567 21 567 21 567 40 c 2,10,-1
 567 306 l 1,11,-1
 188 306 l 1,12,-1
 188 40 l 2,13,14
 188 21 188 21 174.5 8 c 128,-1,15
 161 -5 161 -5 142 -5 c 256,16,17
 123 -5 123 -5 110 8 c 128,-1,18
 97 21 97 21 97 40 c 2,19,-1
 97 657 l 2,20,21
 97 676 97 676 110 689.5 c 128,-1,22
 123 703 123 703 142 703 c 256,23,24
 161 703 161 703 174.5 689.5 c 128,-1,25
 188 676 188 676 188 657 c 2,26,-1
 188 391 l 1,27,-1
 567 391 l 1,28,-1
 567 657 l 2,29,30
 567 676 567 676 580 689.5 c 128,-1,31
 593 703 593 703 612 703 c 256,0,1
EndSplineSet
EndChar

StartChar: I
Encoding: 73 73 44
Width: 285
Flags: W
LayerCount: 2
Fore
SplineSet
142 703 m 256,0,1
 161 703 161 703 174.5 689.5 c 128,-1,2
 188 676 188 676 188 657 c 2,3,-1
 188 40 l 2,4,5
 188 21 188 21 174.5 8 c 128,-1,6
 161 -5 161 -5 142 -5 c 256,7,8
 123 -5 123 -5 110 8 c 128,-1,9
 97 21 97 21 97 40 c 2,10,-1
 97 657 l 2,11,12
 97 676 97 676 110 689.5 c 128,-1,13
 123 703 123 703 142 703 c 256,0,1
EndSplineSet
EndChar

StartChar: J
Encoding: 74 74 45
Width: 466
Flags: W
LayerCount: 2
Fore
SplineSet
327 703 m 256,0,1
 346 703 346 703 359.5 689.5 c 128,-1,2
 373 676 373 676 373 657 c 2,3,-1
 373 230 l 2,4,5
 373 99 373 99 308 38 c 0,6,7
 256 -10 256 -10 167 -10 c 0,8,9
 94 -10 94 -10 34 24 c 0,10,11
 12 36 12 36 12 56.5 c 128,-1,12
 12 77 12 77 22.5 89.5 c 128,-1,13
 33 102 33 102 46.5 102 c 128,-1,14
 60 102 60 102 74 95 c 0,15,16
 112 76 112 76 147.5 76 c 128,-1,17
 183 76 183 76 205 81.5 c 128,-1,18
 227 87 227 87 244 103 c 0,19,20
 282 139 282 139 282 224 c 2,21,-1
 282 657 l 2,22,23
 282 676 282 676 295 689.5 c 128,-1,24
 308 703 308 703 327 703 c 256,0,1
EndSplineSet
EndChar

StartChar: K
Encoding: 75 75 46
Width: 670
Flags: W
LayerCount: 2
Fore
SplineSet
629 68 m 2,0,1
 640 54 640 54 640 37 c 128,-1,2
 640 20 640 20 627.5 7.5 c 128,-1,3
 615 -5 615 -5 594 -5 c 128,-1,4
 573 -5 573 -5 560 13 c 2,5,-1
 302 342 l 1,6,-1
 188 227 l 1,7,-1
 188 40 l 2,8,9
 188 21 188 21 174.5 8 c 128,-1,10
 161 -5 161 -5 142 -5 c 256,11,12
 123 -5 123 -5 110 8 c 128,-1,13
 97 21 97 21 97 40 c 2,14,-1
 97 657 l 2,15,16
 97 676 97 676 110 689.5 c 128,-1,17
 123 703 123 703 142 703 c 256,18,19
 161 703 161 703 174.5 689.5 c 128,-1,20
 188 676 188 676 188 657 c 2,21,-1
 188 339 l 1,22,-1
 530 687 l 1,23,24
 543 703 543 703 562.5 703 c 128,-1,25
 582 703 582 703 594 691.5 c 128,-1,26
 606 680 606 680 606 661.5 c 128,-1,27
 606 643 606 643 595 632 c 2,28,-1
 364 402 l 1,29,-1
 629 68 l 2,0,1
EndSplineSet
EndChar

StartChar: L
Encoding: 76 76 47
Width: 576
Flags: W
LayerCount: 2
Fore
SplineSet
547.5 77.5 m 128,-1,1
 561 64 561 64 561 45 c 256,2,3
 561 26 561 26 547.5 13 c 128,-1,4
 534 0 534 0 515 0 c 2,5,-1
 160 0 l 2,6,7
 134 0 134 0 115.5 18.5 c 128,-1,8
 97 37 97 37 97 63 c 2,9,-1
 97 657 l 2,10,11
 97 676 97 676 110 689.5 c 128,-1,12
 123 703 123 703 142 703 c 256,13,14
 161 703 161 703 174.5 689.5 c 128,-1,15
 188 676 188 676 188 657 c 2,16,-1
 188 91 l 1,17,-1
 515 91 l 2,18,0
 534 91 534 91 547.5 77.5 c 128,-1,1
EndSplineSet
EndChar

StartChar: M
Encoding: 77 77 48
Width: 966
Flags: W
LayerCount: 2
Fore
SplineSet
850 683.5 m 128,-1,1
 869 664 869 664 869 637 c 2,2,-1
 869 40 l 2,3,4
 869 21 869 21 856 8 c 128,-1,5
 843 -5 843 -5 824 -5 c 256,6,7
 805 -5 805 -5 791.5 8 c 128,-1,8
 778 21 778 21 778 40 c 2,9,-1
 778 608 l 1,10,-1
 547 37 l 2,11,12
 539 18 539 18 522 6.5 c 128,-1,13
 505 -5 505 -5 483 -5 c 256,14,15
 461 -5 461 -5 444 6.5 c 128,-1,16
 427 18 427 18 419 37 c 2,17,-1
 188 608 l 1,18,-1
 188 40 l 2,19,20
 188 21 188 21 174.5 8 c 128,-1,21
 161 -5 161 -5 142 -5 c 256,22,23
 123 -5 123 -5 110 8 c 128,-1,24
 97 21 97 21 97 40 c 2,25,-1
 97 637 l 2,26,27
 97 664 97 664 116 683.5 c 128,-1,28
 135 703 135 703 162 703 c 2,29,-1
 195 703 l 2,30,31
 215 703 215 703 231.5 691 c 128,-1,32
 248 679 248 679 256 661 c 2,33,-1
 483 95 l 1,34,-1
 710 661 l 2,35,36
 718 679 718 679 734.5 691 c 128,-1,37
 751 703 751 703 771 703 c 2,38,-1
 804 703 l 2,39,0
 831 703 831 703 850 683.5 c 128,-1,1
EndSplineSet
EndChar

StartChar: N
Encoding: 78 78 49
Width: 803
Flags: W
LayerCount: 2
Fore
SplineSet
660 703 m 256,0,1
 679 703 679 703 692.5 689.5 c 128,-1,2
 706 676 706 676 706 657 c 2,3,-1
 706 60 l 2,4,5
 706 33 706 33 686.5 14 c 128,-1,6
 667 -5 667 -5 640 -5 c 2,7,-1
 628 -5 l 2,8,9
 595 -5 595 -5 575 22 c 1,10,-1
 188 581 l 1,11,-1
 188 40 l 2,12,13
 188 21 188 21 174.5 8 c 128,-1,14
 161 -5 161 -5 142 -5 c 256,15,16
 123 -5 123 -5 110 8 c 128,-1,17
 97 21 97 21 97 40 c 2,18,-1
 97 637 l 2,19,20
 97 664 97 664 116 683.5 c 128,-1,21
 135 703 135 703 162 703 c 2,22,-1
 175 703 l 2,23,24
 206 703 206 703 230 673 c 1,25,-1
 615 117 l 1,26,-1
 615 657 l 2,27,28
 615 676 615 676 628 689.5 c 128,-1,29
 641 703 641 703 660 703 c 256,0,1
EndSplineSet
EndChar

StartChar: O
Encoding: 79 79 50
Width: 811
Flags: W
LayerCount: 2
Fore
SplineSet
406 708 m 0,0,1
 564 708 564 708 660 607 c 0,2,3
 753 508 753 508 757 349 c 1,4,5
 753 190 753 190 660 91 c 0,6,7
 564 -10 564 -10 406 -10 c 0,8,9
 247 -10 247 -10 152 91 c 0,10,11
 57 191 57 191 55 349 c 1,12,13
 57 507 57 507 152 607 c 0,14,15
 247 708 247 708 406 708 c 0,0,1
406 75 m 256,16,17
 528 75 528 75 598 154 c 0,18,19
 666 230 666 230 666 349 c 256,20,21
 666 468 666 468 598 544 c 0,22,23
 528 623 528 623 406 623 c 256,24,25
 284 623 284 623 214 544 c 0,26,27
 146 468 146 468 146 349 c 256,28,29
 146 230 146 230 214 154 c 0,30,31
 284 75 284 75 406 75 c 256,16,17
EndSplineSet
EndChar

StartChar: P
Encoding: 80 80 51
Width: 669
Flags: W
LayerCount: 2
Fore
SplineSet
370 698 m 2,0,1
 509 698 509 698 579 626 c 1,2,3
 637 568 637 568 637 476 c 256,4,5
 637 384 637 384 579 326 c 1,6,7
 509 254 509 254 370 254 c 2,8,-1
 188 254 l 1,9,-1
 188 40 l 2,10,11
 188 21 188 21 174.5 8 c 128,-1,12
 161 -5 161 -5 142 -5 c 256,13,14
 123 -5 123 -5 110 8 c 128,-1,15
 97 21 97 21 97 40 c 2,16,-1
 97 652 l 2,17,18
 97 671 97 671 110 684.5 c 128,-1,19
 123 698 123 698 142 698 c 2,20,-1
 370 698 l 2,0,1
361 340 m 2,21,22
 464 340 464 340 510 384 c 0,23,24
 546 418 546 418 546 476 c 0,25,26
 546 569 546 569 453 600 c 0,27,28
 417 612 417 612 361 612 c 2,29,-1
 188 612 l 1,30,-1
 188 340 l 1,31,-1
 361 340 l 2,21,22
EndSplineSet
EndChar

StartChar: Q
Encoding: 81 81 52
Width: 812
Flags: W
LayerCount: 2
Fore
SplineSet
466 -6 m 1,0,1
 438 -10 438 -10 406 -10 c 0,2,3
 247 -10 247 -10 152 91 c 0,4,5
 57 191 57 191 55 349 c 1,6,7
 57 507 57 507 152 607 c 0,8,9
 247 708 247 708 406 708 c 0,10,11
 564 708 564 708 660 607 c 0,12,13
 753 508 753 508 757 349 c 1,14,15
 755 231 755 231 701 144 c 128,-1,16
 647 57 647 57 550 17 c 1,17,-1
 638 -80 l 2,18,19
 650 -92 650 -92 650 -109.5 c 128,-1,20
 650 -127 650 -127 637.5 -139.5 c 128,-1,21
 625 -152 625 -152 606.5 -152 c 128,-1,22
 588 -152 588 -152 575 -136 c 2,23,-1
 466 -6 l 1,0,1
406 75 m 256,24,25
 528 75 528 75 598 154 c 0,26,27
 666 230 666 230 666 349 c 256,28,29
 666 468 666 468 598 544 c 0,30,31
 528 623 528 623 406 623 c 256,32,33
 284 623 284 623 214 544 c 0,34,35
 146 468 146 468 146 349 c 256,36,37
 146 230 146 230 214 154 c 0,38,39
 284 75 284 75 406 75 c 256,24,25
EndSplineSet
EndChar

StartChar: R
Encoding: 82 82 53
Width: 712
Flags: W
LayerCount: 2
Fore
SplineSet
641 40 m 2,0,1
 641 21 641 21 628 8 c 128,-1,2
 615 -5 615 -5 595 -5 c 128,-1,3
 575 -5 575 -5 562.5 7.5 c 128,-1,4
 550 20 550 20 550 40 c 2,5,-1
 550 70 l 2,6,7
 550 151 550 151 532 189 c 128,-1,8
 514 227 514 227 483 249.5 c 128,-1,9
 452 272 452 272 395 272 c 2,10,-1
 188 272 l 1,11,-1
 188 40 l 2,12,13
 188 21 188 21 174.5 8 c 128,-1,14
 161 -5 161 -5 142 -5 c 256,15,16
 123 -5 123 -5 110 8 c 128,-1,17
 97 21 97 21 97 40 c 2,18,-1
 97 652 l 2,19,20
 97 671 97 671 110 684.5 c 128,-1,21
 123 698 123 698 142 698 c 2,22,-1
 375 698 l 2,23,24
 512 698 512 698 582 640 c 0,25,26
 647 585 647 585 647 495 c 0,27,28
 647 437 647 437 614.5 387 c 128,-1,29
 582 337 582 337 516 314 c 1,30,31
 588 295 588 295 620 210 c 0,32,33
 641 153 641 153 641 86 c 2,34,-1
 641 40 l 2,0,1
369 358 m 2,35,36
 453 358 453 358 504.5 391 c 128,-1,37
 556 424 556 424 556 488 c 0,38,39
 556 548 556 548 516 578 c 1,40,41
 468 612 468 612 364 612 c 2,42,-1
 188 612 l 1,43,-1
 188 358 l 1,44,-1
 369 358 l 2,35,36
EndSplineSet
EndChar

StartChar: S
Encoding: 83 83 54
Width: 616
Flags: W
LayerCount: 2
Fore
SplineSet
308 76 m 0,0,1
 483 76 483 76 483 191 c 0,2,3
 483 239 483 239 416 268 c 0,4,5
 387 280 387 280 348.5 289.5 c 128,-1,6
 310 299 310 299 270.5 310 c 128,-1,7
 231 321 231 321 192.5 335 c 128,-1,8
 154 349 154 349 124 371 c 0,9,10
 58 421 58 421 58 503 c 0,11,12
 58 591 58 591 124 647 c 0,13,14
 196 708 196 708 317 708 c 0,15,16
 426 708 426 708 516 675 c 0,17,18
 544 665 544 665 544 635 c 0,19,20
 544 620 544 620 533.5 606.5 c 128,-1,21
 523 593 523 593 510.5 593 c 128,-1,22
 498 593 498 593 476 601 c 0,23,24
 411 624 411 624 327 624 c 0,25,26
 250 624 250 624 200 595 c 0,27,28
 149 565 149 565 149 510 c 0,29,30
 149 453 149 453 215 424 c 0,31,32
 245 410 245 410 283 401 c 128,-1,33
 321 392 321 392 361 382 c 128,-1,34
 401 372 401 372 439 358.5 c 128,-1,35
 477 345 477 345 507 323 c 0,36,37
 573 275 573 275 573 185 c 0,38,39
 573 99 573 99 504 45 c 0,40,41
 433 -10 433 -10 317 -10 c 0,42,43
 190 -10 190 -10 79 38 c 0,44,45
 68 43 68 43 59.5 54 c 128,-1,46
 51 65 51 65 51 80.5 c 128,-1,47
 51 96 51 96 62 108.5 c 128,-1,48
 73 121 73 121 87.5 121 c 128,-1,49
 102 121 102 121 123.5 111.5 c 128,-1,50
 145 102 145 102 194 89 c 128,-1,51
 243 76 243 76 308 76 c 0,0,1
EndSplineSet
EndChar

StartChar: T
Encoding: 84 84 55
Width: 611
Flags: W
LayerCount: 2
Fore
SplineSet
584.5 685.5 m 128,-1,1
 597 673 597 673 597 655 c 256,2,3
 597 637 597 637 584.5 625 c 128,-1,4
 572 613 572 613 554 613 c 2,5,-1
 351 613 l 1,6,-1
 351 40 l 2,7,8
 351 21 351 21 337.5 8 c 128,-1,9
 324 -5 324 -5 305 -5 c 256,10,11
 286 -5 286 -5 273 8 c 128,-1,12
 260 21 260 21 260 40 c 2,13,-1
 260 613 l 1,14,-1
 56 613 l 2,15,16
 38 613 38 613 26 625 c 128,-1,17
 14 637 14 637 14 655 c 256,18,19
 14 673 14 673 26 685.5 c 128,-1,20
 38 698 38 698 56 698 c 2,21,-1
 554 698 l 2,22,0
 572 698 572 698 584.5 685.5 c 128,-1,1
EndSplineSet
EndChar

StartChar: U
Encoding: 85 85 56
Width: 758
Flags: W
LayerCount: 2
Fore
SplineSet
620 703 m 256,0,1
 639 703 639 703 652.5 689.5 c 128,-1,2
 666 676 666 676 666 657 c 2,3,-1
 666 262 l 2,4,5
 666 131 666 131 572 56 c 1,6,7
 491 -10 491 -10 379 -10 c 0,8,9
 265 -10 265 -10 185 56 c 1,10,11
 92 131 92 131 92 262 c 2,12,-1
 92 657 l 2,13,14
 92 676 92 676 105 689.5 c 128,-1,15
 118 703 118 703 137 703 c 256,16,17
 156 703 156 703 169.5 689.5 c 128,-1,18
 183 676 183 676 183 657 c 2,19,-1
 183 259 l 2,20,21
 183 170 183 170 244 119 c 0,22,23
 300 73 300 73 379 73 c 256,24,25
 458 73 458 73 514 119 c 0,26,27
 575 170 575 170 575 259 c 2,28,-1
 575 657 l 2,29,30
 575 676 575 676 588 689.5 c 128,-1,31
 601 703 601 703 620 703 c 256,0,1
EndSplineSet
EndChar

StartChar: V
Encoding: 86 86 57
Width: 694
Flags: W
LayerCount: 2
Fore
SplineSet
347 86 m 1,0,-1
 582 672 l 2,1,2
 595 703 595 703 620.5 703 c 128,-1,3
 646 703 646 703 658 690 c 128,-1,4
 670 677 670 677 670 662 c 128,-1,5
 670 647 670 647 667 640 c 2,6,-1
 420 41 l 1,7,8
 399 -5 399 -5 358 -5 c 2,9,-1
 336 -5 l 2,10,11
 295 -5 295 -5 274 41 c 1,12,-1
 27 640 l 2,13,14
 24 647 24 647 24 662 c 128,-1,15
 24 677 24 677 36 690 c 128,-1,16
 48 703 48 703 66 703 c 0,17,18
 99 703 99 703 112 672 c 2,19,-1
 347 86 l 1,0,-1
EndSplineSet
EndChar

StartChar: W
Encoding: 87 87 58
Width: 1007
Flags: W
LayerCount: 2
Fore
SplineSet
504 703 m 256,0,1
 522 703 522 703 536.5 692.5 c 128,-1,2
 551 682 551 682 556 665 c 2,3,-1
 725 115 l 1,4,-1
 893 667 l 2,5,6
 904 703 904 703 938 703 c 0,7,8
 958 703 958 703 970 691.5 c 128,-1,9
 982 680 982 680 982 666.5 c 128,-1,10
 982 653 982 653 979 642 c 2,11,-1
 783 40 l 1,12,13
 767 -5 767 -5 724 -5 c 0,14,15
 704 -5 704 -5 687.5 7.5 c 128,-1,16
 671 20 671 20 665 40 c 2,17,-1
 504 550 l 1,18,-1
 343 40 l 2,19,20
 337 20 337 20 320.5 7.5 c 128,-1,21
 304 -5 304 -5 284 -5 c 0,22,23
 241 -5 241 -5 225 40 c 1,24,-1
 29 642 l 2,25,26
 26 653 26 653 26 666.5 c 128,-1,27
 26 680 26 680 38 691.5 c 128,-1,28
 50 703 50 703 68 703 c 0,29,30
 104 703 104 703 115 667 c 2,31,-1
 283 115 l 1,32,-1
 452 665 l 2,33,34
 457 682 457 682 471.5 692.5 c 128,-1,35
 486 703 486 703 504 703 c 256,0,1
EndSplineSet
EndChar

StartChar: X
Encoding: 88 88 59
Width: 669
Flags: W
LayerCount: 2
Fore
SplineSet
617 66 m 2,0,1
 626 55 626 55 626 38.5 c 128,-1,2
 626 22 626 22 614 8.5 c 128,-1,3
 602 -5 602 -5 586 -5 c 0,4,5
 559 -5 559 -5 545 14 c 2,6,-1
 331 283 l 1,7,-1
 120 13 l 2,8,9
 105 -5 105 -5 86.5 -5 c 128,-1,10
 68 -5 68 -5 55.5 7.5 c 128,-1,11
 43 20 43 20 43 36.5 c 128,-1,12
 43 53 43 53 52 65 c 2,13,-1
 283 349 l 1,14,-1
 54 631 l 2,15,16
 45 643 45 643 45 660.5 c 128,-1,17
 45 678 45 678 57.5 690.5 c 128,-1,18
 70 703 70 703 91.5 703 c 128,-1,19
 113 703 113 703 126 685 c 2,20,-1
 337 417 l 1,21,-1
 548 687 l 1,22,23
 559 703 559 703 579 703 c 128,-1,24
 599 703 599 703 612 690.5 c 128,-1,25
 625 678 625 678 625 662 c 128,-1,26
 625 646 625 646 617 635 c 2,27,-1
 386 350 l 1,28,-1
 617 66 l 2,0,1
EndSplineSet
EndChar

StartChar: Y
Encoding: 89 89 60
Width: 645
Flags: W
LayerCount: 2
Fore
SplineSet
532 680 m 2,0,1
 547 703 547 703 569.5 703 c 128,-1,2
 592 703 592 703 604 690 c 128,-1,3
 616 677 616 677 616 660 c 128,-1,4
 616 643 616 643 608 630 c 1,5,-1
 368 295 l 1,6,-1
 368 40 l 2,7,8
 368 21 368 21 355 8 c 128,-1,9
 342 -5 342 -5 323 -5 c 256,10,11
 304 -5 304 -5 290.5 8 c 128,-1,12
 277 21 277 21 277 40 c 2,13,-1
 277 295 l 1,14,-1
 38 630 l 1,15,16
 30 643 30 643 30 660 c 128,-1,17
 30 677 30 677 42 690 c 128,-1,18
 54 703 54 703 76.5 703 c 128,-1,19
 99 703 99 703 114 680 c 2,20,-1
 323 376 l 1,21,-1
 532 680 l 2,0,1
EndSplineSet
EndChar

StartChar: Z
Encoding: 90 90 61
Width: 638
Flags: W
LayerCount: 2
Fore
SplineSet
580.5 72.5 m 128,-1,1
 593 60 593 60 593 42 c 256,2,3
 593 24 593 24 580.5 12 c 128,-1,4
 568 0 568 0 550 0 c 2,5,-1
 105 0 l 2,6,7
 81 0 81 0 64 17 c 128,-1,8
 47 34 47 34 47 57 c 128,-1,9
 47 80 47 80 59 95 c 2,10,-1
 477 611 l 1,11,-1
 92 611 l 2,12,13
 74 611 74 611 61.5 623.5 c 128,-1,14
 49 636 49 636 49 654 c 256,15,16
 49 672 49 672 61.5 685 c 128,-1,17
 74 698 74 698 92 698 c 2,18,-1
 526 698 l 2,19,20
 555 698 555 698 571 679.5 c 128,-1,21
 587 661 587 661 587 637.5 c 128,-1,22
 587 614 587 614 571 596 c 1,23,-1
 158 85 l 1,24,-1
 550 85 l 2,25,0
 568 85 568 85 580.5 72.5 c 128,-1,1
EndSplineSet
EndChar

StartChar: bracketleft
Encoding: 91 91 62
Width: 322
Flags: W
LayerCount: 2
Fore
SplineSet
283.5 -71.5 m 128,-1,1
 294 -82 294 -82 294 -96 c 256,2,3
 294 -110 294 -110 283.5 -121 c 128,-1,4
 273 -132 273 -132 258 -132 c 2,5,-1
 131 -132 l 2,6,7
 113 -132 113 -132 100 -119 c 128,-1,8
 87 -106 87 -106 87 -88 c 2,9,-1
 87 688 l 2,10,11
 87 706 87 706 100 719 c 128,-1,12
 113 732 113 732 131 732 c 2,13,-1
 258 732 l 2,14,15
 273 732 273 732 283.5 721.5 c 128,-1,16
 294 711 294 711 294 696 c 256,17,18
 294 681 294 681 283.5 670.5 c 128,-1,19
 273 660 273 660 258 660 c 2,20,-1
 166 660 l 1,21,-1
 166 -61 l 1,22,-1
 258 -61 l 2,23,0
 273 -61 273 -61 283.5 -71.5 c 128,-1,1
EndSplineSet
EndChar

StartChar: backslash
Encoding: 92 92 63
Width: 443
Flags: W
LayerCount: 2
Fore
SplineSet
58.5 752 m 128,-1,1
 70 764 70 764 86 764 c 0,2,3
 118 764 118 764 127 736 c 2,4,-1
 392 -39 l 2,5,6
 395 -45 395 -45 395 -58 c 128,-1,7
 395 -71 395 -71 383.5 -83 c 128,-1,8
 372 -95 372 -95 356 -95 c 0,9,10
 324 -95 324 -95 315 -67 c 2,11,-1
 50 708 l 2,12,13
 47 714 47 714 47 727 c 128,-1,0
 47 740 47 740 58.5 752 c 128,-1,1
EndSplineSet
EndChar

StartChar: bracketright
Encoding: 93 93 64
Width: 322
Flags: W
LayerCount: 2
Fore
SplineSet
156 -61 m 1,0,-1
 156 660 l 1,1,-1
 64 660 l 2,2,3
 49 660 49 660 38.5 670.5 c 128,-1,4
 28 681 28 681 28 696 c 256,5,6
 28 711 28 711 38.5 721.5 c 128,-1,7
 49 732 49 732 64 732 c 2,8,-1
 191 732 l 2,9,10
 209 732 209 732 222 719 c 128,-1,11
 235 706 235 706 235 688 c 2,12,-1
 235 -88 l 2,13,14
 235 -106 235 -106 222 -119 c 128,-1,15
 209 -132 209 -132 191 -132 c 2,16,-1
 64 -132 l 2,17,18
 49 -132 49 -132 38.5 -121 c 128,-1,19
 28 -110 28 -110 28 -96 c 256,20,21
 28 -82 28 -82 38.5 -71.5 c 128,-1,22
 49 -61 49 -61 64 -61 c 2,23,-1
 156 -61 l 1,0,-1
EndSplineSet
EndChar

StartChar: asciicircum
Encoding: 94 94 65
Width: 524
Flags: W
LayerCount: 2
Fore
SplineSet
280 702 m 2,0,1
 300 702 300 702 310.5 692 c 128,-1,2
 321 682 321 682 329 668 c 2,3,-1
 434 469 l 2,4,5
 436 464 436 464 438 460 c 128,-1,6
 440 456 440 456 440 446.5 c 128,-1,7
 440 437 440 437 430 426 c 128,-1,8
 420 415 420 415 404 415 c 0,9,10
 384 415 384 415 374 431 c 0,11,12
 372 435 372 435 361 453.5 c 128,-1,13
 350 472 350 472 326.5 510 c 128,-1,14
 303 548 303 548 261 616 c 1,15,16
 219 548 219 548 196 510.5 c 128,-1,17
 173 473 173 473 161.5 454.5 c 128,-1,18
 150 436 150 436 148 432 c 0,19,20
 138 415 138 415 120 415 c 128,-1,21
 102 415 102 415 92 426 c 128,-1,22
 82 437 82 437 82 446.5 c 128,-1,23
 82 456 82 456 84 460 c 128,-1,24
 86 464 86 464 88 469 c 2,25,-1
 193 668 l 2,26,27
 201 682 201 682 211.5 692 c 128,-1,28
 222 702 222 702 242 702 c 2,29,-1
 280 702 l 2,0,1
EndSplineSet
EndChar

StartChar: underscore
Encoding: 95 95 66
Width: 663
Flags: W
LayerCount: 2
Fore
SplineSet
601.5 -90.5 m 128,-1,1
 611 -100 611 -100 611 -114 c 256,2,3
 611 -128 611 -128 601.5 -137.5 c 128,-1,4
 592 -147 592 -147 578 -147 c 2,5,-1
 85 -147 l 2,6,7
 71 -147 71 -147 61.5 -137.5 c 128,-1,8
 52 -128 52 -128 52 -114 c 256,9,10
 52 -100 52 -100 61.5 -90.5 c 128,-1,11
 71 -81 71 -81 85 -81 c 2,12,-1
 578 -81 l 2,13,0
 592 -81 592 -81 601.5 -90.5 c 128,-1,1
EndSplineSet
EndChar

StartChar: grave
Encoding: 96 96 67
Width: 246
Flags: W
LayerCount: 2
Fore
SplineSet
69 685 m 0,0,1
 69 722 69 722 109 722 c 0,2,3
 129 722 129 722 139 703 c 2,4,-1
 190 613 l 1,5,6
 197 606 197 606 197 594 c 128,-1,7
 197 582 197 582 189.5 574.5 c 128,-1,8
 182 567 182 567 169.5 567 c 128,-1,9
 157 567 157 567 148 578 c 2,10,-1
 79 660 l 2,11,12
 69 671 69 671 69 685 c 0,0,1
EndSplineSet
EndChar

StartChar: a
Encoding: 97 97 68
Width: 555
Flags: W
LayerCount: 2
Fore
SplineSet
98 484 m 0,0,1
 182 520 182 520 272 520 c 0,2,3
 374 520 374 520 430 458 c 0,4,5
 480 404 480 404 480 323 c 2,6,-1
 480 40 l 2,7,8
 480 21 480 21 466.5 8 c 128,-1,9
 453 -5 453 -5 434 -5 c 256,10,11
 415 -5 415 -5 402 8 c 128,-1,12
 389 21 389 21 389 40 c 2,13,-1
 389 66 l 1,14,15
 362 38 362 38 316.5 14 c 128,-1,16
 271 -10 271 -10 201 -10 c 0,17,18
 132 -10 132 -10 86 30 c 0,19,20
 38 72 38 72 38 140 c 0,21,22
 38 214 38 214 94 256 c 0,23,24
 155 302 155 302 268 302 c 2,25,-1
 389 302 l 1,26,-1
 389 310 l 2,27,28
 389 377 389 377 356 405.5 c 128,-1,29
 323 434 323 434 255 434 c 0,30,31
 197 434 197 434 122 410 c 0,32,33
 114 408 114 408 104 408 c 128,-1,34
 94 408 94 408 83 418.5 c 128,-1,35
 72 429 72 429 72 451 c 128,-1,36
 72 473 72 473 98 484 c 0,0,1
129 150 m 0,37,38
 129 70 129 70 235 70 c 0,39,40
 282 70 282 70 322.5 93 c 128,-1,41
 363 116 363 116 389 145 c 1,42,-1
 389 229 l 1,43,-1
 280 229 l 2,44,45
 209 229 209 229 169 211 c 128,-1,46
 129 193 129 193 129 150 c 0,37,38
EndSplineSet
EndChar

StartChar: b
Encoding: 98 98 69
Width: 631
Flags: W
LayerCount: 2
Fore
SplineSet
170 444 m 1,0,1
 244 520 244 520 341 520 c 128,-1,2
 438 520 438 520 507 451 c 0,3,4
 583 375 583 375 583 255 c 0,5,6
 583 133 583 133 507 58 c 0,7,8
 437 -10 437 -10 340.5 -10 c 128,-1,9
 244 -10 244 -10 170 66 c 1,10,-1
 170 40 l 2,11,12
 170 21 170 21 157 8 c 128,-1,13
 144 -5 144 -5 124.5 -5 c 128,-1,14
 105 -5 105 -5 92 8 c 128,-1,15
 79 21 79 21 79 40 c 2,16,-1
 79 689 l 2,17,18
 79 709 79 709 92 722 c 128,-1,19
 105 735 105 735 124.5 735 c 128,-1,20
 144 735 144 735 157 722 c 128,-1,21
 170 709 170 709 170 689 c 2,22,-1
 170 444 l 1,0,1
170 150 m 1,23,24
 238 75 238 75 328 75 c 0,25,26
 442 75 442 75 480 177 c 0,27,28
 492 211 492 211 492 255 c 0,29,30
 492 341 492 341 446 390 c 1,31,32
 402 435 402 435 328 435 c 0,33,34
 238 435 238 435 170 360 c 1,35,-1
 170 150 l 1,23,24
EndSplineSet
EndChar

StartChar: c
Encoding: 99 99 70
Width: 536
Flags: W
LayerCount: 2
Fore
SplineSet
321 75 m 0,0,1
 377 75 377 75 428 103 c 0,2,3
 446 113 446 113 460 113 c 128,-1,4
 474 113 474 113 485 100 c 128,-1,5
 496 87 496 87 496 69 c 128,-1,6
 496 51 496 51 473 36 c 0,7,8
 402 -10 402 -10 313 -10 c 0,9,10
 202 -10 202 -10 126 60 c 0,11,12
 46 134 46 134 46 255 c 256,13,14
 46 376 46 376 126 450 c 0,15,16
 202 520 202 520 313 520 c 0,17,18
 373 520 373 520 411.5 504.5 c 128,-1,19
 450 489 450 489 473 474 c 128,-1,20
 496 459 496 459 496 441 c 128,-1,21
 496 423 496 423 485 410 c 128,-1,22
 474 397 474 397 463 397 c 0,23,24
 446 397 446 397 428 407 c 0,25,26
 377 435 377 435 321 435 c 0,27,28
 233 435 233 435 185 385.5 c 128,-1,29
 137 336 137 336 137 255 c 256,30,31
 137 174 137 174 185 124.5 c 128,-1,32
 233 75 233 75 321 75 c 0,0,1
EndSplineSet
EndChar

StartChar: d
Encoding: 100 100 71
Width: 631
Flags: W
LayerCount: 2
Fore
SplineSet
461 66 m 1,0,1
 387 -10 387 -10 290 -10 c 0,2,3
 194 -10 194 -10 124 58 c 0,4,5
 48 133 48 133 48 255 c 0,6,7
 48 375 48 375 124 451 c 0,8,9
 193 520 193 520 290 520 c 128,-1,10
 387 520 387 520 461 444 c 1,11,-1
 461 689 l 2,12,13
 461 709 461 709 474 722 c 128,-1,14
 487 735 487 735 506.5 735 c 128,-1,15
 526 735 526 735 539 722 c 128,-1,16
 552 709 552 709 552 689 c 2,17,-1
 552 40 l 2,18,19
 552 21 552 21 539 8 c 128,-1,20
 526 -5 526 -5 506.5 -5 c 128,-1,21
 487 -5 487 -5 474 8 c 128,-1,22
 461 21 461 21 461 40 c 2,23,-1
 461 66 l 1,0,1
461 360 m 1,24,25
 393 435 393 435 303 435 c 0,26,27
 189 435 189 435 152 333 c 0,28,29
 139 299 139 299 139 255 c 0,30,31
 139 169 139 169 186 120 c 0,32,33
 229 75 229 75 303 75 c 0,34,35
 393 75 393 75 461 150 c 1,36,-1
 461 360 l 1,24,25
EndSplineSet
EndChar

StartChar: e
Encoding: 101 101 72
Width: 570
Flags: W
LayerCount: 2
Fore
SplineSet
192 115 m 128,-1,1
 235 75 235 75 312 75 c 128,-1,2
 389 75 389 75 441 101 c 0,3,4
 459 110 459 110 472 110 c 128,-1,5
 485 110 485 110 497 99 c 128,-1,6
 509 88 509 88 509 74 c 0,7,8
 509 48 509 48 487.5 36.5 c 128,-1,9
 466 25 466 25 449 17 c 128,-1,10
 432 9 432 9 412 3 c 0,11,12
 367 -10 367 -10 308 -10 c 0,13,14
 185 -10 185 -10 117 59 c 128,-1,15
 49 128 49 128 49 255 c 0,16,17
 49 365 49 365 106 438 c 0,18,19
 170 520 170 520 288 520 c 0,20,21
 400 520 400 520 465 444 c 0,22,23
 526 373 526 373 526 268 c 0,24,25
 526 249 526 249 513.5 236 c 128,-1,26
 501 223 501 223 480 223 c 2,27,-1
 141 223 l 1,28,0
 149 155 149 155 192 115 c 128,-1,1
288 443 m 0,29,30
 199 443 199 443 158 364 c 0,31,32
 143 336 143 336 141 297 c 1,33,-1
 436 297 l 1,34,35
 432 368 432 368 384 409 c 0,36,37
 344 443 344 443 288 443 c 0,29,30
EndSplineSet
EndChar

StartChar: f
Encoding: 102 102 73
Width: 380
Flags: W
LayerCount: 2
Fore
SplineSet
340 647 m 1,0,-1
 290 653 l 1,1,2
 252 653 252 653 230 635.5 c 128,-1,3
 208 618 208 618 208 565 c 2,4,-1
 208 510 l 1,5,-1
 333 510 l 2,6,7
 350 510 350 510 361 499 c 128,-1,8
 372 488 372 488 372 471 c 256,9,10
 372 454 372 454 361 443 c 128,-1,11
 350 432 350 432 333 432 c 2,12,-1
 208 432 l 1,13,-1
 208 40 l 2,14,15
 208 21 208 21 195 8 c 128,-1,16
 182 -5 182 -5 162.5 -5 c 128,-1,17
 143 -5 143 -5 130 8 c 128,-1,18
 117 21 117 21 117 40 c 2,19,-1
 117 432 l 1,20,-1
 58 432 l 2,21,22
 41 432 41 432 30 443 c 128,-1,23
 19 454 19 454 19 471 c 256,24,25
 19 488 19 488 30 499 c 128,-1,26
 41 510 41 510 58 510 c 2,27,-1
 117 510 l 1,28,-1
 117 568 l 2,29,30
 117 655 117 655 166 702 c 0,31,32
 206 740 206 740 267 740 c 0,33,34
 314 740 314 740 354 720 c 1,35,36
 377 707 377 707 377 689 c 128,-1,37
 377 671 377 671 366.5 659 c 128,-1,38
 356 647 356 647 340 647 c 1,0,-1
EndSplineSet
EndChar

StartChar: g
Encoding: 103 103 74
Width: 631
Flags: W
LayerCount: 2
Fore
SplineSet
461 444 m 1,0,-1
 461 469 l 2,1,2
 461 488 461 488 474 501.5 c 128,-1,3
 487 515 487 515 506 515 c 256,4,5
 525 515 525 515 538.5 501.5 c 128,-1,6
 552 488 552 488 552 469 c 2,7,-1
 552 22 l 2,8,9
 552 -105 552 -105 491 -172.5 c 128,-1,10
 430 -240 430 -240 317 -240 c 0,11,12
 197 -240 197 -240 103 -188 c 0,13,14
 85 -177 85 -177 85 -157.5 c 128,-1,15
 85 -138 85 -138 96.5 -125 c 128,-1,16
 108 -112 108 -112 120.5 -112 c 128,-1,17
 133 -112 133 -112 143 -116 c 0,18,19
 219 -154 219 -154 308 -154 c 0,20,21
 461 -154 461 -154 461 9 c 2,22,-1
 461 76 l 1,23,24
 390 0 390 0 290 0 c 0,25,26
 195 0 195 0 127 64 c 0,27,28
 48 137 48 137 48 260 c 256,29,30
 48 383 48 383 127 456 c 0,31,32
 195 520 195 520 292.5 520 c 128,-1,33
 390 520 390 520 461 444 c 1,0,-1
461 363 m 1,34,35
 433 392 433 392 397 414.5 c 128,-1,36
 361 437 361 437 317 437 c 128,-1,37
 273 437 273 437 242 426 c 128,-1,38
 211 415 211 415 188 394 c 0,39,40
 139 348 139 348 139 260 c 0,41,42
 139 131 139 131 242 94 c 0,43,44
 273 83 273 83 317 83 c 0,45,46
 390 83 390 83 461 157 c 1,47,-1
 461 363 l 1,34,35
EndSplineSet
EndChar

StartChar: h
Encoding: 104 104 75
Width: 609
Flags: W
LayerCount: 2
Fore
SplineSet
334 436 m 0,0,1
 246 436 246 436 170 340 c 1,2,-1
 170 40 l 2,3,4
 170 21 170 21 156.5 8 c 128,-1,5
 143 -5 143 -5 124 -5 c 256,6,7
 105 -5 105 -5 92 8 c 128,-1,8
 79 21 79 21 79 40 c 2,9,-1
 79 689 l 2,10,11
 79 709 79 709 92 722 c 128,-1,12
 105 735 105 735 124 735 c 256,13,14
 143 735 143 735 156.5 722 c 128,-1,15
 170 709 170 709 170 689 c 2,16,-1
 170 428 l 1,17,18
 210 470 210 470 239 487 c 0,19,20
 296 520 296 520 347.5 520 c 128,-1,21
 399 520 399 520 432 504.5 c 128,-1,22
 465 489 465 489 488 462 c 0,23,24
 535 407 535 407 535 324 c 2,25,-1
 535 40 l 2,26,27
 535 21 535 21 521.5 8 c 128,-1,28
 508 -5 508 -5 489 -5 c 256,29,30
 470 -5 470 -5 457 8 c 128,-1,31
 444 21 444 21 444 40 c 2,32,-1
 444 314 l 2,33,34
 444 371 444 371 418.5 403.5 c 128,-1,35
 393 436 393 436 334 436 c 0,0,1
EndSplineSet
EndChar

StartChar: i
Encoding: 105 105 76
Width: 257
Flags: W
LayerCount: 2
Fore
SplineSet
96 502 m 128,-1,1
 109 515 109 515 128.5 515 c 128,-1,2
 148 515 148 515 161 502 c 128,-1,3
 174 489 174 489 174 469 c 2,4,-1
 174 40 l 2,5,6
 174 21 174 21 161 8 c 128,-1,7
 148 -5 148 -5 128.5 -5 c 128,-1,8
 109 -5 109 -5 96 8 c 128,-1,9
 83 21 83 21 83 40 c 2,10,-1
 83 469 l 2,11,0
 83 489 83 489 96 502 c 128,-1,1
183 665 m 2,12,13
 183 644 183 644 168 629 c 128,-1,14
 153 614 153 614 132 614 c 2,15,-1
 126 614 l 2,16,17
 105 614 105 614 90 629 c 128,-1,18
 75 644 75 644 75 665 c 2,19,-1
 75 669 l 2,20,21
 75 690 75 690 90 705 c 128,-1,22
 105 720 105 720 126 720 c 2,23,-1
 132 720 l 2,24,25
 153 720 153 720 168 705 c 128,-1,26
 183 690 183 690 183 669 c 2,27,-1
 183 665 l 2,12,13
EndSplineSet
EndChar

StartChar: j
Encoding: 106 106 77
Width: 257
Flags: W
LayerCount: 2
Fore
SplineSet
-8 -157 m 1,0,-1
 22 -160 l 1,1,2
 53 -160 53 -160 63 -152 c 1,3,4
 83 -139 83 -139 83 -101 c 2,5,-1
 83 468 l 2,6,7
 83 488 83 488 96 501 c 128,-1,8
 109 514 109 514 128.5 514 c 128,-1,9
 148 514 148 514 161 501 c 128,-1,10
 174 488 174 488 174 468 c 2,11,-1
 174 -103 l 2,12,13
 174 -200 174 -200 104 -230 c 0,14,15
 79 -240 79 -240 43 -240 c 256,16,17
 7 -240 7 -240 -19.5 -231.5 c 128,-1,18
 -46 -223 -46 -223 -46 -195 c 0,19,20
 -46 -180 -46 -180 -35.5 -168.5 c 128,-1,21
 -25 -157 -25 -157 -8 -157 c 1,0,-1
183 665 m 2,22,23
 183 644 183 644 168 629 c 128,-1,24
 153 614 153 614 132 614 c 2,25,-1
 126 614 l 2,26,27
 105 614 105 614 90 629 c 128,-1,28
 75 644 75 644 75 665 c 2,29,-1
 75 669 l 2,30,31
 75 690 75 690 90 705 c 128,-1,32
 105 720 105 720 126 720 c 2,33,-1
 132 720 l 2,34,35
 153 720 153 720 168 705 c 128,-1,36
 183 690 183 690 183 669 c 2,37,-1
 183 665 l 2,22,23
EndSplineSet
EndChar

StartChar: k
Encoding: 107 107 78
Width: 546
Flags: W
LayerCount: 2
Fore
SplineSet
502 66 m 2,0,1
 512 53 512 53 512 36 c 128,-1,2
 512 19 512 19 499 7 c 128,-1,3
 486 -5 486 -5 470 -5 c 0,4,5
 446 -5 446 -5 429 14 c 1,6,-1
 257 248 l 1,7,-1
 170 169 l 1,8,-1
 170 40 l 2,9,10
 170 21 170 21 156.5 8 c 128,-1,11
 143 -5 143 -5 124 -5 c 256,12,13
 105 -5 105 -5 92 8 c 128,-1,14
 79 21 79 21 79 40 c 2,15,-1
 79 689 l 2,16,17
 79 708 79 708 92 721.5 c 128,-1,18
 105 735 105 735 124 735 c 256,19,20
 143 735 143 735 156.5 721.5 c 128,-1,21
 170 708 170 708 170 689 c 2,22,-1
 170 280 l 1,23,-1
 408 500 l 1,24,25
 424 513 424 513 444 513 c 128,-1,26
 464 513 464 513 473 498.5 c 128,-1,27
 482 484 482 484 482 474 c 0,28,29
 482 452 482 452 465 435 c 1,30,-1
 321 306 l 1,31,-1
 502 66 l 2,0,1
EndSplineSet
EndChar

StartChar: l
Encoding: 108 108 79
Width: 265
Flags: W
LayerCount: 2
Fore
SplineSet
100 722 m 128,-1,1
 113 735 113 735 132.5 735 c 128,-1,2
 152 735 152 735 165 722 c 128,-1,3
 178 709 178 709 178 689 c 2,4,-1
 178 40 l 2,5,6
 178 21 178 21 165 8 c 128,-1,7
 152 -5 152 -5 132.5 -5 c 128,-1,8
 113 -5 113 -5 100 8 c 128,-1,9
 87 21 87 21 87 40 c 2,10,-1
 87 689 l 2,11,0
 87 709 87 709 100 722 c 128,-1,1
EndSplineSet
EndChar

StartChar: m
Encoding: 109 109 80
Width: 919
Flags: W
LayerCount: 2
Fore
SplineSet
170 428 m 1,0,1
 231 520 231 520 340 520 c 0,2,3
 394 520 394 520 438 488 c 0,4,5
 474 463 474 463 493 417 c 1,6,7
 521 461 521 461 548 479 c 1,8,9
 605 520 605 520 677 520 c 0,10,11
 758 520 758 520 804 458 c 0,12,13
 844 405 844 405 844 328 c 2,14,-1
 844 40 l 2,15,16
 844 21 844 21 830.5 8 c 128,-1,17
 817 -5 817 -5 798 -5 c 256,18,19
 779 -5 779 -5 766 8 c 128,-1,20
 753 21 753 21 753 40 c 2,21,-1
 753 310 l 2,22,23
 753 373 753 373 730.5 404.5 c 128,-1,24
 708 436 708 436 651 436 c 0,25,26
 563 436 563 436 507 340 c 1,27,-1
 507 40 l 2,28,29
 507 21 507 21 493.5 8 c 128,-1,30
 480 -5 480 -5 461 -5 c 256,31,32
 442 -5 442 -5 429 8 c 128,-1,33
 416 21 416 21 416 40 c 2,34,-1
 416 310 l 2,35,36
 416 373 416 373 393.5 404.5 c 128,-1,37
 371 436 371 436 314 436 c 0,38,39
 226 436 226 436 170 340 c 1,40,-1
 170 40 l 2,41,42
 170 21 170 21 156.5 8 c 128,-1,43
 143 -5 143 -5 124 -5 c 256,44,45
 105 -5 105 -5 92 8 c 128,-1,46
 79 21 79 21 79 40 c 2,47,-1
 79 469 l 2,48,49
 79 488 79 488 92 501.5 c 128,-1,50
 105 515 105 515 124 515 c 256,51,52
 143 515 143 515 156.5 501.5 c 128,-1,53
 170 488 170 488 170 469 c 2,54,-1
 170 428 l 1,0,1
EndSplineSet
EndChar

StartChar: n
Encoding: 110 110 81
Width: 609
Flags: W
LayerCount: 2
Fore
SplineSet
334 436 m 0,0,1
 246 436 246 436 170 340 c 1,2,-1
 170 40 l 2,3,4
 170 21 170 21 156.5 8 c 128,-1,5
 143 -5 143 -5 124 -5 c 256,6,7
 105 -5 105 -5 92 8 c 128,-1,8
 79 21 79 21 79 40 c 2,9,-1
 79 469 l 2,10,11
 79 489 79 489 92 502 c 128,-1,12
 105 515 105 515 124 515 c 256,13,14
 143 515 143 515 156.5 502 c 128,-1,15
 170 489 170 489 170 469 c 2,16,-1
 170 428 l 1,17,18
 210 470 210 470 239 487 c 0,19,20
 296 520 296 520 347.5 520 c 128,-1,21
 399 520 399 520 432 504.5 c 128,-1,22
 465 489 465 489 488 462 c 0,23,24
 535 407 535 407 535 324 c 2,25,-1
 535 40 l 2,26,27
 535 21 535 21 521.5 8 c 128,-1,28
 508 -5 508 -5 489 -5 c 256,29,30
 470 -5 470 -5 457 8 c 128,-1,31
 444 21 444 21 444 40 c 2,32,-1
 444 314 l 2,33,34
 444 371 444 371 418.5 403.5 c 128,-1,35
 393 436 393 436 334 436 c 0,0,1
EndSplineSet
EndChar

StartChar: o
Encoding: 111 111 82
Width: 608
Flags: W
LayerCount: 2
Fore
SplineSet
304 520 m 0,0,1
 420 520 420 520 490 447 c 0,2,3
 560 373 560 373 560 255 c 256,4,5
 560 137 560 137 490 63 c 0,6,7
 420 -10 420 -10 304 -10 c 0,8,9
 187 -10 187 -10 118 63 c 0,10,11
 48 136 48 136 48 255 c 256,12,13
 48 374 48 374 118 447 c 0,14,15
 187 520 187 520 304 520 c 0,0,1
245.5 83 m 128,-1,17
 275 73 275 73 303.5 73 c 128,-1,18
 332 73 332 73 361.5 83 c 128,-1,19
 391 93 391 93 415 114 c 0,20,21
 469 163 469 163 469 256 c 0,22,23
 469 346 469 346 415 396 c 0,24,25
 370 437 370 437 304 437 c 0,26,27
 196 437 196 437 154 340 c 0,28,29
 139 305 139 305 139 255.5 c 128,-1,30
 139 206 139 206 154 171 c 128,-1,31
 169 136 169 136 192.5 114.5 c 128,-1,16
 216 93 216 93 245.5 83 c 128,-1,17
EndSplineSet
EndChar

StartChar: p
Encoding: 112 112 83
Width: 631
Flags: W
LayerCount: 2
Fore
SplineSet
170 444 m 1,0,1
 244 520 244 520 341 520 c 128,-1,2
 438 520 438 520 507 451 c 0,3,4
 583 375 583 375 583 255 c 0,5,6
 583 133 583 133 507 58 c 0,7,8
 437 -10 437 -10 340.5 -10 c 128,-1,9
 244 -10 244 -10 170 66 c 1,10,-1
 170 -189 l 2,11,12
 170 -209 170 -209 157 -222 c 128,-1,13
 144 -235 144 -235 124.5 -235 c 128,-1,14
 105 -235 105 -235 92 -222 c 128,-1,15
 79 -209 79 -209 79 -189 c 2,16,-1
 79 470 l 2,17,18
 79 489 79 489 92 502 c 128,-1,19
 105 515 105 515 124.5 515 c 128,-1,20
 144 515 144 515 157 502 c 128,-1,21
 170 489 170 489 170 470 c 2,22,-1
 170 444 l 1,0,1
170 150 m 1,23,24
 238 75 238 75 328 75 c 0,25,26
 442 75 442 75 480 177 c 0,27,28
 492 211 492 211 492 255 c 0,29,30
 492 341 492 341 446 390 c 1,31,32
 402 435 402 435 328 435 c 0,33,34
 238 435 238 435 170 360 c 1,35,-1
 170 150 l 1,23,24
EndSplineSet
EndChar

StartChar: q
Encoding: 113 113 84
Width: 631
Flags: W
LayerCount: 2
Fore
SplineSet
461 66 m 1,0,1
 387 -10 387 -10 290 -10 c 0,2,3
 194 -10 194 -10 124 58 c 0,4,5
 48 133 48 133 48 255 c 0,6,7
 48 375 48 375 124 451 c 0,8,9
 193 520 193 520 290 520 c 128,-1,10
 387 520 387 520 461 444 c 1,11,-1
 461 470 l 2,12,13
 461 489 461 489 474 502 c 128,-1,14
 487 515 487 515 506.5 515 c 128,-1,15
 526 515 526 515 539 502 c 128,-1,16
 552 489 552 489 552 470 c 2,17,-1
 552 -189 l 2,18,19
 552 -209 552 -209 539 -222 c 128,-1,20
 526 -235 526 -235 506.5 -235 c 128,-1,21
 487 -235 487 -235 474 -222 c 128,-1,22
 461 -209 461 -209 461 -189 c 2,23,-1
 461 66 l 1,0,1
461 360 m 1,24,25
 393 435 393 435 303 435 c 0,26,27
 189 435 189 435 152 333 c 0,28,29
 139 299 139 299 139 255 c 0,30,31
 139 169 139 169 186 120 c 0,32,33
 229 75 229 75 303 75 c 0,34,35
 393 75 393 75 461 150 c 1,36,-1
 461 360 l 1,24,25
EndSplineSet
EndChar

StartChar: r
Encoding: 114 114 85
Width: 387
Flags: W
LayerCount: 2
Fore
SplineSet
170 426 m 1,0,1
 240 520 240 520 327 520 c 2,2,-1
 332 520 l 2,3,4
 351 520 351 520 363.5 507 c 128,-1,5
 376 494 376 494 376 474.5 c 128,-1,6
 376 455 376 455 363 443.5 c 128,-1,7
 350 432 350 432 330 432 c 2,8,-1
 325 432 l 2,9,10
 275 432 275 432 235.5 407.5 c 128,-1,11
 196 383 196 383 170 344 c 1,12,-1
 170 40 l 2,13,14
 170 21 170 21 156.5 8 c 128,-1,15
 143 -5 143 -5 124 -5 c 256,16,17
 105 -5 105 -5 92 8 c 128,-1,18
 79 21 79 21 79 40 c 2,19,-1
 79 469 l 2,20,21
 79 488 79 488 92 501.5 c 128,-1,22
 105 515 105 515 124 515 c 256,23,24
 143 515 143 515 156.5 501.5 c 128,-1,25
 170 488 170 488 170 469 c 2,26,-1
 170 426 l 1,0,1
EndSplineSet
EndChar

StartChar: s
Encoding: 115 115 86
Width: 480
Flags: W
LayerCount: 2
Fore
SplineSet
241 74 m 0,0,1
 352 74 352 74 352 145 c 0,2,3
 352 167 352 167 330 178.5 c 128,-1,4
 308 190 308 190 274.5 199 c 128,-1,5
 241 208 241 208 202 217.5 c 128,-1,6
 163 227 163 227 129.5 244 c 128,-1,7
 96 261 96 261 74 288.5 c 128,-1,8
 52 316 52 316 52 356 c 128,-1,9
 52 396 52 396 64 425 c 128,-1,10
 76 454 76 454 100 475 c 0,11,12
 153 520 153 520 247 520 c 0,13,14
 322 520 322 520 392 495 c 0,15,16
 406 490 406 490 413.5 479 c 128,-1,17
 421 468 421 468 421 454.5 c 128,-1,18
 421 441 421 441 409.5 429 c 128,-1,19
 398 417 398 417 387 417 c 128,-1,20
 376 417 376 417 360 422 c 0,21,22
 312 437 312 437 255 437 c 128,-1,23
 198 437 198 437 168.5 417 c 128,-1,24
 139 397 139 397 139 369 c 128,-1,25
 139 341 139 341 161.5 327.5 c 128,-1,26
 184 314 184 314 217 305 c 128,-1,27
 250 296 250 296 289.5 287 c 128,-1,28
 329 278 329 278 362 262 c 0,29,30
 440 222 440 222 440 138 c 0,31,32
 440 74 440 74 392 34 c 0,33,34
 340 -10 340 -10 247 -10 c 0,35,36
 146 -10 146 -10 65 35 c 1,37,38
 48 47 48 47 48 65 c 128,-1,39
 48 83 48 83 59 95.5 c 128,-1,40
 70 108 70 108 83 108 c 128,-1,41
 96 108 96 108 114 100 c 0,42,43
 172 74 172 74 241 74 c 0,0,1
EndSplineSet
EndChar

StartChar: t
Encoding: 116 116 87
Width: 384
Flags: W
LayerCount: 2
Fore
SplineSet
303.5 74.5 m 128,-1,1
 315 79 315 79 328.5 79 c 128,-1,2
 342 79 342 79 353 69 c 128,-1,3
 364 59 364 59 364 39 c 128,-1,4
 364 19 364 19 344 10 c 0,5,6
 301 -10 301 -10 270.5 -10 c 128,-1,7
 240 -10 240 -10 215 -7 c 128,-1,8
 190 -4 190 -4 167 10 c 0,9,10
 112 42 112 42 112 122 c 2,11,-1
 112 432 l 1,12,-1
 41 432 l 2,13,14
 22 432 22 432 22 451 c 0,15,16
 22 460 22 460 31 468 c 2,17,-1
 167 601 l 2,18,19
 176 610 176 610 184 610 c 128,-1,20
 192 610 192 610 197.5 604 c 128,-1,21
 203 598 203 598 203 590 c 2,22,-1
 203 510 l 1,23,-1
 316 510 l 2,24,25
 333 510 333 510 344 499 c 128,-1,26
 355 488 355 488 355 471 c 256,27,28
 355 454 355 454 344 443 c 128,-1,29
 333 432 333 432 316 432 c 2,30,-1
 203 432 l 1,31,-1
 203 130 l 2,32,33
 203 92 203 92 226 78 c 0,34,35
 239 70 239 70 265.5 70 c 128,-1,0
 292 70 292 70 303.5 74.5 c 128,-1,1
EndSplineSet
EndChar

StartChar: u
Encoding: 117 117 88
Width: 610
Flags: W
LayerCount: 2
Fore
SplineSet
276 74 m 0,0,1
 364 74 364 74 440 170 c 1,2,-1
 440 470 l 2,3,4
 440 489 440 489 453.5 502 c 128,-1,5
 467 515 467 515 486 515 c 256,6,7
 505 515 505 515 518 502 c 128,-1,8
 531 489 531 489 531 470 c 2,9,-1
 531 41 l 2,10,11
 531 21 531 21 518 8 c 128,-1,12
 505 -5 505 -5 486 -5 c 256,13,14
 467 -5 467 -5 453.5 8 c 128,-1,15
 440 21 440 21 440 41 c 2,16,-1
 440 82 l 1,17,18
 400 40 400 40 371 23 c 0,19,20
 314 -10 314 -10 262.5 -10 c 128,-1,21
 211 -10 211 -10 178 5.5 c 128,-1,22
 145 21 145 21 122 48 c 0,23,24
 75 103 75 103 75 186 c 2,25,-1
 75 470 l 2,26,27
 75 489 75 489 88.5 502 c 128,-1,28
 102 515 102 515 121 515 c 256,29,30
 140 515 140 515 153 502 c 128,-1,31
 166 489 166 489 166 470 c 2,32,-1
 166 196 l 2,33,34
 166 139 166 139 191.5 106.5 c 128,-1,35
 217 74 217 74 276 74 c 0,0,1
EndSplineSet
EndChar

StartChar: v
Encoding: 118 118 89
Width: 530
Flags: W
LayerCount: 2
Fore
SplineSet
418 489 m 1,0,1
 430 515 430 515 462 515 c 0,2,3
 478 515 478 515 491 501.5 c 128,-1,4
 504 488 504 488 504 476 c 0,5,6
 504 460 504 460 499 448 c 2,7,-1
 325 32 l 2,8,9
 318 17 318 17 303.5 6 c 128,-1,10
 289 -5 289 -5 270 -5 c 2,11,-1
 260 -5 l 2,12,13
 241 -5 241 -5 226.5 6 c 128,-1,14
 212 17 212 17 205 32 c 2,15,-1
 31 448 l 2,16,17
 26 460 26 460 26 474 c 128,-1,18
 26 488 26 488 39 501.5 c 128,-1,19
 52 515 52 515 68 515 c 0,20,21
 100 515 100 515 112 489 c 1,22,-1
 265 101 l 1,23,-1
 418 489 l 1,0,1
EndSplineSet
EndChar

StartChar: w
Encoding: 119 119 90
Width: 785
Flags: W
LayerCount: 2
Fore
SplineSet
675 488 m 2,0,1
 683 515 683 515 718 515 c 0,2,3
 735 515 735 515 748 502 c 128,-1,4
 761 489 761 489 761 475.5 c 128,-1,5
 761 462 761 462 758 453 c 2,6,-1
 616 37 l 2,7,8
 610 20 610 20 594 7.5 c 128,-1,9
 578 -5 578 -5 558 -5 c 256,10,11
 538 -5 538 -5 522 7.5 c 128,-1,12
 506 20 506 20 499 38 c 1,13,-1
 393 369 l 1,14,-1
 287 38 l 1,15,16
 280 20 280 20 264 7.5 c 128,-1,17
 248 -5 248 -5 228 -5 c 256,18,19
 208 -5 208 -5 192 7.5 c 128,-1,20
 176 20 176 20 170 37 c 2,21,-1
 28 453 l 2,22,23
 25 462 25 462 25 475.5 c 128,-1,24
 25 489 25 489 38 502 c 128,-1,25
 51 515 51 515 68 515 c 0,26,27
 103 515 103 515 111 488 c 2,28,-1
 228 103 l 1,29,-1
 344 479 l 2,30,31
 349 495 349 495 362.5 505 c 128,-1,32
 376 515 376 515 393 515 c 256,33,34
 410 515 410 515 423.5 505 c 128,-1,35
 437 495 437 495 442 479 c 2,36,-1
 558 103 l 1,37,-1
 675 488 l 2,0,1
EndSplineSet
EndChar

StartChar: x
Encoding: 120 120 91
Width: 542
Flags: W
LayerCount: 2
Fore
SplineSet
480 70 m 2,0,1
 491 57 491 57 491 40.5 c 128,-1,2
 491 24 491 24 479.5 9.5 c 128,-1,3
 468 -5 468 -5 445.5 -5 c 128,-1,4
 423 -5 423 -5 410 13 c 1,5,-1
 268 183 l 1,6,-1
 134 15 l 2,7,8
 119 -5 119 -5 97 -5 c 128,-1,9
 75 -5 75 -5 63.5 7.5 c 128,-1,10
 52 20 52 20 52 38 c 128,-1,11
 52 56 52 56 62 69 c 2,12,-1
 217 252 l 1,13,-1
 62 441 l 2,14,15
 51 455 51 455 51 473 c 128,-1,16
 51 491 51 491 64 503 c 128,-1,17
 77 515 77 515 98.5 515 c 128,-1,18
 120 515 120 515 132 498 c 1,19,-1
 272 325 l 1,20,-1
 411 498 l 1,21,22
 423 515 423 515 444.5 515 c 128,-1,23
 466 515 466 515 479 502.5 c 128,-1,24
 492 490 492 490 492 473.5 c 128,-1,25
 492 457 492 457 482 444 c 2,26,-1
 324 258 l 1,27,-1
 480 70 l 2,0,1
EndSplineSet
EndChar

StartChar: y
Encoding: 121 121 92
Width: 533
Flags: W
LayerCount: 2
Fore
SplineSet
496 501.5 m 128,-1,1
 509 488 509 488 509 473.5 c 128,-1,2
 509 459 509 459 506 452 c 2,3,-1
 233 -204 l 2,4,5
 220 -235 220 -235 191 -235 c 0,6,7
 173 -235 173 -235 160.5 -222 c 128,-1,8
 148 -209 148 -209 148 -196 c 128,-1,9
 148 -183 148 -183 151 -175 c 2,10,-1
 216 -8 l 1,11,-1
 28 450 l 2,12,13
 24 460 24 460 24 474 c 128,-1,14
 24 488 24 488 37 501.5 c 128,-1,15
 50 515 50 515 66 515 c 0,16,17
 99 515 99 515 111 487 c 2,18,-1
 265 105 l 1,19,-1
 422 485 l 2,20,21
 435 515 435 515 464 515 c 0,22,0
 483 515 483 515 496 501.5 c 128,-1,1
EndSplineSet
EndChar

StartChar: z
Encoding: 122 122 93
Width: 499
Flags: W
LayerCount: 2
Fore
SplineSet
457 42 m 256,0,1
 457 24 457 24 444.5 12 c 128,-1,2
 432 0 432 0 414 0 c 2,3,-1
 102 0 l 2,4,5
 76 0 76 0 57.5 13.5 c 128,-1,6
 39 27 39 27 39 51.5 c 128,-1,7
 39 76 39 76 55 94 c 2,8,-1
 343 425 l 1,9,-1
 90 425 l 2,10,11
 72 425 72 425 60 437 c 128,-1,12
 48 449 48 449 48 467 c 256,13,14
 48 485 48 485 60 497.5 c 128,-1,15
 72 510 72 510 90 510 c 2,16,-1
 393 510 l 2,17,18
 419 510 419 510 435 494.5 c 128,-1,19
 451 479 451 479 451 454.5 c 128,-1,20
 451 430 451 430 437 413 c 2,21,-1
 157 85 l 1,22,-1
 414 85 l 2,23,24
 432 85 432 85 444.5 72.5 c 128,-1,25
 457 60 457 60 457 42 c 256,0,1
EndSplineSet
EndChar

StartChar: braceleft
Encoding: 123 123 94
Width: 344
Flags: W
LayerCount: 2
Fore
SplineSet
117 307 m 1,0,1
 207 274 207 274 207 189 c 2,2,-1
 207 -33 l 2,3,4
 207 -52 207 -52 214 -59 c 0,5,6
 228 -75 228 -75 266 -75 c 2,7,-1
 281 -75 l 2,8,9
 295 -75 295 -75 305.5 -85.5 c 128,-1,10
 316 -96 316 -96 316 -110 c 256,11,12
 316 -124 316 -124 305.5 -134.5 c 128,-1,13
 295 -145 295 -145 281 -145 c 2,14,-1
 269 -145 l 2,15,16
 202 -145 202 -145 169 -122 c 0,17,18
 129 -93 129 -93 129 -25 c 2,19,-1
 129 186 l 2,20,21
 129 218 129 218 118 231 c 0,22,23
 97 256 97 256 37 267 c 0,24,25
 3 273 3 273 3 307 c 256,26,27
 3 341 3 341 36.5 347 c 128,-1,28
 70 353 70 353 88.5 361.5 c 128,-1,29
 107 370 107 370 116 380 c 0,30,31
 129 396 129 396 129 428 c 2,32,-1
 129 639 l 2,33,34
 129 737 129 737 214 754 c 0,35,36
 239 759 239 759 269 759 c 2,37,-1
 281 759 l 2,38,39
 295 759 295 759 305.5 748.5 c 128,-1,40
 316 738 316 738 316 724 c 256,41,42
 316 710 316 710 305.5 699.5 c 128,-1,43
 295 689 295 689 281 689 c 2,44,-1
 266 689 l 2,45,46
 212 689 212 689 208 660 c 0,47,48
 207 653 207 653 207 647 c 2,49,-1
 207 425 l 2,50,51
 207 340 207 340 117 307 c 1,0,1
EndSplineSet
EndChar

StartChar: bar
Encoding: 124 124 95
Width: 253
Flags: W
LayerCount: 2
Fore
SplineSet
126 741 m 256,0,1
 143 741 143 741 155 729 c 128,-1,2
 167 717 167 717 167 700 c 2,3,-1
 167 -156 l 2,4,5
 167 -173 167 -173 155 -184.5 c 128,-1,6
 143 -196 143 -196 126 -196 c 256,7,8
 109 -196 109 -196 97.5 -184.5 c 128,-1,9
 86 -173 86 -173 86 -156 c 2,10,-1
 86 700 l 2,11,12
 86 717 86 717 97.5 729 c 128,-1,13
 109 741 109 741 126 741 c 256,0,1
EndSplineSet
EndChar

StartChar: braceright
Encoding: 125 125 96
Width: 344
Flags: W
LayerCount: 2
Fore
SplineSet
227 307 m 1,0,1
 137 340 137 340 137 425 c 2,2,-1
 137 647 l 2,3,4
 137 666 137 666 130 673 c 0,5,6
 116 689 116 689 78 689 c 2,7,-1
 63 689 l 2,8,9
 49 689 49 689 38.5 699.5 c 128,-1,10
 28 710 28 710 28 724 c 256,11,12
 28 738 28 738 38.5 748.5 c 128,-1,13
 49 759 49 759 63 759 c 2,14,-1
 75 759 l 2,15,16
 142 759 142 759 175 736 c 0,17,18
 215 707 215 707 215 639 c 2,19,-1
 215 428 l 2,20,21
 215 396 215 396 226 383 c 0,22,23
 247 358 247 358 307 347 c 0,24,25
 341 341 341 341 341 307 c 256,26,27
 341 273 341 273 307.5 267 c 128,-1,28
 274 261 274 261 255.5 252.5 c 128,-1,29
 237 244 237 244 228 234 c 0,30,31
 215 218 215 218 215 186 c 2,32,-1
 215 -25 l 2,33,34
 215 -123 215 -123 130 -140 c 0,35,36
 105 -145 105 -145 75 -145 c 2,37,-1
 63 -145 l 2,38,39
 49 -145 49 -145 38.5 -134.5 c 128,-1,40
 28 -124 28 -124 28 -110 c 256,41,42
 28 -96 28 -96 38.5 -85.5 c 128,-1,43
 49 -75 49 -75 63 -75 c 2,44,-1
 78 -75 l 2,45,46
 132 -75 132 -75 136 -46 c 0,47,48
 137 -39 137 -39 137 -33 c 2,49,-1
 137 189 l 2,50,51
 137 274 137 274 227 307 c 1,0,1
EndSplineSet
EndChar

StartChar: asciitilde
Encoding: 126 126 97
Width: 638
Flags: W
LayerCount: 2
Fore
SplineSet
506.5 326 m 128,-1,1
 511 337 511 337 518.5 351.5 c 128,-1,2
 526 366 526 366 540 366 c 0,3,4
 568 366 568 366 568 343 c 0,5,6
 568 339 568 339 567 335 c 0,7,8
 555 269 555 269 520.5 237.5 c 128,-1,9
 486 206 486 206 443 206 c 128,-1,10
 400 206 400 206 367 218 c 128,-1,11
 334 230 334 230 304.5 244 c 128,-1,12
 275 258 275 258 248 270 c 128,-1,13
 221 282 221 282 192 282 c 0,14,15
 140 282 140 282 124 228 c 0,16,17
 119 209 119 209 104 209 c 128,-1,18
 89 209 89 209 81.5 216.5 c 128,-1,19
 74 224 74 224 74 241.5 c 128,-1,20
 74 259 74 259 84 282.5 c 128,-1,21
 94 306 94 306 112 324 c 0,22,23
 152 367 152 367 196.5 367 c 128,-1,24
 241 367 241 367 274.5 355 c 128,-1,25
 308 343 308 343 337.5 329 c 128,-1,26
 367 315 367 315 394 303 c 128,-1,27
 421 291 421 291 444 291 c 128,-1,28
 467 291 467 291 477.5 295.5 c 128,-1,29
 488 300 488 300 495 307.5 c 128,-1,0
 502 315 502 315 506.5 326 c 128,-1,1
EndSplineSet
EndChar

StartChar: cent
Encoding: 162 162 100
Width: 551
Flags: W
LayerCount: 2
Fore
SplineSet
209.5 502 m 128,-1,1
 258 520 258 520 298.5 520 c 128,-1,2
 339 520 339 520 363 516 c 1,3,-1
 392 601 l 2,4,5
 399 620 399 620 415.5 620 c 128,-1,6
 432 620 432 620 439.5 611 c 128,-1,7
 447 602 447 602 447 594.5 c 128,-1,8
 447 587 447 587 445 581 c 2,9,-1
 418 501 l 1,10,11
 449 490 449 490 474 472 c 1,12,13
 494 459 494 459 494 441 c 128,-1,14
 494 423 494 423 483 410 c 128,-1,15
 472 397 472 397 461 397 c 0,16,17
 444 397 444 397 434 403 c 1,18,-1
 391 423 l 1,19,-1
 273 79 l 1,20,21
 292 75 292 75 325 75 c 128,-1,22
 358 75 358 75 383 84 c 128,-1,23
 408 93 408 93 424 102 c 0,24,25
 445 113 445 113 458.5 113 c 128,-1,26
 472 113 472 113 483 100 c 128,-1,27
 494 87 494 87 494 69 c 128,-1,28
 494 51 494 51 471 36 c 0,29,30
 400 -10 400 -10 311 -10 c 0,31,32
 279 -10 279 -10 245 -2 c 1,33,-1
 210 -105 l 2,34,35
 204 -123 204 -123 187.5 -123 c 128,-1,36
 171 -123 171 -123 163 -114.5 c 128,-1,37
 155 -106 155 -106 155 -99 c 0,38,39
 155 -88 155 -88 158 -82 c 2,40,-1
 191 15 l 1,41,42
 126 44 126 44 85 105 c 128,-1,43
 44 166 44 166 44 255 c 0,44,45
 44 376 44 376 124 450 c 0,46,0
 161 484 161 484 209.5 502 c 128,-1,1
135 255 m 0,47,48
 135 143 135 143 220 98 c 1,49,-1
 335 434 l 1,50,51
 331 435 331 435 327 435 c 128,-1,52
 323 435 323 435 319 435 c 0,53,54
 231 435 231 435 183 385.5 c 128,-1,55
 135 336 135 336 135 255 c 0,47,48
EndSplineSet
EndChar

StartChar: sterling
Encoding: 163 163 101
Width: 604
Flags: W
LayerCount: 2
Fore
SplineSet
223 118 m 1,0,-1
 248 119 l 1,1,2
 286 119 286 119 329 105 c 128,-1,3
 372 91 372 91 395 84.5 c 128,-1,4
 418 78 418 78 440 78 c 0,5,6
 475 78 475 78 492 84 c 0,7,8
 519 93 519 93 530 93 c 128,-1,9
 541 93 541 93 553 81.5 c 128,-1,10
 565 70 565 70 565 50 c 0,11,12
 565 16 565 16 492 -3 c 0,13,14
 465 -10 465 -10 434.5 -10 c 128,-1,15
 404 -10 404 -10 381 -3 c 128,-1,16
 358 4 358 4 336 12 c 0,17,18
 280 35 280 35 242 35 c 0,19,20
 180 35 180 35 129 1 c 0,21,22
 118 -7 118 -7 104.5 -7 c 128,-1,23
 91 -7 91 -7 80 3.5 c 128,-1,24
 69 14 69 14 69 30.5 c 128,-1,25
 69 47 69 47 84 60.5 c 128,-1,26
 99 74 99 74 115.5 95 c 128,-1,27
 132 116 132 116 145 142 c 0,28,29
 175 200 175 200 175 255 c 0,30,31
 175 281 175 281 169 307 c 1,32,-1
 61 307 l 2,33,34
 39 307 39 307 39 329 c 0,35,36
 39 339 39 339 45 345.5 c 128,-1,37
 51 352 51 352 61 352 c 2,38,-1
 157 352 l 1,39,40
 146 386 146 386 135.5 421.5 c 128,-1,41
 125 457 125 457 125 504 c 128,-1,42
 125 551 125 551 142.5 589 c 128,-1,43
 160 627 160 627 192 654 c 0,44,45
 259 708 259 708 368 708 c 0,46,47
 443 708 443 708 512 679 c 0,48,49
 542 667 542 667 542 639 c 0,50,51
 542 622 542 622 530.5 609.5 c 128,-1,52
 519 597 519 597 507 597 c 0,53,54
 489 597 489 597 472 603 c 0,55,56
 424 620 424 620 374.5 620 c 128,-1,57
 325 620 325 620 295 610 c 128,-1,58
 265 600 265 600 248 584 c 0,59,60
 216 554 216 554 216 510.5 c 128,-1,61
 216 467 216 467 228 429 c 128,-1,62
 240 391 240 391 251 352 c 1,63,-1
 428 352 l 2,64,65
 438 352 438 352 444.5 345.5 c 128,-1,66
 451 339 451 339 451 329 c 256,67,68
 451 319 451 319 444.5 313 c 128,-1,69
 438 307 438 307 428 307 c 2,70,-1
 261 307 l 1,71,72
 265 287 265 287 265 261 c 0,73,74
 265 184 265 184 223 118 c 1,0,-1
EndSplineSet
EndChar

StartChar: currency
Encoding: 164 164 102
Width: 668
Flags: W
LayerCount: 2
Fore
SplineSet
334 112 m 256,0,1
 257 112 257 112 195 157 c 1,2,-1
 129 92 l 1,3,4
 116 81 116 81 101 81 c 128,-1,5
 86 81 86 81 76 92 c 128,-1,6
 66 103 66 103 66 118 c 256,7,8
 66 133 66 133 77 144 c 2,9,-1
 142 209 l 1,10,11
 97 273 97 273 97 349 c 256,12,13
 97 425 97 425 142 489 c 1,14,-1
 77 554 l 2,15,16
 66 565 66 565 66 580 c 256,17,18
 66 595 66 595 76 606 c 128,-1,19
 86 617 86 617 98 617 c 0,20,21
 116 617 116 617 129 606 c 1,22,-1
 195 541 l 1,23,24
 257 586 257 586 334 586 c 256,25,26
 411 586 411 586 473 541 c 1,27,-1
 539 606 l 1,28,29
 552 617 552 617 567 617 c 128,-1,30
 582 617 582 617 592 606 c 128,-1,31
 602 595 602 595 602 580 c 256,32,33
 602 565 602 565 591 554 c 2,34,-1
 526 489 l 1,35,36
 571 425 571 425 571 349 c 256,37,38
 571 273 571 273 526 209 c 1,39,-1
 591 144 l 2,40,41
 602 133 602 133 602 118 c 256,42,43
 602 103 602 103 592 92 c 128,-1,44
 582 81 582 81 570 81 c 0,45,46
 552 81 552 81 539 92 c 1,47,-1
 473 157 l 1,48,49
 411 112 411 112 334 112 c 256,0,1
334 505 m 256,50,51
 270 505 270 505 224 459 c 128,-1,52
 178 413 178 413 178 349 c 256,53,54
 178 285 178 285 224 239 c 128,-1,55
 270 193 270 193 334 193 c 256,56,57
 398 193 398 193 444 239 c 128,-1,58
 490 285 490 285 490 349 c 256,59,60
 490 413 490 413 444 459 c 128,-1,61
 398 505 398 505 334 505 c 256,50,51
EndSplineSet
EndChar

StartChar: yen
Encoding: 165 165 103
Width: 658
Flags: W
LayerCount: 2
Fore
SplineSet
329 381 m 1,0,-1
 502 684 l 2,1,2
 518 712 518 712 541.5 712 c 128,-1,3
 565 712 565 712 579 699 c 128,-1,4
 593 686 593 686 593 669 c 128,-1,5
 593 652 593 652 585 639 c 2,6,-1
 417 365 l 1,7,-1
 515 365 l 2,8,9
 531 365 531 365 541.5 354 c 128,-1,10
 552 343 552 343 552 327 c 256,11,12
 552 311 552 311 542 300.5 c 128,-1,13
 532 290 532 290 515 290 c 2,14,-1
 374 290 l 1,15,-1
 374 199 l 1,16,-1
 515 199 l 2,17,18
 531 199 531 199 541.5 188 c 128,-1,19
 552 177 552 177 552 161 c 256,20,21
 552 145 552 145 542 134.5 c 128,-1,22
 532 124 532 124 515 124 c 2,23,-1
 374 124 l 1,24,-1
 374 39 l 2,25,26
 374 20 374 20 360.5 7 c 128,-1,27
 347 -6 347 -6 329 -6 c 256,28,29
 311 -6 311 -6 297.5 7 c 128,-1,30
 284 20 284 20 284 39 c 2,31,-1
 284 124 l 1,32,-1
 143 124 l 2,33,34
 126 124 126 124 116 134.5 c 128,-1,35
 106 145 106 145 106 161 c 256,36,37
 106 177 106 177 116.5 188 c 128,-1,38
 127 199 127 199 143 199 c 2,39,-1
 284 199 l 1,40,-1
 284 290 l 1,41,-1
 143 290 l 2,42,43
 126 290 126 290 116 300.5 c 128,-1,44
 106 311 106 311 106 327 c 256,45,46
 106 343 106 343 116.5 354 c 128,-1,47
 127 365 127 365 143 365 c 2,48,-1
 241 365 l 1,49,-1
 73 639 l 2,50,51
 65 652 65 652 65 669 c 128,-1,52
 65 686 65 686 79 699 c 128,-1,53
 93 712 93 712 111.5 712 c 128,-1,54
 130 712 130 712 139.5 704 c 128,-1,55
 149 696 149 696 156 684 c 2,56,-1
 329 381 l 1,0,-1
EndSplineSet
EndChar

StartChar: section
Encoding: 167 167 104
Width: 529
Flags: W
LayerCount: 2
Fore
SplineSet
155 439 m 1,0,1
 91 485 91 485 91 560 c 0,2,3
 91 624 91 624 140 664 c 1,4,5
 191 708 191 708 279.5 708 c 128,-1,6
 368 708 368 708 434 681 c 0,7,8
 461 669 461 669 461 642 c 0,9,10
 461 626 461 626 448.5 614 c 128,-1,11
 436 602 436 602 424 602 c 128,-1,12
 412 602 412 602 396 608 c 0,13,14
 355 624 355 624 290 624 c 0,15,16
 177 624 177 624 177 554 c 0,17,18
 177 529 177 529 199.5 513 c 128,-1,19
 222 497 222 497 255.5 483 c 128,-1,20
 289 469 289 469 328 454.5 c 128,-1,21
 367 440 367 440 400 419 c 0,22,23
 479 370 479 370 479 292 c 0,24,25
 479 218 479 218 417 182 c 0,26,27
 399 171 399 171 380 165 c 1,28,29
 445 120 445 120 445 45 c 0,30,31
 445 -19 445 -19 396 -60 c 0,32,33
 345 -103 345 -103 252 -103 c 0,34,35
 135 -103 135 -103 63 -58 c 0,36,37
 47 -48 47 -48 47 -28 c 128,-1,38
 47 -8 47 -8 58 3.5 c 128,-1,39
 69 15 69 15 80 15 c 0,40,41
 92 15 92 15 107 9 c 1,42,43
 163 -19 163 -19 246 -19 c 0,44,45
 359 -19 359 -19 359 51 c 0,46,47
 359 75 359 75 336.5 91.5 c 128,-1,48
 314 108 314 108 280.5 122 c 128,-1,49
 247 136 247 136 208 150.5 c 128,-1,50
 169 165 169 165 136 186 c 0,51,52
 57 234 57 234 57 313 c 0,53,54
 57 387 57 387 118 422 c 0,55,56
 136 433 136 433 155 439 c 1,0,1
215 407 m 1,57,58
 141 388 141 388 141 319 c 0,59,60
 141 276 141 276 199 247 c 0,61,62
 225 234 225 234 256.5 222.5 c 128,-1,63
 288 211 288 211 320 198 c 1,64,65
 395 217 395 217 395 286 c 0,66,67
 395 328 395 328 336 358 c 0,68,69
 311 371 311 371 278.5 382 c 128,-1,70
 246 393 246 393 215 407 c 1,57,58
EndSplineSet
EndChar

StartChar: dieresis
Encoding: 168 168 105
Width: 400
Flags: W
LayerCount: 2
Fore
SplineSet
114 677 m 256,0,1
 135 677 135 677 150 662 c 128,-1,2
 165 647 165 647 165 626 c 256,3,4
 165 605 165 605 150 590 c 128,-1,5
 135 575 135 575 114 575 c 256,6,7
 93 575 93 575 78 590 c 128,-1,8
 63 605 63 605 63 626 c 256,9,10
 63 647 63 647 78 662 c 128,-1,11
 93 677 93 677 114 677 c 256,0,1
283 677 m 256,12,13
 304 677 304 677 319 662 c 128,-1,14
 334 647 334 647 334 626 c 256,15,16
 334 605 334 605 319 590 c 128,-1,17
 304 575 304 575 283 575 c 256,18,19
 262 575 262 575 247 590 c 128,-1,20
 232 605 232 605 232 626 c 256,21,22
 232 647 232 647 247 662 c 128,-1,23
 262 677 262 677 283 677 c 256,12,13
EndSplineSet
EndChar

StartChar: copyright
Encoding: 169 169 106
Width: 819
Flags: W
LayerCount: 2
Fore
SplineSet
410 -9 m 256,0,1
 336 -9 336 -9 270.5 19 c 128,-1,2
 205 47 205 47 156 96 c 128,-1,3
 107 145 107 145 79 210 c 128,-1,4
 51 275 51 275 51 349 c 256,5,6
 51 423 51 423 79 488 c 128,-1,7
 107 553 107 553 156 602 c 128,-1,8
 205 651 205 651 270.5 679 c 128,-1,9
 336 707 336 707 410 707 c 256,10,11
 484 707 484 707 549.5 679 c 128,-1,12
 615 651 615 651 663.5 602 c 128,-1,13
 712 553 712 553 740.5 488 c 128,-1,14
 769 423 769 423 769 349 c 256,15,16
 769 275 769 275 740.5 210 c 128,-1,17
 712 145 712 145 663.5 96 c 128,-1,18
 615 47 615 47 549.5 19 c 128,-1,19
 484 -9 484 -9 410 -9 c 256,0,1
410 655 m 0,20,21
 346 655 346 655 290.5 631 c 128,-1,22
 235 607 235 607 193 565 c 0,23,24
 103 475 103 475 103 349 c 256,25,26
 103 223 103 223 193 133 c 128,-1,27
 283 43 283 43 409 43 c 0,28,29
 537 43 537 43 627 133 c 128,-1,30
 717 223 717 223 717 349 c 256,31,32
 717 475 717 475 627 565 c 128,-1,33
 537 655 537 655 410 655 c 0,20,21
585 251 m 0,34,35
 561 202 561 202 518.5 174 c 128,-1,36
 476 146 476 146 424.5 146 c 128,-1,37
 373 146 373 146 337.5 160.5 c 128,-1,38
 302 175 302 175 276 202 c 0,39,40
 223 257 223 257 223 349 c 256,41,42
 223 441 223 441 276.5 496.5 c 128,-1,43
 330 552 330 552 416 552 c 0,44,45
 476 552 476 552 518.5 524 c 128,-1,46
 561 496 561 496 585 447 c 0,47,48
 588 441 588 441 588 430.5 c 128,-1,49
 588 420 588 420 579 411 c 128,-1,50
 570 402 570 402 559 402 c 128,-1,51
 548 402 548 402 540.5 406 c 128,-1,52
 533 410 533 410 520.5 431.5 c 128,-1,53
 508 453 508 453 482 472 c 128,-1,54
 456 491 456 491 420 491 c 128,-1,55
 384 491 384 491 360.5 479.5 c 128,-1,56
 337 468 337 468 322 448 c 1,57,58
 290 409 290 409 290 349 c 256,59,60
 290 289 290 289 322 250 c 1,61,62
 355 207 355 207 416 207 c 0,63,64
 486 207 486 207 525 274 c 0,65,66
 538 296 538 296 554 296 c 128,-1,67
 570 296 570 296 579 287 c 128,-1,68
 588 278 588 278 588 267.5 c 128,-1,69
 588 257 588 257 585 251 c 0,34,35
EndSplineSet
EndChar

StartChar: ordfeminine
Encoding: 170 170 107
Width: 485
Flags: W
LayerCount: 2
Fore
SplineSet
377 285 m 2,0,1
 388 285 388 285 396.5 276.5 c 128,-1,2
 405 268 405 268 405 257 c 256,3,4
 405 246 405 246 396.5 237.5 c 128,-1,5
 388 229 388 229 377 229 c 2,6,-1
 94 229 l 2,7,8
 83 229 83 229 74.5 237.5 c 128,-1,9
 66 246 66 246 66 257 c 256,10,11
 66 268 66 268 74.5 276.5 c 128,-1,12
 83 285 83 285 94 285 c 2,13,-1
 377 285 l 2,0,1
318 387 m 1,14,15
 275 339 275 339 197 339 c 0,16,17
 150 339 150 339 116 368 c 0,18,19
 81 397 81 397 81 446.5 c 128,-1,20
 81 496 81 496 120.5 524.5 c 128,-1,21
 160 553 160 553 242 553 c 2,22,-1
 318 553 l 1,23,-1
 318 555 l 2,24,25
 318 601 318 601 296.5 620.5 c 128,-1,26
 275 640 275 640 240 640 c 0,27,28
 185 640 185 640 142 624 c 0,29,30
 136 622 136 622 127 622 c 128,-1,31
 118 622 118 622 109 631.5 c 128,-1,32
 100 641 100 641 100 652 c 0,33,34
 100 675 100 675 124 684 c 0,35,36
 185 708 185 708 233.5 708 c 128,-1,37
 282 708 282 708 309.5 696 c 128,-1,38
 337 684 337 684 355 664 c 0,39,40
 390 627 390 627 390 569 c 2,41,-1
 390 378 l 2,42,43
 390 363 390 363 379.5 352.5 c 128,-1,44
 369 342 369 342 354 342 c 256,45,46
 339 342 339 342 328.5 352.5 c 128,-1,47
 318 363 318 363 318 378 c 2,48,-1
 318 387 l 1,14,15
250 499 m 2,49,50
 153 499 153 499 153 452 c 0,51,52
 153 432 153 432 167.5 418 c 128,-1,53
 182 404 182 404 216 404 c 0,54,55
 276 404 276 404 318 451 c 1,56,-1
 318 499 l 1,57,-1
 250 499 l 2,49,50
EndSplineSet
EndChar

StartChar: guillemotleft
Encoding: 171 171 108
Width: 585
Flags: W
LayerCount: 2
Fore
SplineSet
294 85 m 2,0,1
 303 74 303 74 303 58 c 128,-1,2
 303 42 303 42 292 31 c 128,-1,3
 281 20 281 20 263 20 c 128,-1,4
 245 20 245 20 236 31 c 2,5,-1
 72 212 l 1,6,7
 54 230 54 230 54 255 c 256,8,9
 54 280 54 280 72 298 c 1,10,-1
 236 479 l 2,11,12
 245 490 245 490 263 490 c 128,-1,13
 281 490 281 490 292 479 c 128,-1,14
 303 468 303 468 303 451.5 c 128,-1,15
 303 435 303 435 294 425 c 2,16,-1
 134 255 l 1,17,-1
 294 85 l 2,0,1
502 85 m 2,18,19
 511 74 511 74 511 58 c 128,-1,20
 511 42 511 42 500 31 c 128,-1,21
 489 20 489 20 471 20 c 128,-1,22
 453 20 453 20 444 31 c 2,23,-1
 280 212 l 1,24,25
 262 230 262 230 262 255 c 256,26,27
 262 280 262 280 280 298 c 1,28,-1
 444 479 l 2,29,30
 453 490 453 490 471 490 c 128,-1,31
 489 490 489 490 500 479 c 128,-1,32
 511 468 511 468 511 451.5 c 128,-1,33
 511 435 511 435 502 425 c 2,34,-1
 342 255 l 1,35,-1
 502 85 l 2,18,19
EndSplineSet
EndChar

StartChar: logicalnot
Encoding: 172 172 109
Width: 579
Flags: W
LayerCount: 2
Fore
SplineSet
483.5 370.5 m 128,-1,1
 496 358 496 358 496 341 c 2,2,-1
 496 205 l 2,3,4
 496 189 496 189 485 178.5 c 128,-1,5
 474 168 474 168 458 168 c 256,6,7
 442 168 442 168 431.5 178.5 c 128,-1,8
 421 189 421 189 421 205 c 2,9,-1
 421 311 l 1,10,-1
 109 311 l 2,11,12
 94 311 94 311 83.5 321.5 c 128,-1,13
 73 332 73 332 73 347 c 256,14,15
 73 362 73 362 83.5 372.5 c 128,-1,16
 94 383 94 383 109 383 c 2,17,-1
 454 383 l 2,18,0
 471 383 471 383 483.5 370.5 c 128,-1,1
EndSplineSet
EndChar

StartChar: registered
Encoding: 174 174 110
Width: 819
Flags: W
LayerCount: 2
Fore
SplineSet
410 708 m 256,0,1
 484 708 484 708 549.5 679.5 c 128,-1,2
 615 651 615 651 663.5 602.5 c 128,-1,3
 712 554 712 554 740.5 488.5 c 128,-1,4
 769 423 769 423 769 349 c 256,5,6
 769 275 769 275 740.5 209.5 c 128,-1,7
 712 144 712 144 663.5 95 c 128,-1,8
 615 46 615 46 549.5 18 c 128,-1,9
 484 -10 484 -10 410 -10 c 256,10,11
 336 -10 336 -10 270.5 18 c 128,-1,12
 205 46 205 46 156 95 c 128,-1,13
 107 144 107 144 79 209.5 c 128,-1,14
 51 275 51 275 51 349 c 256,15,16
 51 423 51 423 79 488.5 c 128,-1,17
 107 554 107 554 156 602.5 c 128,-1,18
 205 651 205 651 270.5 679.5 c 128,-1,19
 336 708 336 708 410 708 c 256,0,1
410 42 m 0,20,21
 473 42 473 42 529 66 c 128,-1,22
 585 90 585 90 627 132 c 0,23,24
 717 222 717 222 717 350 c 0,25,26
 717 476 717 476 627 566 c 128,-1,27
 537 656 537 656 409 656 c 0,28,29
 283 656 283 656 193 566 c 128,-1,30
 103 476 103 476 103 350 c 0,31,32
 103 222 103 222 193 132 c 128,-1,33
 283 42 283 42 410 42 c 0,20,21
545.5 513.5 m 128,-1,35
 583 479 583 479 583 434.5 c 128,-1,36
 583 390 583 390 560.5 366 c 128,-1,37
 538 342 538 342 509 331 c 1,38,39
 533 323 533 323 555.5 294 c 128,-1,40
 578 265 578 265 578 206 c 2,41,-1
 578 179 l 2,42,43
 578 165 578 165 568 155 c 128,-1,44
 558 145 558 145 544 145 c 256,45,46
 530 145 530 145 520 155 c 128,-1,47
 510 165 510 165 510 179 c 2,48,-1
 510 197 l 2,49,50
 510 240 510 240 502 259 c 0,51,52
 484 299 484 299 437 299 c 2,53,-1
 328 299 l 1,54,-1
 328 178 l 2,55,56
 328 164 328 164 318 154.5 c 128,-1,57
 308 145 308 145 294 145 c 256,58,59
 280 145 280 145 270.5 154.5 c 128,-1,60
 261 164 261 164 261 178 c 2,61,-1
 261 502 l 2,62,63
 261 521 261 521 274 534.5 c 128,-1,64
 287 548 287 548 306 548 c 2,65,-1
 426 548 l 2,66,34
 508 548 508 548 545.5 513.5 c 128,-1,35
423 358 m 2,67,68
 465 358 465 358 491 375 c 128,-1,69
 517 392 517 392 517 423.5 c 128,-1,70
 517 455 517 455 496.5 472.5 c 128,-1,71
 476 490 476 490 421 490 c 2,72,-1
 328 490 l 1,73,-1
 328 358 l 1,74,-1
 423 358 l 2,67,68
EndSplineSet
EndChar

StartChar: macron
Encoding: 175 175 111
Width: 312
Flags: W
LayerCount: 2
Fore
SplineSet
293.5 639.5 m 128,-1,1
 302 631 302 631 302 618 c 256,2,3
 302 605 302 605 293.5 596.5 c 128,-1,4
 285 588 285 588 272 588 c 2,5,-1
 38 588 l 2,6,7
 25 588 25 588 16.5 596.5 c 128,-1,8
 8 605 8 605 8 618 c 256,9,10
 8 631 8 631 16.5 639.5 c 128,-1,11
 25 648 25 648 38 648 c 2,12,-1
 272 648 l 2,13,0
 285 648 285 648 293.5 639.5 c 128,-1,1
EndSplineSet
EndChar

StartChar: degree
Encoding: 176 176 112
Width: 378
Flags: W
LayerCount: 2
Fore
SplineSet
189 708 m 0,0,1
 246 708 246 708 286 668 c 128,-1,2
 326 628 326 628 326 571 c 0,3,4
 326 513 326 513 286 474 c 0,5,6
 244 434 244 434 189 434 c 0,7,8
 133 434 133 434 92.5 474.5 c 128,-1,9
 52 515 52 515 52 571 c 0,10,11
 52 626 52 626 92 668 c 0,12,13
 131 708 131 708 189 708 c 0,0,1
189 486 m 256,14,15
 224 486 224 486 249 511 c 128,-1,16
 274 536 274 536 274 571 c 256,17,18
 274 606 274 606 249 631 c 128,-1,19
 224 656 224 656 189 656 c 256,20,21
 154 656 154 656 129 631 c 128,-1,22
 104 606 104 606 104 571 c 256,23,24
 104 536 104 536 129 511 c 128,-1,25
 154 486 154 486 189 486 c 256,14,15
EndSplineSet
EndChar

StartChar: plusminus
Encoding: 177 177 113
Width: 606
Flags: W
LayerCount: 2
Fore
SplineSet
505 77 m 2,0,1
 522 77 522 77 533 66 c 128,-1,2
 544 55 544 55 544 38 c 256,3,4
 544 21 544 21 533 10.5 c 128,-1,5
 522 0 522 0 505 0 c 2,6,-1
 100 0 l 2,7,8
 83 0 83 0 72.5 10.5 c 128,-1,9
 62 21 62 21 62 38 c 256,10,11
 62 55 62 55 72.5 66 c 128,-1,12
 83 77 83 77 100 77 c 2,13,-1
 505 77 l 2,0,1
100 342 m 2,14,15
 83 342 83 342 72.5 352.5 c 128,-1,16
 62 363 62 363 62 380 c 256,17,18
 62 397 62 397 72.5 408 c 128,-1,19
 83 419 83 419 100 419 c 2,20,-1
 264 419 l 1,21,-1
 264 577 l 2,22,23
 264 594 264 594 275 605 c 128,-1,24
 286 616 286 616 303 616 c 256,25,26
 320 616 320 616 331 605 c 128,-1,27
 342 594 342 594 342 577 c 2,28,-1
 342 419 l 1,29,-1
 505 419 l 2,30,31
 522 419 522 419 533 408 c 128,-1,32
 544 397 544 397 544 380 c 256,33,34
 544 363 544 363 533 352.5 c 128,-1,35
 522 342 522 342 505 342 c 2,36,-1
 342 342 l 1,37,-1
 342 184 l 2,38,39
 342 167 342 167 331 156 c 128,-1,40
 320 145 320 145 303 145 c 256,41,42
 286 145 286 145 275 156 c 128,-1,43
 264 167 264 167 264 184 c 2,44,-1
 264 342 l 1,45,-1
 100 342 l 2,14,15
EndSplineSet
EndChar

StartChar: twosuperior
Encoding: 178 178 114
Width: 370
Flags: W
LayerCount: 2
Fore
SplineSet
318.5 501.5 m 128,-1,1
 327 493 327 493 327 480 c 256,2,3
 327 467 327 467 318.5 459 c 128,-1,4
 310 451 310 451 297 451 c 2,5,-1
 77 451 l 2,6,7
 60 451 60 451 49 463.5 c 128,-1,8
 38 476 38 476 38 497.5 c 128,-1,9
 38 519 38 519 54.5 542 c 128,-1,10
 71 565 71 565 95.5 584.5 c 128,-1,11
 120 604 120 604 149 622 c 128,-1,12
 178 640 178 640 202.5 657 c 128,-1,13
 227 674 227 674 243.5 691.5 c 128,-1,14
 260 709 260 709 260 731.5 c 128,-1,15
 260 754 260 754 242.5 771.5 c 128,-1,16
 225 789 225 789 188 789 c 0,17,18
 129 789 129 789 87 767 c 0,19,20
 81 764 81 764 71.5 764 c 128,-1,21
 62 764 62 764 54 771.5 c 128,-1,22
 46 779 46 779 46 794 c 128,-1,23
 46 809 46 809 64 820 c 0,24,25
 115 850 115 850 182 850 c 128,-1,26
 249 850 249 850 286 816.5 c 128,-1,27
 323 783 323 783 323 733 c 0,28,29
 323 664 323 664 228 600 c 0,30,31
 203 582 203 582 179 566 c 0,32,33
 120 528 120 528 107 510 c 1,34,-1
 297 510 l 2,35,0
 310 510 310 510 318.5 501.5 c 128,-1,1
EndSplineSet
EndChar

StartChar: threesuperior
Encoding: 179 179 115
Width: 370
Flags: W
LayerCount: 2
Fore
SplineSet
141 681 m 2,0,1
 246 681 246 681 246 739 c 0,2,3
 246 777 246 777 195 786 c 0,4,5
 181 789 181 789 160 789 c 0,6,7
 120 789 120 789 82 770 c 0,8,9
 76 767 76 767 67 767 c 128,-1,10
 58 767 58 767 49.5 774.5 c 128,-1,11
 41 782 41 782 41 796 c 128,-1,12
 41 810 41 810 62 822 c 0,13,14
 116 850 116 850 180.5 850 c 128,-1,15
 245 850 245 850 276.5 819 c 128,-1,16
 308 788 308 788 308 746 c 128,-1,17
 308 704 308 704 287.5 683 c 128,-1,18
 267 662 267 662 246 654 c 1,19,20
 322 631 322 631 322 557 c 0,21,22
 322 481 322 481 244 454 c 0,23,24
 216 445 216 445 176 445 c 0,25,26
 98 445 98 445 53 470 c 0,27,28
 36 480 36 480 36 494.5 c 128,-1,29
 36 509 36 509 45 517.5 c 128,-1,30
 54 526 54 526 61 526 c 0,31,32
 70 526 70 526 81 522 c 0,33,34
 132 507 132 507 167 507 c 0,35,36
 259 507 259 507 259 559 c 0,37,38
 259 621 259 621 147 621 c 2,39,-1
 136 621 l 2,40,41
 123 621 123 621 114.5 629.5 c 128,-1,42
 106 638 106 638 106 651 c 256,43,44
 106 664 106 664 114.5 672.5 c 128,-1,45
 123 681 123 681 136 681 c 2,46,-1
 141 681 l 2,0,1
EndSplineSet
EndChar

StartChar: acute
Encoding: 180 180 116
Width: 240
Flags: W
LayerCount: 2
Fore
SplineSet
106 703 m 2,0,1
 116 722 116 722 136 722 c 0,2,3
 176 722 176 722 176 685 c 0,4,5
 176 671 176 671 166 660 c 2,6,-1
 97 578 l 2,7,8
 88 567 88 567 75.5 567 c 128,-1,9
 63 567 63 567 55.5 574.5 c 128,-1,10
 48 582 48 582 48 591 c 0,11,12
 48 606 48 606 55 613 c 1,13,-1
 106 703 l 2,0,1
EndSplineSet
EndChar

StartChar: mu
Encoding: 181 181 117
Width: 604
Flags: W
LayerCount: 2
Fore
SplineSet
285 74 m 0,0,1
 373 74 373 74 449 170 c 1,2,-1
 449 470 l 2,3,4
 449 489 449 489 462.5 502 c 128,-1,5
 476 515 476 515 495 515 c 256,6,7
 514 515 514 515 527 502 c 128,-1,8
 540 489 540 489 540 470 c 2,9,-1
 540 41 l 2,10,11
 540 21 540 21 527 8 c 128,-1,12
 514 -5 514 -5 495 -5 c 256,13,14
 476 -5 476 -5 462.5 8 c 128,-1,15
 449 21 449 21 449 41 c 2,16,-1
 449 82 l 1,17,18
 407 37 407 37 380 22 c 1,19,20
 327 -10 327 -10 272 -10 c 128,-1,21
 217 -10 217 -10 175 17 c 1,22,-1
 175 -173 l 2,23,24
 175 -192 175 -192 161.5 -205 c 128,-1,25
 148 -218 148 -218 129 -218 c 256,26,27
 110 -218 110 -218 97 -205 c 128,-1,28
 84 -192 84 -192 84 -173 c 2,29,-1
 84 470 l 2,30,31
 84 489 84 489 97.5 502 c 128,-1,32
 111 515 111 515 130 515 c 256,33,34
 149 515 149 515 162 502 c 128,-1,35
 175 489 175 489 175 470 c 2,36,-1
 175 196 l 2,37,38
 175 139 175 139 200.5 106.5 c 128,-1,39
 226 74 226 74 285 74 c 0,0,1
EndSplineSet
EndChar

StartChar: paragraph
Encoding: 182 182 118
Width: 732
Flags: W
LayerCount: 2
Fore
SplineSet
676.5 686.5 m 128,-1,1
 688 675 688 675 688 658 c 256,2,3
 688 641 688 641 676.5 630 c 128,-1,4
 665 619 665 619 648 619 c 2,5,-1
 602 619 l 1,6,-1
 602 -184 l 2,7,8
 602 -201 602 -201 590.5 -212.5 c 128,-1,9
 579 -224 579 -224 562 -224 c 256,10,11
 545 -224 545 -224 534 -212.5 c 128,-1,12
 523 -201 523 -201 523 -184 c 2,13,-1
 523 619 l 1,14,-1
 411 619 l 1,15,-1
 411 -184 l 2,16,17
 411 -201 411 -201 399.5 -212.5 c 128,-1,18
 388 -224 388 -224 371 -224 c 256,19,20
 354 -224 354 -224 343 -212.5 c 128,-1,21
 332 -201 332 -201 332 -184 c 2,22,-1
 332 184 l 1,23,-1
 296 184 l 2,24,25
 189 184 189 184 114 259 c 128,-1,26
 39 334 39 334 39 441 c 256,27,28
 39 548 39 548 114 623 c 128,-1,29
 189 698 189 698 296 698 c 2,30,-1
 648 698 l 2,31,0
 665 698 665 698 676.5 686.5 c 128,-1,1
EndSplineSet
EndChar

StartChar: periodcentered
Encoding: 183 183 119
Width: 260
Flags: W
LayerCount: 2
Fore
SplineSet
174.5 327.5 m 128,-1,1
 191 311 191 311 191 288 c 2,2,-1
 191 282 l 2,3,4
 191 259 191 259 174.5 242.5 c 128,-1,5
 158 226 158 226 135 226 c 2,6,-1
 125 226 l 2,7,8
 102 226 102 226 85.5 242.5 c 128,-1,9
 69 259 69 259 69 282 c 2,10,-1
 69 288 l 2,11,12
 69 311 69 311 85.5 327.5 c 128,-1,13
 102 344 102 344 125 344 c 2,14,-1
 135 344 l 2,15,0
 158 344 158 344 174.5 327.5 c 128,-1,1
EndSplineSet
EndChar

StartChar: cedilla
Encoding: 184 184 120
Width: 307
Flags: W
LayerCount: 2
Fore
SplineSet
133 -178 m 0,0,1
 190 -178 190 -178 190 -132 c 0,2,3
 190 -117 190 -117 179.5 -109 c 128,-1,4
 169 -101 169 -101 156 -101 c 0,5,6
 132 -101 132 -101 120 -107 c 0,7,8
 104 -115 104 -115 98.5 -115 c 128,-1,9
 93 -115 93 -115 87.5 -110.5 c 128,-1,10
 82 -106 82 -106 82 -98.5 c 128,-1,11
 82 -91 82 -91 86 -85 c 2,12,-1
 150 17 l 1,13,-1
 192 17 l 1,14,-1
 146 -63 l 1,15,16
 162 -59 162 -59 188 -59 c 128,-1,17
 214 -59 214 -59 235.5 -78 c 128,-1,18
 257 -97 257 -97 257 -129 c 0,19,20
 257 -221 257 -221 146 -221 c 0,21,22
 98 -221 98 -221 56 -195 c 1,23,24
 45 -190 45 -190 45 -178 c 0,25,26
 45 -158 45 -158 64 -158 c 0,27,28
 68 -158 68 -158 74 -161 c 0,29,30
 105 -178 105 -178 133 -178 c 0,0,1
EndSplineSet
EndChar

StartChar: onesuperior
Encoding: 185 185 121
Width: 370
Flags: W
LayerCount: 2
Fore
SplineSet
303.5 501.5 m 128,-1,1
 312 493 312 493 312 480 c 256,2,3
 312 467 312 467 303.5 459 c 128,-1,4
 295 451 295 451 282 451 c 2,5,-1
 108 451 l 2,6,7
 95 451 95 451 87 459 c 128,-1,8
 79 467 79 467 79 480 c 256,9,10
 79 493 79 493 87 501.5 c 128,-1,11
 95 510 95 510 108 510 c 2,12,-1
 168 510 l 1,13,-1
 168 775 l 1,14,-1
 123 753 l 2,15,16
 115 749 115 749 105.5 749 c 128,-1,17
 96 749 96 749 87 757.5 c 128,-1,18
 78 766 78 766 78 781.5 c 128,-1,19
 78 797 78 797 97 807 c 2,20,-1
 169 844 l 2,21,22
 179 849 179 849 194 849 c 128,-1,23
 209 849 209 849 220.5 836.5 c 128,-1,24
 232 824 232 824 232 806 c 2,25,-1
 232 510 l 1,26,-1
 282 510 l 2,27,0
 295 510 295 510 303.5 501.5 c 128,-1,1
EndSplineSet
EndChar

StartChar: ordmasculine
Encoding: 186 186 122
Width: 514
Flags: W
LayerCount: 2
Fore
SplineSet
256 708 m 0,0,1
 297 708 297 708 330 694.5 c 128,-1,2
 363 681 363 681 386 657 c 0,3,4
 435 607 435 607 435 524 c 256,5,6
 435 441 435 441 386 390 c 256,7,8
 337 339 337 339 257 339 c 128,-1,9
 177 339 177 339 128 390 c 256,10,11
 79 441 79 441 79 524 c 256,12,13
 79 607 79 607 128 657 c 0,14,15
 177 708 177 708 256 708 c 0,0,1
257 403 m 0,16,17
 324 403 324 403 353 469 c 0,18,19
 363 492 363 492 363 525 c 0,20,21
 363 584 363 584 328 618 c 0,22,23
 300 645 300 645 257 645 c 0,24,25
 215 645 215 645 186 618 c 0,26,27
 151 585 151 585 151 525 c 0,28,29
 151 464 151 464 186 431 c 1,30,31
 214 403 214 403 257 403 c 0,16,17
416 285 m 2,32,33
 427 285 427 285 435.5 276.5 c 128,-1,34
 444 268 444 268 444 257 c 256,35,36
 444 246 444 246 435.5 237.5 c 128,-1,37
 427 229 427 229 416 229 c 2,38,-1
 98 229 l 2,39,40
 87 229 87 229 78.5 237.5 c 128,-1,41
 70 246 70 246 70 257 c 256,42,43
 70 268 70 268 78.5 276.5 c 128,-1,44
 87 285 87 285 98 285 c 2,45,-1
 416 285 l 2,32,33
EndSplineSet
EndChar

StartChar: guillemotright
Encoding: 187 187 123
Width: 585
Flags: W
LayerCount: 2
Fore
SplineSet
293 31 m 128,-1,1
 282 42 282 42 282 58 c 128,-1,2
 282 74 282 74 291 85 c 2,3,-1
 451 255 l 1,4,-1
 291 425 l 2,5,6
 282 435 282 435 282 451.5 c 128,-1,7
 282 468 282 468 293 479 c 128,-1,8
 304 490 304 490 322 490 c 128,-1,9
 340 490 340 490 349 479 c 2,10,-1
 513 298 l 1,11,12
 531 280 531 280 531 255 c 256,13,14
 531 230 531 230 513 212 c 1,15,-1
 349 31 l 2,16,17
 340 20 340 20 322 20 c 128,-1,0
 304 20 304 20 293 31 c 128,-1,1
85 31 m 128,-1,19
 74 42 74 42 74 58 c 128,-1,20
 74 74 74 74 83 85 c 2,21,-1
 243 255 l 1,22,-1
 83 425 l 2,23,24
 74 435 74 435 74 451.5 c 128,-1,25
 74 468 74 468 85 479 c 128,-1,26
 96 490 96 490 114 490 c 128,-1,27
 132 490 132 490 141 479 c 2,28,-1
 305 298 l 1,29,30
 323 280 323 280 323 255 c 256,31,32
 323 230 323 230 305 212 c 1,33,-1
 141 31 l 2,34,35
 132 20 132 20 114 20 c 128,-1,18
 96 20 96 20 85 31 c 128,-1,19
EndSplineSet
EndChar

StartChar: onequarter
Encoding: 188 188 124
Width: 940
Flags: W
LayerCount: 2
Fore
SplineSet
837 155 m 2,0,1
 850 155 850 155 858.5 146.5 c 128,-1,2
 867 138 867 138 867 125 c 256,3,4
 867 112 867 112 858.5 104 c 128,-1,5
 850 96 850 96 837 96 c 2,6,-1
 801 96 l 1,7,-1
 801 27 l 2,8,9
 801 13 801 13 792 4 c 128,-1,10
 783 -5 783 -5 769 -5 c 256,11,12
 755 -5 755 -5 746 4 c 128,-1,13
 737 13 737 13 737 27 c 2,14,-1
 737 96 l 1,15,-1
 581 96 l 2,16,17
 564 96 564 96 551.5 108.5 c 128,-1,18
 539 121 539 121 539 137 c 128,-1,19
 539 153 539 153 550 167 c 2,20,-1
 715 375 l 1,21,22
 733 396 733 396 751 396 c 2,23,-1
 759 396 l 2,24,25
 777 396 777 396 789 383.5 c 128,-1,26
 801 371 801 371 801 354 c 2,27,-1
 801 155 l 1,28,-1
 837 155 l 2,0,1
737 155 m 1,29,-1
 737 317 l 1,30,-1
 610 155 l 1,31,-1
 737 155 l 1,29,-1
290 -10 m 2,32,33
 281 -24 281 -24 264.5 -24 c 128,-1,34
 248 -24 248 -24 238 -14.5 c 128,-1,35
 228 -5 228 -5 228 6.5 c 128,-1,36
 228 18 228 18 233 28 c 2,37,-1
 647 710 l 2,38,39
 656 724 656 724 672.5 724 c 128,-1,40
 689 724 689 724 699 714.5 c 128,-1,41
 709 705 709 705 709 693.5 c 128,-1,42
 709 682 709 682 704 672 c 2,43,-1
 290 -10 l 2,32,33
289 369 m 2,44,45
 302 369 302 369 310.5 360.5 c 128,-1,46
 319 352 319 352 319 339 c 256,47,48
 319 326 319 326 310.5 318 c 128,-1,49
 302 310 302 310 289 310 c 2,50,-1
 115 310 l 2,51,52
 102 310 102 310 94 318 c 128,-1,53
 86 326 86 326 86 339 c 256,54,55
 86 352 86 352 94 360.5 c 128,-1,56
 102 369 102 369 115 369 c 2,57,-1
 175 369 l 1,58,-1
 175 634 l 1,59,-1
 130 612 l 2,60,61
 122 608 122 608 112.5 608 c 128,-1,62
 103 608 103 608 94 616.5 c 128,-1,63
 85 625 85 625 85 640.5 c 128,-1,64
 85 656 85 656 104 666 c 2,65,-1
 176 703 l 2,66,67
 186 708 186 708 201 708 c 128,-1,68
 216 708 216 708 227.5 695.5 c 128,-1,69
 239 683 239 683 239 665 c 2,70,-1
 239 369 l 1,71,-1
 289 369 l 2,44,45
EndSplineSet
EndChar

StartChar: onehalf
Encoding: 189 189 125
Width: 940
Flags: W
LayerCount: 2
Fore
SplineSet
283 369 m 2,0,1
 296 369 296 369 304.5 360.5 c 128,-1,2
 313 352 313 352 313 339 c 256,3,4
 313 326 313 326 304.5 318 c 128,-1,5
 296 310 296 310 283 310 c 2,6,-1
 109 310 l 2,7,8
 96 310 96 310 88 318 c 128,-1,9
 80 326 80 326 80 339 c 256,10,11
 80 352 80 352 88 360.5 c 128,-1,12
 96 369 96 369 109 369 c 2,13,-1
 169 369 l 1,14,-1
 169 634 l 1,15,-1
 124 612 l 2,16,17
 116 608 116 608 106.5 608 c 128,-1,18
 97 608 97 608 88 616.5 c 128,-1,19
 79 625 79 625 79 640.5 c 128,-1,20
 79 656 79 656 98 666 c 2,21,-1
 170 703 l 2,22,23
 180 708 180 708 195 708 c 128,-1,24
 210 708 210 708 221.5 695.5 c 128,-1,25
 233 683 233 683 233 665 c 2,26,-1
 233 369 l 1,27,-1
 283 369 l 2,0,1
284 -10 m 2,28,29
 275 -24 275 -24 258.5 -24 c 128,-1,30
 242 -24 242 -24 232 -14.5 c 128,-1,31
 222 -5 222 -5 222 6.5 c 128,-1,32
 222 18 222 18 227 28 c 2,33,-1
 641 710 l 2,34,35
 650 724 650 724 666.5 724 c 128,-1,36
 683 724 683 724 693 714.5 c 128,-1,37
 703 705 703 705 703 693.5 c 128,-1,38
 703 682 703 682 698 672 c 2,39,-1
 284 -10 l 2,28,29
835 59 m 2,40,41
 848 59 848 59 856.5 50.5 c 128,-1,42
 865 42 865 42 865 29 c 256,43,44
 865 16 865 16 856.5 8 c 128,-1,45
 848 0 848 0 835 0 c 2,46,-1
 615 0 l 2,47,48
 598 0 598 0 587 12.5 c 128,-1,49
 576 25 576 25 576 46.5 c 128,-1,50
 576 68 576 68 592.5 91 c 128,-1,51
 609 114 609 114 633.5 133.5 c 128,-1,52
 658 153 658 153 687 171 c 128,-1,53
 716 189 716 189 740.5 206 c 128,-1,54
 765 223 765 223 781.5 240.5 c 128,-1,55
 798 258 798 258 798 280.5 c 128,-1,56
 798 303 798 303 780.5 320.5 c 128,-1,57
 763 338 763 338 726 338 c 0,58,59
 667 338 667 338 625 316 c 0,60,61
 619 313 619 313 609.5 313 c 128,-1,62
 600 313 600 313 592 320.5 c 128,-1,63
 584 328 584 328 584 343 c 128,-1,64
 584 358 584 358 602 369 c 0,65,66
 653 399 653 399 720 399 c 128,-1,67
 787 399 787 399 824 365.5 c 128,-1,68
 861 332 861 332 861 282 c 0,69,70
 861 213 861 213 766 148 c 0,71,72
 741 131 741 131 717 116 c 0,73,74
 658 77 658 77 645 59 c 1,75,-1
 835 59 l 2,40,41
EndSplineSet
EndChar

StartChar: threequarters
Encoding: 190 190 126
Width: 940
Flags: W
LayerCount: 2
Fore
SplineSet
851 155 m 2,0,1
 864 155 864 155 872.5 146.5 c 128,-1,2
 881 138 881 138 881 125 c 256,3,4
 881 112 881 112 872.5 104 c 128,-1,5
 864 96 864 96 851 96 c 2,6,-1
 815 96 l 1,7,-1
 815 27 l 2,8,9
 815 13 815 13 806 4 c 128,-1,10
 797 -5 797 -5 783 -5 c 256,11,12
 769 -5 769 -5 760 4 c 128,-1,13
 751 13 751 13 751 27 c 2,14,-1
 751 96 l 1,15,-1
 595 96 l 2,16,17
 578 96 578 96 565.5 108.5 c 128,-1,18
 553 121 553 121 553 137 c 128,-1,19
 553 153 553 153 564 167 c 2,20,-1
 729 375 l 1,21,22
 747 396 747 396 765 396 c 2,23,-1
 773 396 l 2,24,25
 791 396 791 396 803 383.5 c 128,-1,26
 815 371 815 371 815 354 c 2,27,-1
 815 155 l 1,28,-1
 851 155 l 2,0,1
751 155 m 1,29,-1
 751 317 l 1,30,-1
 624 155 l 1,31,-1
 751 155 l 1,29,-1
304 -10 m 2,32,33
 295 -24 295 -24 278.5 -24 c 128,-1,34
 262 -24 262 -24 252 -14.5 c 128,-1,35
 242 -5 242 -5 242 6.5 c 128,-1,36
 242 18 242 18 247 28 c 2,37,-1
 661 710 l 2,38,39
 670 724 670 724 686.5 724 c 128,-1,40
 703 724 703 724 713 714.5 c 128,-1,41
 723 705 723 705 723 693.5 c 128,-1,42
 723 682 723 682 718 672 c 2,43,-1
 304 -10 l 2,32,33
168 540 m 2,44,45
 273 540 273 540 273 598 c 0,46,47
 273 636 273 636 222 646 c 0,48,49
 208 648 208 648 188 648 c 0,50,51
 147 648 147 648 109 629 c 0,52,53
 103 626 103 626 94 626 c 128,-1,54
 85 626 85 626 76.5 633.5 c 128,-1,55
 68 641 68 641 68 655 c 128,-1,56
 68 669 68 669 90 680 c 0,57,58
 143 709 143 709 207.5 709 c 128,-1,59
 272 709 272 709 303.5 678 c 128,-1,60
 335 647 335 647 335 605 c 128,-1,61
 335 563 335 563 314.5 542 c 128,-1,62
 294 521 294 521 273 513 c 1,63,64
 349 490 349 490 349 416 c 0,65,66
 349 340 349 340 271 314 c 0,67,68
 243 304 243 304 203 304 c 0,69,70
 125 304 125 304 80 329 c 0,71,72
 63 339 63 339 63 353.5 c 128,-1,73
 63 368 63 368 72 376.5 c 128,-1,74
 81 385 81 385 88 385 c 0,75,76
 97 385 97 385 108 382 c 0,77,78
 159 366 159 366 194 366 c 0,79,80
 286 366 286 366 286 418 c 0,81,82
 286 480 286 480 174 480 c 2,83,-1
 163 480 l 2,84,85
 150 480 150 480 141.5 488.5 c 128,-1,86
 133 497 133 497 133 510 c 256,87,88
 133 523 133 523 141.5 531.5 c 128,-1,89
 150 540 150 540 163 540 c 2,90,-1
 168 540 l 2,44,45
EndSplineSet
EndChar

StartChar: AE
Encoding: 198 198 134
Width: 1040
Flags: W
LayerCount: 2
Fore
SplineSet
945 85 m 2,0,1
 963 85 963 85 975.5 72.5 c 128,-1,2
 988 60 988 60 988 42 c 256,3,4
 988 24 988 24 975.5 12 c 128,-1,5
 963 0 963 0 945 0 c 2,6,-1
 544 0 l 2,7,8
 525 0 525 0 512 13 c 128,-1,9
 499 26 499 26 499 45 c 2,10,-1
 499 179 l 1,11,-1
 191 179 l 1,12,-1
 89 21 l 2,13,14
 72 -5 72 -5 50 -5 c 128,-1,15
 28 -5 28 -5 15 8 c 128,-1,16
 2 21 2 21 2 34 c 0,17,18
 2 54 2 54 12 68 c 2,19,-1
 411 673 l 1,20,21
 429 698 429 698 457 698 c 2,22,-1
 945 698 l 2,23,24
 963 698 963 698 975.5 685.5 c 128,-1,25
 988 673 988 673 988 655 c 256,26,27
 988 637 988 637 975.5 625 c 128,-1,28
 963 613 963 613 945 613 c 2,29,-1
 590 613 l 1,30,-1
 590 392 l 1,31,-1
 909 392 l 2,32,33
 927 392 927 392 939.5 379.5 c 128,-1,34
 952 367 952 367 952 349 c 256,35,36
 952 331 952 331 939.5 319 c 128,-1,37
 927 307 927 307 909 307 c 2,38,-1
 590 307 l 1,39,-1
 590 85 l 1,40,-1
 945 85 l 2,0,1
499 613 m 1,41,-1
 474 613 l 1,42,-1
 245 262 l 1,43,-1
 499 262 l 1,44,-1
 499 613 l 1,41,-1
EndSplineSet
EndChar

StartChar: Ccedilla
Encoding: 199 199 135
Width: 698
Flags: W
LayerCount: 2
Fore
SplineSet
368 -178 m 0,0,1
 425 -178 425 -178 425 -132 c 0,2,3
 425 -117 425 -117 414.5 -109 c 128,-1,4
 404 -101 404 -101 391 -101 c 0,5,6
 367 -101 367 -101 355 -107 c 0,7,8
 339 -115 339 -115 333.5 -115 c 128,-1,9
 328 -115 328 -115 322.5 -110.5 c 128,-1,10
 317 -106 317 -106 317 -98.5 c 128,-1,11
 317 -91 317 -91 321 -85 c 2,12,-1
 369 -8 l 1,13,14
 229 4 229 4 144 98 c 0,15,16
 56 196 56 196 56 349 c 0,17,18
 56 514 56 514 156 612 c 0,19,20
 253 708 253 708 406 708 c 0,21,22
 480 708 480 708 533.5 690 c 128,-1,23
 587 672 587 672 615.5 656.5 c 128,-1,24
 644 641 644 641 650 631.5 c 128,-1,25
 656 622 656 622 656 607.5 c 128,-1,26
 656 593 656 593 645.5 581.5 c 128,-1,27
 635 570 635 570 620.5 570 c 128,-1,28
 606 570 606 570 598 574 c 0,29,30
 558 595 558 595 516 608 c 128,-1,31
 474 621 474 621 411.5 621 c 128,-1,32
 349 621 349 621 298.5 600 c 128,-1,33
 248 579 248 579 214 542 c 0,34,35
 147 469 147 469 147 349 c 256,36,37
 147 229 147 229 214 156 c 0,38,39
 287 77 287 77 415 77 c 0,40,41
 474 77 474 77 516 90 c 128,-1,42
 558 103 558 103 582 115.5 c 128,-1,43
 606 128 606 128 620.5 128 c 128,-1,44
 635 128 635 128 645.5 116.5 c 128,-1,45
 656 105 656 105 656 90 c 0,46,47
 656 63 656 63 634 52 c 1,48,49
 588 26 588 26 535.5 8.5 c 128,-1,50
 483 -9 483 -9 411 -10 c 1,51,-1
 381 -63 l 1,52,53
 397 -59 397 -59 423 -59 c 128,-1,54
 449 -59 449 -59 470.5 -78 c 128,-1,55
 492 -97 492 -97 492 -129 c 0,56,57
 492 -221 492 -221 381 -221 c 0,58,59
 333 -221 333 -221 291 -195 c 1,60,61
 280 -190 280 -190 280 -178 c 0,62,63
 280 -158 280 -158 299 -158 c 0,64,65
 303 -158 303 -158 309 -161 c 0,66,67
 340 -178 340 -178 368 -178 c 0,0,1
EndSplineSet
EndChar

StartChar: Eth
Encoding: 208 208 144
Width: 757
Flags: W
LayerCount: 2
Fore
SplineSet
350 698 m 2,0,1
 517 698 517 698 616 586 c 0,2,3
 660 537 660 537 681.5 474.5 c 128,-1,4
 703 412 703 412 703 349 c 256,5,6
 703 286 703 286 681.5 223.5 c 128,-1,7
 660 161 660 161 616 112 c 0,8,9
 517 0 517 0 350 0 c 2,10,-1
 149 0 l 2,11,12
 130 0 130 0 117 13 c 128,-1,13
 104 26 104 26 104 45 c 2,14,-1
 104 315 l 1,15,-1
 50 315 l 2,16,17
 36 315 36 315 26.5 324.5 c 128,-1,18
 17 334 17 334 17 348 c 256,19,20
 17 362 17 362 26.5 372 c 128,-1,21
 36 382 36 382 50 382 c 2,22,-1
 104 382 l 1,23,-1
 104 652 l 2,24,25
 104 671 104 671 117 684.5 c 128,-1,26
 130 698 130 698 149 698 c 2,27,-1
 350 698 l 2,0,1
339 85 m 2,28,29
 463 85 463 85 538 158 c 256,30,31
 613 231 613 231 613 349 c 128,-1,32
 613 467 613 467 538 540 c 256,33,34
 463 613 463 613 339 613 c 2,35,-1
 195 613 l 1,36,-1
 195 382 l 1,37,-1
 312 382 l 2,38,39
 326 382 326 382 336 372 c 128,-1,40
 346 362 346 362 346 348 c 256,41,42
 346 334 346 334 336 324.5 c 128,-1,43
 326 315 326 315 312 315 c 2,44,-1
 195 315 l 1,45,-1
 195 85 l 1,46,-1
 339 85 l 2,28,29
EndSplineSet
EndChar

StartChar: multiply
Encoding: 215 215 151
Width: 563
Flags: W
LayerCount: 2
Fore
SplineSet
69.5 468.5 m 128,-1,1
 80 480 80 480 96 480 c 128,-1,2
 112 480 112 480 124 468 c 2,3,-1
 281 311 l 1,4,-1
 438 468 l 2,5,6
 450 480 450 480 466 480 c 128,-1,7
 482 480 482 480 492.5 468.5 c 128,-1,8
 503 457 503 457 503 442 c 256,9,10
 503 427 503 427 491 415 c 2,11,-1
 334 258 l 1,12,-1
 491 101 l 2,13,14
 503 89 503 89 503 74 c 256,15,16
 503 59 503 59 492.5 47.5 c 128,-1,17
 482 36 482 36 466 36 c 128,-1,18
 450 36 450 36 438 48 c 2,19,-1
 281 205 l 1,20,-1
 124 48 l 2,21,22
 112 36 112 36 96 36 c 128,-1,23
 80 36 80 36 69.5 47.5 c 128,-1,24
 59 59 59 59 59 74 c 256,25,26
 59 89 59 89 71 101 c 2,27,-1
 228 258 l 1,28,-1
 71 415 l 2,29,30
 59 427 59 427 59 442 c 256,31,0
 59 457 59 457 69.5 468.5 c 128,-1,1
EndSplineSet
EndChar

StartChar: Oslash
Encoding: 216 216 152
Width: 811
Flags: W
LayerCount: 2
Fore
SplineSet
178 66 m 1,0,1
 59 164 59 164 55 349 c 1,2,3
 57 507 57 507 152 607 c 0,4,5
 247 708 247 708 406 708 c 0,6,7
 511 708 511 708 594 659 c 1,8,-1
 634 717 l 2,9,10
 641 727 641 727 653.5 727 c 128,-1,11
 666 727 666 727 673 720 c 128,-1,12
 680 713 680 713 680 704 c 128,-1,13
 680 695 680 695 674 686 c 2,14,-1
 635 630 l 1,15,16
 692 582 692 582 723.5 510 c 128,-1,17
 755 438 755 438 757 349 c 1,18,19
 753 190 753 190 660 91 c 0,20,21
 564 -10 564 -10 406 -10 c 0,22,23
 299 -10 299 -10 219 37 c 1,24,-1
 179 -20 l 2,25,26
 172 -30 172 -30 159.5 -30 c 128,-1,27
 147 -30 147 -30 140 -23 c 128,-1,28
 133 -16 133 -16 133 -7 c 128,-1,29
 133 2 133 2 139 11 c 2,30,-1
 178 66 l 1,0,1
543 588 m 1,31,32
 483 623 483 623 413.5 623 c 128,-1,33
 344 623 344 623 295.5 602 c 128,-1,34
 247 581 247 581 214 544 c 0,35,36
 146 468 146 468 146 349 c 0,37,38
 146 216 146 216 229 139 c 1,39,-1
 543 588 l 1,31,32
269 109 m 1,40,41
 328 75 328 75 398 75 c 128,-1,42
 468 75 468 75 516.5 96 c 128,-1,43
 565 117 565 117 598 154 c 0,44,45
 666 230 666 230 666 349 c 0,46,47
 666 480 666 480 584 558 c 1,48,-1
 269 109 l 1,40,41
EndSplineSet
EndChar

StartChar: Thorn
Encoding: 222 222 158
Width: 671
Flags: W
LayerCount: 2
Fore
SplineSet
370 586 m 2,0,1
 509 586 509 586 579 514 c 1,2,3
 637 456 637 456 637 364 c 256,4,5
 637 272 637 272 579 214 c 1,6,7
 509 142 509 142 370 142 c 2,8,-1
 188 142 l 1,9,-1
 188 40 l 2,10,11
 188 21 188 21 174.5 8 c 128,-1,12
 161 -5 161 -5 142 -5 c 256,13,14
 123 -5 123 -5 110 8 c 128,-1,15
 97 21 97 21 97 40 c 2,16,-1
 97 657 l 2,17,18
 97 676 97 676 110 689.5 c 128,-1,19
 123 703 123 703 142 703 c 256,20,21
 161 703 161 703 174.5 689.5 c 128,-1,22
 188 676 188 676 188 657 c 2,23,-1
 188 586 l 1,24,-1
 370 586 l 2,0,1
361 228 m 2,25,26
 464 228 464 228 510 272 c 0,27,28
 546 306 546 306 546 364 c 0,29,30
 546 457 546 457 453 488 c 0,31,32
 417 500 417 500 361 500 c 2,33,-1
 188 500 l 1,34,-1
 188 228 l 1,35,-1
 361 228 l 2,25,26
EndSplineSet
EndChar

StartChar: germandbls
Encoding: 223 223 159
Width: 610
Flags: W
LayerCount: 2
Fore
SplineSet
414 352 m 1,0,1
 477 336 477 336 512 302 c 0,2,3
 563 253 563 253 563 174 c 0,4,5
 563 87 563 87 504 35 c 0,6,7
 452 -10 452 -10 373 -10 c 0,8,9
 309 -10 309 -10 262 7 c 0,10,11
 230 18 230 18 230 45 c 0,12,13
 230 62 230 62 241 73 c 128,-1,14
 252 84 252 84 264 84 c 128,-1,15
 276 84 276 84 295 77.5 c 128,-1,16
 314 71 314 71 343 71 c 128,-1,17
 372 71 372 71 391.5 75.5 c 128,-1,18
 411 80 411 80 429 92 c 0,19,20
 472 122 472 122 472 185 c 0,21,22
 472 242 472 242 423 276 c 0,23,24
 376 309 376 309 300 309 c 0,25,26
 282 309 282 309 272 319 c 128,-1,27
 262 329 262 329 262 345 c 128,-1,28
 262 361 262 361 272.5 371 c 128,-1,29
 283 381 283 381 300 383 c 0,30,31
 362 390 362 390 397.5 422 c 128,-1,32
 433 454 433 454 433 506.5 c 128,-1,33
 433 559 433 559 398.5 591 c 128,-1,34
 364 623 364 623 304 623 c 0,35,36
 213 623 213 623 182 548 c 0,37,38
 170 520 170 520 170 475 c 2,39,-1
 170 41 l 2,40,41
 170 22 170 22 156.5 9 c 128,-1,42
 143 -4 143 -4 124 -4 c 256,43,44
 105 -4 105 -4 92 9 c 128,-1,45
 79 22 79 22 79 41 c 2,46,-1
 79 486 l 2,47,48
 79 591 79 591 142 650 c 0,49,50
 203 708 203 708 305 708 c 0,51,52
 391 708 391 708 452 661 c 1,53,54
 524 607 524 607 524 512 c 0,55,56
 524 411 524 411 454 370 c 0,57,58
 434 358 434 358 414 352 c 1,0,1
EndSplineSet
EndChar

StartChar: ae
Encoding: 230 230 166
Width: 904
Flags: W
LayerCount: 2
Fore
SplineSet
441 436 m 1,0,1
 505 520 505 520 622 520 c 0,2,3
 732 520 732 520 798 448 c 0,4,5
 861 379 861 379 861 269 c 0,6,7
 861 252 861 252 849.5 239 c 128,-1,8
 838 226 838 226 817 226 c 2,9,-1
 473 226 l 1,10,11
 491 75 491 75 650 75 c 0,12,13
 723 75 723 75 785 106 c 0,14,15
 793 110 793 110 806 110 c 128,-1,16
 819 110 819 110 831 99 c 128,-1,17
 843 88 843 88 843 74 c 0,18,19
 843 48 843 48 821.5 36.5 c 128,-1,20
 800 25 800 25 783 17 c 128,-1,21
 766 9 766 9 746 3 c 0,22,23
 701 -10 701 -10 642 -10 c 0,24,25
 505 -10 505 -10 439 77 c 1,26,27
 381 -10 381 -10 233 -10 c 0,28,29
 150 -10 150 -10 95 30 c 0,30,31
 37 71 37 71 37 140 c 0,32,33
 37 253 37 253 165 288 c 0,34,35
 208 299 208 299 267 299 c 2,36,-1
 388 299 l 1,37,-1
 388 310 l 2,38,39
 388 377 388 377 355 405.5 c 128,-1,40
 322 434 322 434 254 434 c 0,41,42
 196 434 196 434 121 410 c 0,43,44
 113 408 113 408 103 408 c 128,-1,45
 93 408 93 408 82 418.5 c 128,-1,46
 71 429 71 429 71 451 c 128,-1,47
 71 473 71 473 102 486 c 0,48,49
 181 520 181 520 270 520 c 0,50,51
 389 520 389 520 441 436 c 1,0,1
388 226 m 1,52,-1
 279 226 l 2,53,54
 208 226 208 226 168 209.5 c 128,-1,55
 128 193 128 193 128 150 c 0,56,57
 128 118 128 118 159 94 c 128,-1,58
 190 70 190 70 251 70 c 0,59,60
 344 70 344 70 376 120 c 0,61,62
 388 139 388 139 388 169 c 2,63,-1
 388 226 l 1,52,-1
771 299 m 1,64,65
 767 371 767 371 718 410 c 0,66,67
 677 443 677 443 622 443 c 256,68,69
 567 443 567 443 526 410 c 0,70,71
 477 371 477 371 473 299 c 1,72,-1
 771 299 l 1,64,65
EndSplineSet
EndChar

StartChar: ccedilla
Encoding: 231 231 167
Width: 537
Flags: W
LayerCount: 2
Fore
SplineSet
272 -178 m 0,0,1
 329 -178 329 -178 329 -132 c 0,2,3
 329 -117 329 -117 318.5 -109 c 128,-1,4
 308 -101 308 -101 295 -101 c 0,5,6
 271 -101 271 -101 259 -107 c 0,7,8
 243 -115 243 -115 237.5 -115 c 128,-1,9
 232 -115 232 -115 226.5 -110.5 c 128,-1,10
 221 -106 221 -106 221 -98.5 c 128,-1,11
 221 -91 221 -91 225 -85 c 2,12,-1
 273 -7 l 1,13,14
 175 6 175 6 112 73 c 1,15,16
 46 145 46 145 46 255 c 0,17,18
 46 376 46 376 126 450 c 0,19,20
 202 520 202 520 313 520 c 0,21,22
 373 520 373 520 411.5 504.5 c 128,-1,23
 450 489 450 489 473 474 c 128,-1,24
 496 459 496 459 496 441 c 128,-1,25
 496 423 496 423 485 410 c 128,-1,26
 474 397 474 397 463 397 c 0,27,28
 446 397 446 397 428 407 c 0,29,30
 377 435 377 435 321 435 c 0,31,32
 233 435 233 435 185 385.5 c 128,-1,33
 137 336 137 336 137 255 c 256,34,35
 137 174 137 174 185 124.5 c 128,-1,36
 233 75 233 75 321 75 c 0,37,38
 360 75 360 75 385 84 c 128,-1,39
 410 93 410 93 426 102 c 0,40,41
 447 113 447 113 460.5 113 c 128,-1,42
 474 113 474 113 485 100 c 128,-1,43
 496 87 496 87 496 69 c 128,-1,44
 496 51 496 51 473 36 c 0,45,46
 405 -8 405 -8 315 -10 c 1,47,-1
 285 -63 l 1,48,49
 301 -59 301 -59 327 -59 c 128,-1,50
 353 -59 353 -59 374.5 -78 c 128,-1,51
 396 -97 396 -97 396 -129 c 0,52,53
 396 -221 396 -221 285 -221 c 0,54,55
 237 -221 237 -221 195 -195 c 1,56,57
 184 -190 184 -190 184 -178 c 0,58,59
 184 -158 184 -158 203 -158 c 0,60,61
 207 -158 207 -158 213 -161 c 0,62,63
 244 -178 244 -178 272 -178 c 0,0,1
EndSplineSet
EndChar

StartChar: igrave
Encoding: 236 236 172
Width: 257
Flags: W
LayerCount: 2
Fore
SplineSet
96 502 m 128,-1,1
 109 515 109 515 128.5 515 c 128,-1,2
 148 515 148 515 161 502 c 128,-1,3
 174 489 174 489 174 469 c 2,4,-1
 174 40 l 2,5,6
 174 21 174 21 161 8 c 128,-1,7
 148 -5 148 -5 128.5 -5 c 128,-1,8
 109 -5 109 -5 96 8 c 128,-1,9
 83 21 83 21 83 40 c 2,10,-1
 83 469 l 2,11,0
 83 489 83 489 96 502 c 128,-1,1
42 685 m 0,12,13
 42 722 42 722 82 722 c 0,14,15
 102 722 102 722 112 703 c 2,16,-1
 163 613 l 1,17,18
 170 606 170 606 170 594 c 128,-1,19
 170 582 170 582 162.5 574.5 c 128,-1,20
 155 567 155 567 142.5 567 c 128,-1,21
 130 567 130 567 121 578 c 2,22,-1
 52 660 l 2,23,24
 42 671 42 671 42 685 c 0,12,13
EndSplineSet
EndChar

StartChar: iacute
Encoding: 237 237 173
Width: 257
Flags: W
LayerCount: 2
Fore
SplineSet
96 502 m 128,-1,1
 109 515 109 515 128.5 515 c 128,-1,2
 148 515 148 515 161 502 c 128,-1,3
 174 489 174 489 174 469 c 2,4,-1
 174 40 l 2,5,6
 174 21 174 21 161 8 c 128,-1,7
 148 -5 148 -5 128.5 -5 c 128,-1,8
 109 -5 109 -5 96 8 c 128,-1,9
 83 21 83 21 83 40 c 2,10,-1
 83 469 l 2,11,0
 83 489 83 489 96 502 c 128,-1,1
145 703 m 2,12,13
 155 722 155 722 175 722 c 0,14,15
 215 722 215 722 215 685 c 0,16,17
 215 671 215 671 205 660 c 2,18,-1
 136 578 l 2,19,20
 127 567 127 567 114.5 567 c 128,-1,21
 102 567 102 567 94.5 574.5 c 128,-1,22
 87 582 87 582 87 591 c 0,23,24
 87 606 87 606 94 613 c 1,25,-1
 145 703 l 2,12,13
EndSplineSet
EndChar

StartChar: icircumflex
Encoding: 238 238 174
Width: 257
Flags: W
LayerCount: 2
Fore
SplineSet
96 502 m 128,-1,1
 109 515 109 515 128.5 515 c 128,-1,2
 148 515 148 515 161 502 c 128,-1,3
 174 489 174 489 174 469 c 2,4,-1
 174 40 l 2,5,6
 174 21 174 21 161 8 c 128,-1,7
 148 -5 148 -5 128.5 -5 c 128,-1,8
 109 -5 109 -5 96 8 c 128,-1,9
 83 21 83 21 83 40 c 2,10,-1
 83 469 l 2,11,0
 83 489 83 489 96 502 c 128,-1,1
255 615 m 2,12,13
 263 607 263 607 263 595.5 c 128,-1,14
 263 584 263 584 254.5 575 c 128,-1,15
 246 566 246 566 234 566 c 128,-1,16
 222 566 222 566 215 573 c 2,17,-1
 128 647 l 1,18,-1
 41 573 l 2,19,20
 34 566 34 566 22 566 c 128,-1,21
 10 566 10 566 1.5 575 c 128,-1,22
 -7 584 -7 584 -7 589.5 c 128,-1,23
 -7 595 -7 595 -7 601 c 128,-1,24
 -7 607 -7 607 1 615 c 2,25,-1
 69 685 l 2,26,27
 89 705 89 705 109 705 c 2,28,-1
 147 705 l 2,29,30
 167 705 167 705 187 685 c 2,31,-1
 255 615 l 2,12,13
EndSplineSet
EndChar

StartChar: idieresis
Encoding: 239 239 175
Width: 257
Flags: W
LayerCount: 2
Fore
SplineSet
96 502 m 128,-1,1
 109 515 109 515 128.5 515 c 128,-1,2
 148 515 148 515 161 502 c 128,-1,3
 174 489 174 489 174 469 c 2,4,-1
 174 40 l 2,5,6
 174 21 174 21 161 8 c 128,-1,7
 148 -5 148 -5 128.5 -5 c 128,-1,8
 109 -5 109 -5 96 8 c 128,-1,9
 83 21 83 21 83 40 c 2,10,-1
 83 469 l 2,11,0
 83 489 83 489 96 502 c 128,-1,1
44 677 m 256,12,13
 65 677 65 677 80 662 c 128,-1,14
 95 647 95 647 95 626 c 256,15,16
 95 605 95 605 80 590 c 128,-1,17
 65 575 65 575 44 575 c 256,18,19
 23 575 23 575 8 590 c 128,-1,20
 -7 605 -7 605 -7 626 c 256,21,22
 -7 647 -7 647 8 662 c 128,-1,23
 23 677 23 677 44 677 c 256,12,13
213 677 m 256,24,25
 234 677 234 677 249 662 c 128,-1,26
 264 647 264 647 264 626 c 256,27,28
 264 605 264 605 249 590 c 128,-1,29
 234 575 234 575 213 575 c 256,30,31
 192 575 192 575 177 590 c 128,-1,32
 162 605 162 605 162 626 c 256,33,34
 162 647 162 647 177 662 c 128,-1,35
 192 677 192 677 213 677 c 256,24,25
EndSplineSet
EndChar

StartChar: eth
Encoding: 240 240 176
Width: 599
Flags: W
LayerCount: 2
Fore
SplineSet
396 477 m 1,0,1
 355 537 355 537 289 594 c 1,2,-1
 205 545 l 2,3,4
 193 539 193 539 185 539 c 128,-1,5
 177 539 177 539 170 546 c 128,-1,6
 163 553 163 553 163 566 c 128,-1,7
 163 579 163 579 178 587 c 2,8,-1
 246 627 l 1,9,10
 200 659 200 659 180.5 669.5 c 128,-1,11
 161 680 161 680 155.5 689.5 c 128,-1,12
 150 699 150 699 150 713.5 c 128,-1,13
 150 728 150 728 162.5 740 c 128,-1,14
 175 752 175 752 189 752 c 128,-1,15
 203 752 203 752 219 742 c 0,16,17
 273 710 273 710 322 671 c 1,18,-1
 390 712 l 2,19,20
 398 717 398 717 407 717 c 128,-1,21
 416 717 416 717 423 710 c 128,-1,22
 430 703 430 703 430 690 c 128,-1,23
 430 677 430 677 418 670 c 2,24,-1
 362 637 l 1,25,26
 546 469 546 469 546 274 c 0,27,28
 546 76 546 76 412 12 c 0,29,30
 364 -10 364 -10 302.5 -10 c 128,-1,31
 241 -10 241 -10 195 8.5 c 128,-1,32
 149 27 149 27 116 61 c 0,33,34
 49 132 49 132 49 248 c 0,35,36
 49 354 49 354 110 426 c 0,37,38
 176 505 176 505 283 505 c 0,39,40
 342 505 342 505 396 477 c 1,0,1
297 70 m 256,41,42
 361 70 361 70 405 112 c 0,43,44
 458 161 458 161 458 252 c 0,45,46
 458 341 458 341 405 390 c 0,47,48
 362 431 362 431 297 431 c 256,49,50
 232 431 232 431 189 390 c 0,51,52
 137 342 137 342 137 252 c 0,53,54
 137 160 137 160 189 112 c 1,55,56
 233 70 233 70 297 70 c 256,41,42
EndSplineSet
EndChar

StartChar: divide
Encoding: 247 247 183
Width: 712
Flags: W
LayerCount: 2
Fore
SplineSet
356 197 m 256,0,1
 377 197 377 197 392 182 c 128,-1,2
 407 167 407 167 407 146 c 256,3,4
 407 125 407 125 392 110 c 128,-1,5
 377 95 377 95 356 95 c 256,6,7
 335 95 335 95 320 110 c 128,-1,8
 305 125 305 125 305 146 c 256,9,10
 305 167 305 167 320 182 c 128,-1,11
 335 197 335 197 356 197 c 256,0,1
356 465 m 256,12,13
 335 465 335 465 320 480 c 128,-1,14
 305 495 305 495 305 516 c 256,15,16
 305 537 305 537 320 552 c 128,-1,17
 335 567 335 567 356 567 c 256,18,19
 377 567 377 567 392 552 c 128,-1,20
 407 537 407 537 407 516 c 256,21,22
 407 495 407 495 392 480 c 128,-1,23
 377 465 377 465 356 465 c 256,12,13
598 372 m 2,24,25
 615 372 615 372 627 360 c 128,-1,26
 639 348 639 348 639 331 c 256,27,28
 639 314 639 314 627 302.5 c 128,-1,29
 615 291 615 291 598 291 c 2,30,-1
 113 291 l 2,31,32
 96 291 96 291 84.5 302.5 c 128,-1,33
 73 314 73 314 73 331 c 256,34,35
 73 348 73 348 84.5 360 c 128,-1,36
 96 372 96 372 113 372 c 2,37,-1
 598 372 l 2,24,25
EndSplineSet
EndChar

StartChar: oslash
Encoding: 248 248 184
Width: 608
Flags: W
LayerCount: 2
Fore
SplineSet
130 51 m 1,0,1
 48 125 48 125 48 255 c 0,2,3
 48 374 48 374 118 447 c 0,4,5
 187 520 187 520 304 520 c 0,6,7
 374 520 374 520 436 488 c 1,8,-1
 465 529 l 2,9,10
 472 539 472 539 484.5 539 c 128,-1,11
 497 539 497 539 504 532 c 128,-1,12
 511 525 511 525 511 516 c 128,-1,13
 511 507 511 507 505 498 c 2,14,-1
 477 458 l 1,15,16
 560 385 560 385 560 255 c 0,17,18
 560 137 560 137 490 63 c 0,19,20
 420 -10 420 -10 304 -10 c 0,21,22
 229 -10 229 -10 171 22 c 1,23,-1
 141 -21 l 2,24,25
 134 -31 134 -31 121.5 -31 c 128,-1,26
 109 -31 109 -31 102 -24 c 128,-1,27
 95 -17 95 -17 95 -8 c 128,-1,28
 95 1 95 1 101 10 c 2,29,-1
 130 51 l 1,0,1
182 125 m 1,30,-1
 386 416 l 1,31,32
 347 437 347 437 311 437 c 128,-1,33
 275 437 275 437 245.5 427.5 c 128,-1,34
 216 418 216 418 192 396 c 0,35,36
 139 346 139 346 139 259 c 128,-1,37
 139 172 139 172 182 125 c 1,30,-1
222 94 m 1,38,39
 260 73 260 73 296 73 c 128,-1,40
 332 73 332 73 361.5 83 c 128,-1,41
 391 93 391 93 415 114 c 0,42,43
 469 163 469 163 469 256 c 0,44,45
 469 335 469 335 426 385 c 1,46,-1
 222 94 l 1,38,39
EndSplineSet
EndChar

StartChar: thorn
Encoding: 254 254 190
Width: 631
Flags: W
LayerCount: 2
Fore
SplineSet
170 444 m 1,0,1
 244 520 244 520 341 520 c 128,-1,2
 438 520 438 520 507 451 c 0,3,4
 583 375 583 375 583 255 c 0,5,6
 583 133 583 133 507 58 c 0,7,8
 437 -10 437 -10 340.5 -10 c 128,-1,9
 244 -10 244 -10 170 66 c 1,10,-1
 170 -189 l 2,11,12
 170 -209 170 -209 157 -222 c 128,-1,13
 144 -235 144 -235 124.5 -235 c 128,-1,14
 105 -235 105 -235 92 -222 c 128,-1,15
 79 -209 79 -209 79 -189 c 2,16,-1
 79 689 l 2,17,18
 79 709 79 709 92 722 c 128,-1,19
 105 735 105 735 124.5 735 c 128,-1,20
 144 735 144 735 157 722 c 128,-1,21
 170 709 170 709 170 689 c 2,22,-1
 170 444 l 1,0,1
170 150 m 1,23,24
 238 75 238 75 328 75 c 0,25,26
 442 75 442 75 480 177 c 0,27,28
 492 211 492 211 492 255 c 0,29,30
 492 341 492 341 446 390 c 1,31,32
 402 435 402 435 328 435 c 0,33,34
 238 435 238 435 170 360 c 1,35,-1
 170 150 l 1,23,24
EndSplineSet
EndChar

StartChar: longs
Encoding: 383 383 192
Width: 287
Flags: W
LayerCount: 2
Fore
SplineSet
340 647 m 1,0,-1
 290 653 l 1,1,2
 252 653 252 653 230 635.5 c 128,-1,3
 208 618 208 618 208 565 c 2,4,-1
 208 40 l 2,5,6
 208 21 208 21 195 8 c 128,-1,7
 182 -5 182 -5 162.5 -5 c 128,-1,8
 143 -5 143 -5 130 8 c 128,-1,9
 117 21 117 21 117 40 c 2,10,-1
 117 432 l 1,11,-1
 58 432 l 2,12,13
 41 432 41 432 30 443 c 128,-1,14
 19 454 19 454 19 471 c 256,15,16
 19 488 19 488 30 499 c 128,-1,17
 41 510 41 510 58 510 c 2,18,-1
 117 510 l 1,19,-1
 117 568 l 2,20,21
 117 655 117 655 166 702 c 0,22,23
 206 740 206 740 267 740 c 0,24,25
 314 740 314 740 354 720 c 1,26,27
 377 707 377 707 377 689 c 128,-1,28
 377 671 377 671 366.5 659 c 128,-1,29
 356 647 356 647 340 647 c 1,0,-1
EndSplineSet
EndChar

StartChar: florin
Encoding: 402 402 193
Width: 403
Flags: W
LayerCount: 2
Fore
SplineSet
356 746 m 0,0,1
 395 746 395 746 413 737 c 0,2,3
 444 722 444 722 444 701 c 128,-1,4
 444 680 444 680 432.5 668.5 c 128,-1,5
 421 657 421 657 408 657 c 128,-1,6
 395 657 395 657 383 660 c 128,-1,7
 371 663 371 663 343 663 c 128,-1,8
 315 663 315 663 290.5 645.5 c 128,-1,9
 266 628 266 628 259 575 c 2,10,-1
 238 427 l 1,11,-1
 355 427 l 2,12,13
 369 427 369 427 377.5 417.5 c 128,-1,14
 386 408 386 408 386 395 c 128,-1,15
 386 382 386 382 377 373.5 c 128,-1,16
 368 365 368 365 355 365 c 2,17,-1
 230 365 l 1,18,-1
 180 12 l 2,19,20
 167 -76 167 -76 113 -120 c 0,21,22
 68 -156 68 -156 6 -156 c 2,23,-1
 -12 -156 l 2,24,25
 -29 -156 -29 -156 -41 -144 c 128,-1,26
 -53 -132 -53 -132 -53 -115 c 256,27,28
 -53 -98 -53 -98 -41 -85.5 c 128,-1,29
 -29 -73 -29 -73 -12 -73 c 2,30,-1
 -5 -73 l 2,31,32
 35 -73 35 -73 52 -60 c 0,33,34
 81 -36 81 -36 89 15 c 2,35,-1
 138 365 l 1,36,-1
 60 365 l 2,37,38
 46 365 46 365 37.5 374 c 128,-1,39
 29 383 29 383 29 396 c 256,40,41
 29 409 29 409 38 418 c 128,-1,42
 47 427 47 427 60 427 c 2,43,-1
 147 427 l 1,44,-1
 168 578 l 2,45,46
 181 666 181 666 236 710 c 0,47,48
 281 746 281 746 356 746 c 0,0,1
EndSplineSet
EndChar

StartChar: Scommaaccent
Encoding: 536 536 198
Width: 617
Flags: W
LayerCount: 2
Fore
SplineSet
318 -47 m 2,0,1
 338 -47 338 -47 353 -62 c 128,-1,2
 368 -77 368 -77 368 -98 c 2,3,-1
 368 -150 l 2,4,5
 368 -235 368 -235 294 -281 c 1,6,7
 289 -286 289 -286 278.5 -286 c 128,-1,8
 268 -286 268 -286 260.5 -278 c 128,-1,9
 253 -270 253 -270 253 -257.5 c 128,-1,10
 253 -245 253 -245 267 -236 c 1,11,12
 287 -225 287 -225 299.5 -207.5 c 128,-1,13
 312 -190 312 -190 312 -153 c 1,14,-1
 309 -153 l 2,15,16
 288 -153 288 -153 273 -138.5 c 128,-1,17
 258 -124 258 -124 258 -103 c 2,18,-1
 258 -98 l 2,19,20
 258 -77 258 -77 273 -62 c 128,-1,21
 288 -47 288 -47 309 -47 c 2,22,-1
 318 -47 l 2,0,1
308 76 m 0,23,24
 483 76 483 76 483 191 c 0,25,26
 483 239 483 239 416 268 c 0,27,28
 387 280 387 280 348.5 289.5 c 128,-1,29
 310 299 310 299 270.5 310 c 128,-1,30
 231 321 231 321 192.5 335 c 128,-1,31
 154 349 154 349 124 371 c 0,32,33
 58 421 58 421 58 503 c 0,34,35
 58 591 58 591 124 647 c 0,36,37
 196 708 196 708 317 708 c 0,38,39
 426 708 426 708 516 675 c 0,40,41
 544 665 544 665 544 635 c 0,42,43
 544 620 544 620 533.5 606.5 c 128,-1,44
 523 593 523 593 510.5 593 c 128,-1,45
 498 593 498 593 476 601 c 0,46,47
 411 624 411 624 327 624 c 0,48,49
 250 624 250 624 200 595 c 0,50,51
 149 565 149 565 149 510 c 0,52,53
 149 453 149 453 215 424 c 0,54,55
 245 410 245 410 283 401 c 128,-1,56
 321 392 321 392 361 382 c 128,-1,57
 401 372 401 372 439 358.5 c 128,-1,58
 477 345 477 345 507 323 c 0,59,60
 573 275 573 275 573 185 c 0,61,62
 573 99 573 99 504 45 c 0,63,64
 433 -10 433 -10 317 -10 c 0,65,66
 190 -10 190 -10 79 38 c 0,67,68
 68 43 68 43 59.5 54 c 128,-1,69
 51 65 51 65 51 80.5 c 128,-1,70
 51 96 51 96 62 108.5 c 128,-1,71
 73 121 73 121 87.5 121 c 128,-1,72
 102 121 102 121 123.5 111.5 c 128,-1,73
 145 102 145 102 194 89 c 128,-1,74
 243 76 243 76 308 76 c 0,23,24
EndSplineSet
EndChar

StartChar: scommaaccent
Encoding: 537 537 199
Width: 480
Flags: W
LayerCount: 2
Fore
SplineSet
250 -47 m 2,0,1
 270 -47 270 -47 285 -62 c 128,-1,2
 300 -77 300 -77 300 -98 c 2,3,-1
 300 -150 l 2,4,5
 300 -235 300 -235 226 -281 c 1,6,7
 221 -286 221 -286 210.5 -286 c 128,-1,8
 200 -286 200 -286 192.5 -278 c 128,-1,9
 185 -270 185 -270 185 -257.5 c 128,-1,10
 185 -245 185 -245 199 -236 c 1,11,12
 219 -225 219 -225 231.5 -207.5 c 128,-1,13
 244 -190 244 -190 244 -153 c 1,14,-1
 241 -153 l 2,15,16
 220 -153 220 -153 205 -138.5 c 128,-1,17
 190 -124 190 -124 190 -103 c 2,18,-1
 190 -98 l 2,19,20
 190 -77 190 -77 205 -62 c 128,-1,21
 220 -47 220 -47 241 -47 c 2,22,-1
 250 -47 l 2,0,1
241 74 m 0,23,24
 352 74 352 74 352 145 c 0,25,26
 352 167 352 167 330 178.5 c 128,-1,27
 308 190 308 190 274.5 199 c 128,-1,28
 241 208 241 208 202 217.5 c 128,-1,29
 163 227 163 227 129.5 244 c 128,-1,30
 96 261 96 261 74 288.5 c 128,-1,31
 52 316 52 316 52 356 c 128,-1,32
 52 396 52 396 64 425 c 128,-1,33
 76 454 76 454 100 475 c 0,34,35
 153 520 153 520 247 520 c 0,36,37
 322 520 322 520 392 495 c 0,38,39
 406 490 406 490 413.5 479 c 128,-1,40
 421 468 421 468 421 454.5 c 128,-1,41
 421 441 421 441 409.5 429 c 128,-1,42
 398 417 398 417 387 417 c 128,-1,43
 376 417 376 417 360 422 c 0,44,45
 312 437 312 437 255 437 c 128,-1,46
 198 437 198 437 168.5 417 c 128,-1,47
 139 397 139 397 139 369 c 128,-1,48
 139 341 139 341 161.5 327.5 c 128,-1,49
 184 314 184 314 217 305 c 128,-1,50
 250 296 250 296 289.5 287 c 128,-1,51
 329 278 329 278 362 262 c 0,52,53
 440 222 440 222 440 138 c 0,54,55
 440 74 440 74 392 34 c 0,56,57
 340 -10 340 -10 247 -10 c 0,58,59
 146 -10 146 -10 65 35 c 1,60,61
 48 47 48 47 48 65 c 128,-1,62
 48 83 48 83 59 95.5 c 128,-1,63
 70 108 70 108 83 108 c 128,-1,64
 96 108 96 108 114 100 c 0,65,66
 172 74 172 74 241 74 c 0,23,24
EndSplineSet
EndChar

StartChar: uni021A
Encoding: 538 538 200
Width: 609
Flags: W
LayerCount: 2
Fore
SplineSet
309 -47 m 2,0,1
 329 -47 329 -47 344 -62 c 128,-1,2
 359 -77 359 -77 359 -98 c 2,3,-1
 359 -150 l 2,4,5
 359 -235 359 -235 285 -281 c 1,6,7
 280 -286 280 -286 269.5 -286 c 128,-1,8
 259 -286 259 -286 251.5 -278 c 128,-1,9
 244 -270 244 -270 244 -257.5 c 128,-1,10
 244 -245 244 -245 258 -236 c 1,11,12
 278 -225 278 -225 290.5 -207.5 c 128,-1,13
 303 -190 303 -190 303 -153 c 1,14,-1
 300 -153 l 2,15,16
 279 -153 279 -153 264 -138.5 c 128,-1,17
 249 -124 249 -124 249 -103 c 2,18,-1
 249 -98 l 2,19,20
 249 -77 249 -77 264 -62 c 128,-1,21
 279 -47 279 -47 300 -47 c 2,22,-1
 309 -47 l 2,0,1
553 698 m 2,23,24
 571 698 571 698 583.5 685.5 c 128,-1,25
 596 673 596 673 596 655 c 256,26,27
 596 637 596 637 583.5 625 c 128,-1,28
 571 613 571 613 553 613 c 2,29,-1
 350 613 l 1,30,-1
 350 40 l 2,31,32
 350 21 350 21 336.5 8 c 128,-1,33
 323 -5 323 -5 304 -5 c 256,34,35
 285 -5 285 -5 272 8 c 128,-1,36
 259 21 259 21 259 40 c 2,37,-1
 259 613 l 1,38,-1
 55 613 l 2,39,40
 37 613 37 613 25 625 c 128,-1,41
 13 637 13 637 13 655 c 256,42,43
 13 673 13 673 25 685.5 c 128,-1,44
 37 698 37 698 55 698 c 2,45,-1
 553 698 l 2,23,24
EndSplineSet
EndChar

StartChar: uni021B
Encoding: 539 539 201
Width: 383
Flags: W
LayerCount: 2
Fore
SplineSet
196 -47 m 2,0,1
 216 -47 216 -47 231 -62 c 128,-1,2
 246 -77 246 -77 246 -98 c 2,3,-1
 246 -150 l 2,4,5
 246 -235 246 -235 172 -281 c 1,6,7
 167 -286 167 -286 156.5 -286 c 128,-1,8
 146 -286 146 -286 138.5 -278 c 128,-1,9
 131 -270 131 -270 131 -257.5 c 128,-1,10
 131 -245 131 -245 145 -236 c 1,11,12
 165 -225 165 -225 177.5 -207.5 c 128,-1,13
 190 -190 190 -190 190 -153 c 1,14,-1
 187 -153 l 2,15,16
 166 -153 166 -153 151 -138.5 c 128,-1,17
 136 -124 136 -124 136 -103 c 2,18,-1
 136 -98 l 2,19,20
 136 -77 136 -77 151 -62 c 128,-1,21
 166 -47 166 -47 187 -47 c 2,22,-1
 196 -47 l 2,0,1
302.5 74.5 m 128,-1,24
 314 79 314 79 327.5 79 c 128,-1,25
 341 79 341 79 352 69 c 128,-1,26
 363 59 363 59 363 39 c 128,-1,27
 363 19 363 19 342 10 c 0,28,29
 300 -10 300 -10 269.5 -10 c 128,-1,30
 239 -10 239 -10 214 -7 c 128,-1,31
 189 -4 189 -4 166 10 c 0,32,33
 111 42 111 42 111 122 c 2,34,-1
 111 432 l 1,35,-1
 40 432 l 2,36,37
 21 432 21 432 21 451 c 0,38,39
 21 460 21 460 30 468 c 2,40,-1
 166 601 l 2,41,42
 175 610 175 610 183 610 c 128,-1,43
 191 610 191 610 196.5 604 c 128,-1,44
 202 598 202 598 202 590 c 2,45,-1
 202 510 l 1,46,-1
 315 510 l 2,47,48
 332 510 332 510 343 499 c 128,-1,49
 354 488 354 488 354 471 c 256,50,51
 354 454 354 454 343 443 c 128,-1,52
 332 432 332 432 315 432 c 2,53,-1
 202 432 l 1,54,-1
 202 130 l 2,55,56
 202 92 202 92 225 78 c 0,57,58
 238 70 238 70 264.5 70 c 128,-1,23
 291 70 291 70 302.5 74.5 c 128,-1,24
EndSplineSet
EndChar

StartChar: dotlessj
Encoding: 567 567 202
Width: 257
Flags: W
LayerCount: 2
Fore
SplineSet
-8 -157 m 1,0,-1
 22 -160 l 1,1,2
 53 -160 53 -160 63 -152 c 1,3,4
 83 -139 83 -139 83 -101 c 2,5,-1
 83 468 l 2,6,7
 83 488 83 488 96 501 c 128,-1,8
 109 514 109 514 128.5 514 c 128,-1,9
 148 514 148 514 161 501 c 128,-1,10
 174 488 174 488 174 468 c 2,11,-1
 174 -103 l 2,12,13
 174 -200 174 -200 104 -230 c 0,14,15
 79 -240 79 -240 43 -240 c 256,16,17
 7 -240 7 -240 -19.5 -231.5 c 128,-1,18
 -46 -223 -46 -223 -46 -195 c 0,19,20
 -46 -180 -46 -180 -35.5 -168.5 c 128,-1,21
 -25 -157 -25 -157 -8 -157 c 1,0,-1
EndSplineSet
EndChar

StartChar: circumflex
Encoding: 710 710 203
Width: 409
Flags: W
LayerCount: 2
Fore
SplineSet
330 615 m 2,0,1
 338 607 338 607 338 595.5 c 128,-1,2
 338 584 338 584 329.5 575 c 128,-1,3
 321 566 321 566 309 566 c 128,-1,4
 297 566 297 566 290 573 c 2,5,-1
 203 647 l 1,6,-1
 116 573 l 2,7,8
 109 566 109 566 97 566 c 128,-1,9
 85 566 85 566 76.5 575 c 128,-1,10
 68 584 68 584 68 589.5 c 128,-1,11
 68 595 68 595 68 601 c 128,-1,12
 68 607 68 607 76 615 c 2,13,-1
 144 685 l 2,14,15
 164 705 164 705 184 705 c 2,16,-1
 222 705 l 2,17,18
 242 705 242 705 262 685 c 2,19,-1
 330 615 l 2,0,1
EndSplineSet
EndChar

StartChar: caron
Encoding: 711 711 204
Width: 391
Flags: W
LayerCount: 2
Fore
SplineSet
330 656 m 2,0,-1
 262 586 l 2,1,2
 242 566 242 566 222 566 c 2,3,-1
 184 566 l 2,4,5
 164 566 164 566 144 586 c 2,6,-1
 76 656 l 2,7,8
 68 664 68 664 68 675.5 c 128,-1,9
 68 687 68 687 76.5 696 c 128,-1,10
 85 705 85 705 97 705 c 128,-1,11
 109 705 109 705 116 698 c 2,12,-1
 203 624 l 1,13,-1
 290 698 l 2,14,15
 297 705 297 705 309 705 c 128,-1,16
 321 705 321 705 329.5 696 c 128,-1,17
 338 687 338 687 338 675.5 c 128,-1,18
 338 664 338 664 330 656 c 2,0,-1
EndSplineSet
EndChar

StartChar: breve
Encoding: 728 728 205
Width: 385
Flags: W
LayerCount: 2
Fore
SplineSet
192 634 m 0,0,1
 253 634 253 634 276 683 c 0,2,3
 285 702 285 702 301.5 702 c 128,-1,4
 318 702 318 702 326.5 693 c 128,-1,5
 335 684 335 684 335 673.5 c 128,-1,6
 335 663 335 663 332 657 c 0,7,8
 315 619 315 619 277.5 597.5 c 128,-1,9
 240 576 240 576 192 576 c 256,10,11
 144 576 144 576 106.5 597.5 c 128,-1,12
 69 619 69 619 52 657 c 0,13,14
 49 663 49 663 49 673.5 c 128,-1,15
 49 684 49 684 57.5 693 c 128,-1,16
 66 702 66 702 82.5 702 c 128,-1,17
 99 702 99 702 109 681 c 128,-1,18
 119 660 119 660 141 647 c 128,-1,19
 163 634 163 634 192 634 c 0,0,1
EndSplineSet
EndChar

StartChar: dotaccent
Encoding: 729 729 206
Width: 228
Flags: W
LayerCount: 2
Fore
SplineSet
114 677 m 256,0,1
 135 677 135 677 150 662 c 128,-1,2
 165 647 165 647 165 626 c 256,3,4
 165 605 165 605 150 590 c 128,-1,5
 135 575 135 575 114 575 c 256,6,7
 93 575 93 575 78 590 c 128,-1,8
 63 605 63 605 63 626 c 256,9,10
 63 647 63 647 78 662 c 128,-1,11
 93 677 93 677 114 677 c 256,0,1
EndSplineSet
EndChar

StartChar: ring
Encoding: 730 730 207
Width: 270
Flags: W
LayerCount: 2
Fore
SplineSet
136 739 m 0,0,1
 156 739 156 739 173.5 731.5 c 128,-1,2
 191 724 191 724 204 712 c 1,3,4
 231 684 231 684 231 645 c 128,-1,5
 231 606 231 606 203.5 578.5 c 128,-1,6
 176 551 176 551 137 551 c 128,-1,7
 98 551 98 551 70.5 578.5 c 128,-1,8
 43 606 43 606 43 645 c 128,-1,9
 43 684 43 684 70.5 711.5 c 128,-1,10
 98 739 98 739 136 739 c 0,0,1
137 596 m 256,11,12
 157 596 157 596 171.5 610.5 c 128,-1,13
 186 625 186 625 186 645 c 256,14,15
 186 665 186 665 171.5 679.5 c 128,-1,16
 157 694 157 694 137 694 c 256,17,18
 117 694 117 694 102.5 679.5 c 128,-1,19
 88 665 88 665 88 645 c 256,20,21
 88 625 88 625 102.5 610.5 c 128,-1,22
 117 596 117 596 137 596 c 256,11,12
EndSplineSet
EndChar

StartChar: ogonek
Encoding: 731 731 208
Width: 351
Flags: W
LayerCount: 2
Fore
SplineSet
142 -100 m 0,0,1
 142 -147 142 -147 193 -147 c 0,2,3
 204 -147 204 -147 212 -145 c 128,-1,4
 220 -143 220 -143 227 -141 c 128,-1,5
 234 -139 234 -139 237 -139 c 0,6,7
 259 -139 259 -139 259 -161 c 0,8,9
 259 -182 259 -182 211 -196 c 0,10,11
 190 -203 190 -203 158 -203 c 128,-1,12
 126 -203 126 -203 97.5 -181 c 128,-1,13
 69 -159 69 -159 69 -119 c 0,14,15
 69 -43 69 -43 176 0 c 1,16,-1
 254 0 l 1,17,18
 180 -25 180 -25 152 -66 c 0,19,20
 142 -81 142 -81 142 -100 c 0,0,1
EndSplineSet
EndChar

StartChar: tilde
Encoding: 732 732 209
Width: 432
Flags: W
LayerCount: 2
Fore
SplineSet
355 690 m 0,0,1
 376 690 376 690 378 668 c 1,2,3
 378 633 378 633 355 604 c 1,4,5
 329 573 329 573 294 573 c 0,6,7
 264 573 264 573 230 589.5 c 128,-1,8
 196 606 196 606 177.5 613.5 c 128,-1,9
 159 621 159 621 142 621 c 0,10,11
 115 621 115 621 101 589 c 1,12,13
 96 571 96 571 78 571 c 0,14,15
 69 571 69 571 62 577.5 c 128,-1,16
 55 584 55 584 55 596.5 c 128,-1,17
 55 609 55 609 61 625.5 c 128,-1,18
 67 642 67 642 78 656 c 1,19,20
 101 689 101 689 139 689 c 0,21,22
 161 689 161 689 180 681.5 c 128,-1,23
 199 674 199 674 217.5 665.5 c 128,-1,24
 236 657 236 657 254.5 649.5 c 128,-1,25
 273 642 273 642 291 642 c 128,-1,26
 309 642 309 642 317 649 c 128,-1,27
 325 656 325 656 329 666 c 0,28,29
 338 690 338 690 355 690 c 0,0,1
EndSplineSet
EndChar

StartChar: hungarumlaut
Encoding: 733 733 210
Width: 399
Flags: W
LayerCount: 2
Fore
SplineSet
106 703 m 2,0,1
 116 722 116 722 136 722 c 0,2,3
 176 722 176 722 176 685 c 0,4,5
 176 671 176 671 166 660 c 2,6,-1
 97 578 l 2,7,8
 88 567 88 567 75.5 567 c 128,-1,9
 63 567 63 567 55.5 574.5 c 128,-1,10
 48 582 48 582 48 591 c 0,11,12
 48 606 48 606 55 613 c 1,13,-1
 106 703 l 2,0,1
260 703 m 2,14,15
 270 722 270 722 290 722 c 0,16,17
 330 722 330 722 330 685 c 0,18,19
 330 671 330 671 320 660 c 2,20,-1
 251 578 l 2,21,22
 242 567 242 567 229.5 567 c 128,-1,23
 217 567 217 567 209.5 574.5 c 128,-1,24
 202 582 202 582 202 591 c 0,25,26
 202 606 202 606 209 613 c 1,27,-1
 260 703 l 2,14,15
EndSplineSet
EndChar

StartChar: uni03A9
Encoding: 937 937 211
Width: 790
Flags: W
LayerCount: 2
Fore
SplineSet
721 369 m 0,0,1
 721 181 721 181 596 78 c 1,2,-1
 697 78 l 2,3,4
 714 78 714 78 725 67 c 128,-1,5
 736 56 736 56 736 39 c 256,6,7
 736 22 736 22 725 11 c 128,-1,8
 714 0 714 0 697 0 c 2,9,-1
 512 0 l 2,10,11
 493 0 493 0 479 13.5 c 128,-1,12
 465 27 465 27 465 42 c 0,13,14
 465 72 465 72 487.5 85.5 c 128,-1,15
 510 99 510 99 536.5 120 c 128,-1,16
 563 141 563 141 586 174 c 0,17,18
 639 251 639 251 639 358 c 0,19,20
 639 466 639 466 574 538 c 1,21,22
 505 617 505 617 395 617 c 256,23,24
 285 617 285 617 216 538 c 1,25,26
 151 466 151 466 151 358 c 0,27,28
 151 251 151 251 204 174 c 0,29,30
 240 123 240 123 302 86 c 0,31,32
 325 72 325 72 325 49.5 c 128,-1,33
 325 27 325 27 311 13.5 c 128,-1,34
 297 0 297 0 278 0 c 2,35,-1
 93 0 l 2,36,37
 76 0 76 0 65 11 c 128,-1,38
 54 22 54 22 54 39 c 256,39,40
 54 56 54 56 65 67 c 128,-1,41
 76 78 76 78 93 78 c 2,42,-1
 194 78 l 1,43,44
 69 181 69 181 69 369 c 0,45,46
 69 430 69 430 91 490.5 c 128,-1,47
 113 551 113 551 155 599.5 c 128,-1,48
 197 648 197 648 257.5 678 c 128,-1,49
 318 708 318 708 394.5 708 c 128,-1,50
 471 708 471 708 531.5 678 c 128,-1,51
 592 648 592 648 634 599.5 c 128,-1,52
 676 551 676 551 698.5 490.5 c 128,-1,53
 721 430 721 430 721 369 c 0,0,1
EndSplineSet
EndChar

StartChar: pi
Encoding: 960 960 212
Width: 634
Flags: W
LayerCount: 2
Fore
SplineSet
604.5 498.5 m 128,-1,1
 616 487 616 487 616 470 c 256,2,3
 616 453 616 453 604.5 442 c 128,-1,4
 593 431 593 431 576 431 c 2,5,-1
 516 431 l 1,6,-1
 516 38 l 2,7,8
 516 20 516 20 503.5 7.5 c 128,-1,9
 491 -5 491 -5 473 -5 c 256,10,11
 455 -5 455 -5 442.5 7.5 c 128,-1,12
 430 20 430 20 430 38 c 2,13,-1
 430 431 l 1,14,-1
 254 431 l 1,15,16
 248 222 248 222 194 27 c 0,17,18
 190 13 190 13 178.5 4 c 128,-1,19
 167 -5 167 -5 151 -5 c 128,-1,20
 135 -5 135 -5 121.5 7 c 128,-1,21
 108 19 108 19 108 33 c 128,-1,22
 108 47 108 47 119 76 c 128,-1,23
 130 105 130 105 140.5 150.5 c 128,-1,24
 151 196 151 196 156 242 c 0,25,26
 162 290 162 290 168 431 c 1,27,-1
 146 431 l 2,28,29
 101 431 101 431 84 426 c 0,30,31
 58 418 58 418 48.5 418 c 128,-1,32
 39 418 39 418 27.5 429 c 128,-1,33
 16 440 16 440 16 452 c 0,34,35
 16 475 16 475 36 486 c 0,36,37
 81 510 81 510 146 510 c 2,38,-1
 576 510 l 2,39,0
 593 510 593 510 604.5 498.5 c 128,-1,1
EndSplineSet
EndChar

StartChar: endash
Encoding: 8211 8211 213
Width: 684
Flags: W
LayerCount: 2
Fore
SplineSet
603 309 m 128,-1,1
 615 297 615 297 615 280 c 256,2,3
 615 263 615 263 603 251.5 c 128,-1,4
 591 240 591 240 574 240 c 2,5,-1
 109 240 l 2,6,7
 92 240 92 240 80.5 251.5 c 128,-1,8
 69 263 69 263 69 280 c 256,9,10
 69 297 69 297 80.5 309 c 128,-1,11
 92 321 92 321 109 321 c 2,12,-1
 574 321 l 2,13,0
 591 321 591 321 603 309 c 128,-1,1
EndSplineSet
EndChar

StartChar: emdash
Encoding: 8212 8212 214
Width: 891
Flags: W
LayerCount: 2
Fore
SplineSet
810 309 m 128,-1,1
 822 297 822 297 822 280 c 256,2,3
 822 263 822 263 810 251.5 c 128,-1,4
 798 240 798 240 781 240 c 2,5,-1
 109 240 l 2,6,7
 92 240 92 240 80.5 251.5 c 128,-1,8
 69 263 69 263 69 280 c 256,9,10
 69 297 69 297 80.5 309 c 128,-1,11
 92 321 92 321 109 321 c 2,12,-1
 781 321 l 2,13,0
 798 321 798 321 810 309 c 128,-1,1
EndSplineSet
EndChar

StartChar: quoteleft
Encoding: 8216 8216 215
Width: 255
Flags: W
LayerCount: 2
Fore
SplineSet
122 477 m 2,0,1
 99 477 99 477 82.5 493.5 c 128,-1,2
 66 510 66 510 66 533 c 2,3,-1
 66 592 l 2,4,5
 66 645 66 645 92 686 c 0,6,7
 112 716 112 716 148 738 c 1,8,9
 153 743 153 743 165.5 743 c 128,-1,10
 178 743 178 743 186 734 c 128,-1,11
 194 725 194 725 194 711 c 128,-1,12
 194 697 194 697 179 688 c 0,13,14
 157 675 157 675 142.5 655.5 c 128,-1,15
 128 636 128 636 128 595 c 1,16,-1
 132 595 l 2,17,18
 155 595 155 595 171.5 578.5 c 128,-1,19
 188 562 188 562 188 539 c 2,20,-1
 188 533 l 2,21,22
 188 510 188 510 171.5 493.5 c 128,-1,23
 155 477 155 477 132 477 c 2,24,-1
 122 477 l 2,0,1
EndSplineSet
EndChar

StartChar: quoteright
Encoding: 8217 8217 216
Width: 238
Flags: W
LayerCount: 2
Fore
SplineSet
174.5 726.5 m 128,-1,1
 191 710 191 710 191 687 c 2,2,-1
 191 628 l 2,3,4
 191 575 191 575 164 534 c 0,5,6
 145 504 145 504 109 482 c 1,7,8
 104 477 104 477 91.5 477 c 128,-1,9
 79 477 79 477 71 486 c 128,-1,10
 63 495 63 495 63 509 c 128,-1,11
 63 523 63 523 78 532 c 0,12,13
 100 545 100 545 114.5 564.5 c 128,-1,14
 129 584 129 584 129 625 c 1,15,-1
 125 625 l 2,16,17
 102 625 102 625 85.5 641.5 c 128,-1,18
 69 658 69 658 69 681 c 2,19,-1
 69 687 l 2,20,21
 69 710 69 710 85.5 726.5 c 128,-1,22
 102 743 102 743 125 743 c 2,23,-1
 135 743 l 2,24,0
 158 743 158 743 174.5 726.5 c 128,-1,1
EndSplineSet
EndChar

StartChar: quotesinglbase
Encoding: 8218 8218 217
Width: 260
Flags: W
LayerCount: 2
Fore
SplineSet
174.5 98.5 m 128,-1,1
 191 82 191 82 191 59 c 2,2,-1
 191 0 l 2,3,4
 191 -53 191 -53 164 -94 c 0,5,6
 145 -124 145 -124 109 -146 c 1,7,8
 104 -151 104 -151 91.5 -151 c 128,-1,9
 79 -151 79 -151 71 -142 c 128,-1,10
 63 -133 63 -133 63 -119 c 128,-1,11
 63 -105 63 -105 78 -96 c 0,12,13
 100 -83 100 -83 114.5 -63.5 c 128,-1,14
 129 -44 129 -44 129 -3 c 1,15,-1
 125 -3 l 2,16,17
 102 -3 102 -3 85.5 13.5 c 128,-1,18
 69 30 69 30 69 53 c 2,19,-1
 69 59 l 2,20,21
 69 82 69 82 85.5 98.5 c 128,-1,22
 102 115 102 115 125 115 c 2,23,-1
 135 115 l 2,24,0
 158 115 158 115 174.5 98.5 c 128,-1,1
EndSplineSet
EndChar

StartChar: quotedblleft
Encoding: 8220 8220 218
Width: 437
Flags: W
LayerCount: 2
Fore
SplineSet
303 477 m 2,0,1
 280 477 280 477 263.5 493.5 c 128,-1,2
 247 510 247 510 247 533 c 2,3,-1
 247 592 l 2,4,5
 247 645 247 645 274 686 c 0,6,7
 293 716 293 716 329 738 c 1,8,9
 334 743 334 743 346.5 743 c 128,-1,10
 359 743 359 743 367 734 c 128,-1,11
 375 725 375 725 375 711 c 128,-1,12
 375 697 375 697 360 688 c 0,13,14
 338 675 338 675 323.5 655.5 c 128,-1,15
 309 636 309 636 309 595 c 1,16,-1
 313 595 l 2,17,18
 336 595 336 595 352.5 578.5 c 128,-1,19
 369 562 369 562 369 539 c 2,20,-1
 369 533 l 2,21,22
 369 510 369 510 352.5 493.5 c 128,-1,23
 336 477 336 477 313 477 c 2,24,-1
 303 477 l 2,0,1
122 477 m 2,25,26
 99 477 99 477 82.5 493.5 c 128,-1,27
 66 510 66 510 66 533 c 2,28,-1
 66 592 l 2,29,30
 66 645 66 645 92 686 c 0,31,32
 112 716 112 716 148 738 c 1,33,34
 153 743 153 743 165.5 743 c 128,-1,35
 178 743 178 743 186 734 c 128,-1,36
 194 725 194 725 194 711 c 128,-1,37
 194 697 194 697 179 688 c 0,38,39
 157 675 157 675 142.5 655.5 c 128,-1,40
 128 636 128 636 128 595 c 1,41,-1
 132 595 l 2,42,43
 155 595 155 595 171.5 578.5 c 128,-1,44
 188 562 188 562 188 539 c 2,45,-1
 188 533 l 2,46,47
 188 510 188 510 171.5 493.5 c 128,-1,48
 155 477 155 477 132 477 c 2,49,-1
 122 477 l 2,25,26
EndSplineSet
EndChar

StartChar: quotedblright
Encoding: 8221 8221 219
Width: 420
Flags: W
LayerCount: 2
Fore
SplineSet
135 743 m 2,0,1
 158 743 158 743 174.5 726.5 c 128,-1,2
 191 710 191 710 191 687 c 2,3,-1
 191 628 l 2,4,5
 191 575 191 575 164 534 c 0,6,7
 145 504 145 504 109 482 c 1,8,9
 104 477 104 477 91.5 477 c 128,-1,10
 79 477 79 477 71 486 c 128,-1,11
 63 495 63 495 63 509 c 128,-1,12
 63 523 63 523 78 532 c 0,13,14
 100 545 100 545 114.5 564.5 c 128,-1,15
 129 584 129 584 129 625 c 1,16,-1
 125 625 l 2,17,18
 102 625 102 625 85.5 641.5 c 128,-1,19
 69 658 69 658 69 681 c 2,20,-1
 69 687 l 2,21,22
 69 710 69 710 85.5 726.5 c 128,-1,23
 102 743 102 743 125 743 c 2,24,-1
 135 743 l 2,0,1
316 743 m 2,25,26
 339 743 339 743 355.5 726.5 c 128,-1,27
 372 710 372 710 372 687 c 2,28,-1
 372 628 l 2,29,30
 372 575 372 575 346 534 c 0,31,32
 326 504 326 504 290 482 c 1,33,34
 285 477 285 477 272.5 477 c 128,-1,35
 260 477 260 477 252 486 c 128,-1,36
 244 495 244 495 244 509 c 128,-1,37
 244 523 244 523 259 532 c 0,38,39
 281 545 281 545 295.5 564.5 c 128,-1,40
 310 584 310 584 310 625 c 1,41,-1
 306 625 l 2,42,43
 283 625 283 625 266.5 641.5 c 128,-1,44
 250 658 250 658 250 681 c 2,45,-1
 250 687 l 2,46,47
 250 710 250 710 266.5 726.5 c 128,-1,48
 283 743 283 743 306 743 c 2,49,-1
 316 743 l 2,25,26
EndSplineSet
EndChar

StartChar: quotedblbase
Encoding: 8222 8222 220
Width: 442
Flags: W
LayerCount: 2
Fore
SplineSet
135 115 m 2,0,1
 158 115 158 115 174.5 98.5 c 128,-1,2
 191 82 191 82 191 59 c 2,3,-1
 191 0 l 2,4,5
 191 -53 191 -53 164 -94 c 0,6,7
 145 -124 145 -124 109 -146 c 1,8,9
 104 -151 104 -151 91.5 -151 c 128,-1,10
 79 -151 79 -151 71 -142 c 128,-1,11
 63 -133 63 -133 63 -119 c 128,-1,12
 63 -105 63 -105 78 -96 c 0,13,14
 100 -83 100 -83 114.5 -63.5 c 128,-1,15
 129 -44 129 -44 129 -3 c 1,16,-1
 125 -3 l 2,17,18
 102 -3 102 -3 85.5 13.5 c 128,-1,19
 69 30 69 30 69 53 c 2,20,-1
 69 59 l 2,21,22
 69 82 69 82 85.5 98.5 c 128,-1,23
 102 115 102 115 125 115 c 2,24,-1
 135 115 l 2,0,1
316 115 m 2,25,26
 339 115 339 115 355.5 98.5 c 128,-1,27
 372 82 372 82 372 59 c 2,28,-1
 372 0 l 2,29,30
 372 -53 372 -53 346 -94 c 0,31,32
 326 -124 326 -124 290 -146 c 1,33,34
 285 -151 285 -151 272.5 -151 c 128,-1,35
 260 -151 260 -151 252 -142 c 128,-1,36
 244 -133 244 -133 244 -119 c 128,-1,37
 244 -105 244 -105 259 -96 c 0,38,39
 281 -83 281 -83 295.5 -63.5 c 128,-1,40
 310 -44 310 -44 310 -3 c 1,41,-1
 306 -3 l 2,42,43
 283 -3 283 -3 266.5 13.5 c 128,-1,44
 250 30 250 30 250 53 c 2,45,-1
 250 59 l 2,46,47
 250 82 250 82 266.5 98.5 c 128,-1,48
 283 115 283 115 306 115 c 2,49,-1
 316 115 l 2,25,26
EndSplineSet
EndChar

StartChar: dagger
Encoding: 8224 8224 221
Width: 505
Flags: W
LayerCount: 2
Fore
SplineSet
417 485 m 2,0,1
 471 485 471 485 471 454 c 256,2,3
 471 423 471 423 417 423 c 2,4,-1
 378 423 l 2,5,6
 353 423 353 423 293 433 c 0,7,8
 285 435 285 435 279.5 429.5 c 128,-1,9
 274 424 274 424 276 412 c 128,-1,10
 278 400 278 400 280 385 c 0,11,12
 285 348 285 348 285 331 c 2,13,-1
 274 -39 l 1,14,15
 274 -93 274 -93 253 -93 c 256,16,17
 232 -93 232 -93 232 -39 c 1,18,-1
 221 331 l 1,19,20
 221 368 221 368 230 416 c 0,21,22
 232 424 232 424 226.5 429.5 c 128,-1,23
 221 435 221 435 213 433 c 0,24,25
 153 423 153 423 128 423 c 2,26,-1
 89 423 l 2,27,28
 35 423 35 423 35 454 c 256,29,30
 35 485 35 485 89 485 c 2,31,-1
 128 485 l 2,32,33
 159 485 159 485 213 476 c 0,34,35
 221 474 221 474 226.5 479.5 c 128,-1,36
 232 485 232 485 230 493 c 0,37,38
 220 553 220 553 220 578 c 2,39,-1
 220 619 l 2,40,41
 220 652 220 652 236 667 c 0,42,43
 243 673 243 673 253 673 c 0,44,45
 269 673 269 673 279 652 c 0,46,47
 286 638 286 638 286 619 c 2,48,-1
 286 578 l 2,49,50
 286 553 286 553 276 493 c 0,51,52
 274 485 274 485 279.5 479.5 c 128,-1,53
 285 474 285 474 293 476 c 0,54,55
 347 485 347 485 378 485 c 2,56,-1
 417 485 l 2,0,1
EndSplineSet
EndChar

StartChar: daggerdbl
Encoding: 8225 8225 222
Width: 531
Flags: W
LayerCount: 2
Fore
SplineSet
430 156 m 2,0,1
 484 156 484 156 484 125 c 256,2,3
 484 94 484 94 430 94 c 2,4,-1
 391 94 l 2,5,6
 360 94 360 94 306 103 c 0,7,8
 298 105 298 105 292.5 99.5 c 128,-1,9
 287 94 287 94 289 86 c 0,10,11
 299 26 299 26 299 1 c 2,12,-1
 299 -40 l 2,13,14
 299 -71 299 -71 282 -88 c 0,15,16
 276 -94 276 -94 266 -94 c 0,17,18
 241 -94 241 -94 234 -56 c 0,19,20
 233 -47 233 -47 233 -40 c 2,21,-1
 233 1 l 2,22,23
 233 26 233 26 243 86 c 0,24,25
 245 94 245 94 239.5 99.5 c 128,-1,26
 234 105 234 105 226 103 c 0,27,28
 172 94 172 94 141 94 c 2,29,-1
 102 94 l 2,30,31
 48 94 48 94 48 125 c 256,32,33
 48 156 48 156 102 156 c 2,34,-1
 141 156 l 2,35,36
 166 156 166 156 226 146 c 0,37,38
 234 144 234 144 239.5 149.5 c 128,-1,39
 245 155 245 155 242.5 173 c 128,-1,40
 240 191 240 191 238 214 c 0,41,42
 234 260 234 260 234 290 c 0,43,44
 234 333 234 333 243 417 c 1,45,46
 245 425 245 425 239.5 430.5 c 128,-1,47
 234 436 234 436 226 434 c 0,48,49
 166 424 166 424 141 424 c 2,50,-1
 102 424 l 2,51,52
 48 424 48 424 48 455 c 256,53,54
 48 486 48 486 102 486 c 2,55,-1
 141 486 l 2,56,57
 172 486 172 486 226 477 c 0,58,59
 234 475 234 475 239.5 480.5 c 128,-1,60
 245 486 245 486 243 494 c 0,61,62
 233 554 233 554 233 579 c 2,63,-1
 233 620 l 2,64,65
 233 653 233 653 250 668 c 0,66,67
 256 674 256 674 266 674 c 0,68,69
 282 674 282 674 292 654 c 0,70,71
 299 639 299 639 299 620 c 2,72,-1
 299 579 l 2,73,74
 299 554 299 554 289 494 c 0,75,76
 287 486 287 486 292.5 480.5 c 128,-1,77
 298 475 298 475 306 477 c 0,78,79
 360 486 360 486 391 486 c 2,80,-1
 430 486 l 2,81,82
 484 486 484 486 484 455 c 256,83,84
 484 424 484 424 430 424 c 2,85,-1
 391 424 l 2,86,87
 366 424 366 424 306 434 c 0,88,89
 298 436 298 436 292.5 430.5 c 128,-1,90
 287 425 287 425 289 407 c 128,-1,91
 291 389 291 389 293 366 c 0,92,93
 298 308 298 308 298 290 c 0,94,95
 298 268 298 268 294.5 229.5 c 128,-1,96
 291 191 291 191 289 173 c 128,-1,97
 287 155 287 155 292.5 149.5 c 128,-1,98
 298 144 298 144 306 146 c 0,99,100
 366 156 366 156 391 156 c 2,101,-1
 430 156 l 2,0,1
EndSplineSet
EndChar

StartChar: bullet
Encoding: 8226 8226 223
Width: 377
Flags: W
LayerCount: 2
Fore
SplineSet
188 526 m 0,0,1
 216 526 216 526 240 515.5 c 128,-1,2
 264 505 264 505 282 487 c 0,3,4
 321 448 321 448 321 393 c 256,5,6
 321 338 321 338 282 299 c 128,-1,7
 243 260 243 260 189 260 c 0,8,9
 134 260 134 260 95 299 c 128,-1,10
 56 338 56 338 56 393 c 256,11,12
 56 448 56 448 95 487 c 128,-1,13
 134 526 134 526 188 526 c 0,0,1
EndSplineSet
EndChar

StartChar: ellipsis
Encoding: 8230 8230 224
Width: 968
Flags: W
LayerCount: 2
Fore
SplineSet
135 115 m 2,0,1
 158 115 158 115 174.5 98.5 c 128,-1,2
 191 82 191 82 191 59 c 2,3,-1
 191 53 l 2,4,5
 191 30 191 30 174.5 13.5 c 128,-1,6
 158 -3 158 -3 135 -3 c 2,7,-1
 125 -3 l 2,8,9
 102 -3 102 -3 85.5 13.5 c 128,-1,10
 69 30 69 30 69 53 c 2,11,-1
 69 59 l 2,12,13
 69 82 69 82 85.5 98.5 c 128,-1,14
 102 115 102 115 125 115 c 2,15,-1
 135 115 l 2,0,1
490 115 m 2,16,17
 513 115 513 115 529.5 98.5 c 128,-1,18
 546 82 546 82 546 59 c 2,19,-1
 546 53 l 2,20,21
 546 30 546 30 529.5 13.5 c 128,-1,22
 513 -3 513 -3 490 -3 c 2,23,-1
 480 -3 l 2,24,25
 457 -3 457 -3 440.5 13.5 c 128,-1,26
 424 30 424 30 424 53 c 2,27,-1
 424 59 l 2,28,29
 424 82 424 82 440.5 98.5 c 128,-1,30
 457 115 457 115 480 115 c 2,31,-1
 490 115 l 2,16,17
842 115 m 2,32,33
 865 115 865 115 881.5 98.5 c 128,-1,34
 898 82 898 82 898 59 c 2,35,-1
 898 53 l 2,36,37
 898 30 898 30 881.5 13.5 c 128,-1,38
 865 -3 865 -3 842 -3 c 2,39,-1
 832 -3 l 2,40,41
 809 -3 809 -3 792.5 13.5 c 128,-1,42
 776 30 776 30 776 53 c 2,43,-1
 776 59 l 2,44,45
 776 82 776 82 792.5 98.5 c 128,-1,46
 809 115 809 115 832 115 c 2,47,-1
 842 115 l 2,32,33
EndSplineSet
EndChar

StartChar: guilsinglleft
Encoding: 8249 8249 225
Width: 377
Flags: W
LayerCount: 2
Fore
SplineSet
294 85 m 2,0,1
 303 74 303 74 303 58 c 128,-1,2
 303 42 303 42 292 31 c 128,-1,3
 281 20 281 20 263 20 c 128,-1,4
 245 20 245 20 236 31 c 2,5,-1
 72 212 l 1,6,7
 54 230 54 230 54 255 c 256,8,9
 54 280 54 280 72 298 c 1,10,-1
 236 479 l 2,11,12
 245 490 245 490 263 490 c 128,-1,13
 281 490 281 490 292 479 c 128,-1,14
 303 468 303 468 303 451.5 c 128,-1,15
 303 435 303 435 294 425 c 2,16,-1
 134 255 l 1,17,-1
 294 85 l 2,0,1
EndSplineSet
EndChar

StartChar: guilsinglright
Encoding: 8250 8250 226
Width: 377
Flags: W
LayerCount: 2
Fore
SplineSet
85 31 m 128,-1,1
 74 42 74 42 74 58 c 128,-1,2
 74 74 74 74 83 85 c 2,3,-1
 243 255 l 1,4,-1
 83 425 l 2,5,6
 74 435 74 435 74 451.5 c 128,-1,7
 74 468 74 468 85 479 c 128,-1,8
 96 490 96 490 114 490 c 128,-1,9
 132 490 132 490 141 479 c 2,10,-1
 305 298 l 1,11,12
 323 280 323 280 323 255 c 256,13,14
 323 230 323 230 305 212 c 1,15,-1
 141 31 l 2,16,17
 132 20 132 20 114 20 c 128,-1,0
 96 20 96 20 85 31 c 128,-1,1
EndSplineSet
EndChar

StartChar: fraction
Encoding: 8260 8260 227
Width: 200
Flags: W
LayerCount: 2
Fore
SplineSet
-78 -10 m 2,0,1
 -87 -24 -87 -24 -103.5 -24 c 128,-1,2
 -120 -24 -120 -24 -130 -14.5 c 128,-1,3
 -140 -5 -140 -5 -140 6.5 c 128,-1,4
 -140 18 -140 18 -135 28 c 2,5,-1
 279 710 l 2,6,7
 288 724 288 724 304.5 724 c 128,-1,8
 321 724 321 724 331 714.5 c 128,-1,9
 341 705 341 705 341 693.5 c 128,-1,10
 341 682 341 682 336 672 c 2,11,-1
 -78 -10 l 2,0,1
EndSplineSet
EndChar

StartChar: Euro
Encoding: 8364 8364 228
Width: 682
Flags: W
LayerCount: 2
Fore
SplineSet
129 349 m 0,0,1
 129 372 129 372 133 396 c 1,2,-1
 78 396 l 2,3,4
 63 396 63 396 52.5 406.5 c 128,-1,5
 42 417 42 417 42 432 c 256,6,7
 42 447 42 447 52.5 457.5 c 128,-1,8
 63 468 63 468 78 468 c 2,9,-1
 149 468 l 1,10,11
 182 574 182 574 266 640 c 0,12,13
 352 708 352 708 468 708 c 0,14,15
 548 708 548 708 614 676 c 0,16,17
 637 664 637 664 637 643.5 c 128,-1,18
 637 623 637 623 625 611.5 c 128,-1,19
 613 600 613 600 602 600 c 0,20,21
 587 600 587 600 570 606 c 0,22,23
 531 622 531 622 481 622 c 128,-1,24
 431 622 431 622 397 611.5 c 128,-1,25
 363 601 363 601 334 581 c 0,26,27
 274 539 274 539 244 468 c 1,28,-1
 531 468 l 2,29,30
 546 468 546 468 556.5 457.5 c 128,-1,31
 567 447 567 447 567 432.5 c 128,-1,32
 567 418 567 418 556.5 407 c 128,-1,33
 546 396 546 396 531 396 c 2,34,-1
 223 396 l 1,35,36
 220 373 220 373 220 348.5 c 128,-1,37
 220 324 220 324 223 302 c 1,38,-1
 481 302 l 2,39,40
 496 302 496 302 507 291 c 128,-1,41
 518 280 518 280 518 264.5 c 128,-1,42
 518 249 518 249 508 239 c 128,-1,43
 498 229 498 229 481 229 c 2,44,-1
 244 229 l 1,45,46
 274 158 274 158 333.5 117 c 128,-1,47
 393 76 393 76 468 76 c 0,48,49
 528 76 528 76 577 93 c 1,50,51
 587 98 587 98 600 98 c 128,-1,52
 613 98 613 98 625 86.5 c 128,-1,53
 637 75 637 75 637 54 c 128,-1,54
 637 33 637 33 614 22 c 0,55,56
 548 -10 548 -10 478 -10 c 128,-1,57
 408 -10 408 -10 357 8 c 128,-1,58
 306 26 306 26 266 58 c 0,59,60
 181 125 181 125 149 229 c 1,61,-1
 78 229 l 2,62,63
 63 229 63 229 52.5 239.5 c 128,-1,64
 42 250 42 250 42 265 c 256,65,66
 42 280 42 280 52.5 291 c 128,-1,67
 63 302 63 302 78 302 c 2,68,-1
 133 302 l 1,69,70
 129 324 129 324 129 349 c 0,0,1
EndSplineSet
EndChar

StartChar: trademark
Encoding: 8482 8482 229
Width: 953
Flags: W
LayerCount: 2
Fore
SplineSet
648 387 m 1,0,-1
 764 674 l 1,1,2
 776 700 776 700 803 700 c 2,3,-1
 820 700 l 2,4,5
 838 700 838 700 850 687.5 c 128,-1,6
 862 675 862 675 862 658 c 2,7,-1
 862 349 l 2,8,9
 862 335 862 335 853 326 c 128,-1,10
 844 317 844 317 830 317 c 256,11,12
 816 317 816 317 807 326 c 128,-1,13
 798 335 798 335 798 349 c 2,14,-1
 798 611 l 1,15,-1
 687 342 l 2,16,17
 677 317 677 317 648 317 c 256,18,19
 619 317 619 317 609 342 c 2,20,-1
 498 611 l 1,21,-1
 498 349 l 2,22,23
 498 335 498 335 489 326 c 128,-1,24
 480 317 480 317 466 317 c 256,25,26
 452 317 452 317 443 326 c 128,-1,27
 434 335 434 335 434 349 c 2,28,-1
 434 658 l 2,29,30
 434 675 434 675 446 687.5 c 128,-1,31
 458 700 458 700 476 700 c 2,32,-1
 493 700 l 2,33,34
 520 700 520 700 532 674 c 1,35,-1
 648 387 l 1,0,-1
350 698 m 2,36,37
 362 698 362 698 370.5 689.5 c 128,-1,38
 379 681 379 681 379 669 c 256,39,40
 379 657 379 657 370.5 648.5 c 128,-1,41
 362 640 362 640 350 640 c 2,42,-1
 249 640 l 1,43,-1
 249 348 l 2,44,45
 249 334 249 334 240 325.5 c 128,-1,46
 231 317 231 317 217 317 c 256,47,48
 203 317 203 317 194.5 325.5 c 128,-1,49
 186 334 186 334 186 348 c 2,50,-1
 186 640 l 1,51,-1
 86 640 l 2,52,53
 74 640 74 640 65.5 648.5 c 128,-1,54
 57 657 57 657 57 669 c 256,55,56
 57 681 57 681 65.5 689.5 c 128,-1,57
 74 698 74 698 86 698 c 2,58,-1
 350 698 l 2,36,37
EndSplineSet
EndChar

StartChar: partialdiff
Encoding: 8706 8706 231
Width: 685
Flags: W
LayerCount: 2
Fore
SplineSet
530 363 m 1,0,1
 534 397 534 397 534 434 c 128,-1,2
 534 471 534 471 524 514 c 128,-1,3
 514 557 514 557 491 592 c 0,4,5
 440 668 440 668 341 668 c 0,6,7
 280 668 280 668 238 655 c 0,8,9
 232 653 232 653 219.5 653 c 128,-1,10
 207 653 207 653 195.5 664.5 c 128,-1,11
 184 676 184 676 184 691 c 0,12,13
 184 718 184 718 210 730 c 1,14,15
 275 754 275 754 348 754 c 128,-1,16
 421 754 421 754 471.5 727 c 128,-1,17
 522 700 522 700 556 656 c 1,18,19
 622 567 622 567 622 433 c 0,20,21
 622 232 622 232 538 115 c 0,22,23
 447 -10 447 -10 283 -10 c 0,24,25
 162 -10 162 -10 96 62 c 1,26,27
 42 123 42 123 42 208 c 0,28,29
 42 314 42 314 118 383 c 0,30,31
 197 454 197 454 320 454 c 0,32,33
 408 454 408 454 490 397 c 0,34,35
 513 381 513 381 530 363 c 1,0,1
298 70 m 0,36,37
 346 70 346 70 386 90.5 c 128,-1,38
 426 111 426 111 452 142 c 0,39,40
 496 194 496 194 517 282 c 1,41,42
 487 322 487 322 438 350.5 c 128,-1,43
 389 379 389 379 337 379 c 128,-1,44
 285 379 285 379 249 368 c 128,-1,45
 213 357 213 357 188 336 c 0,46,47
 133 291 133 291 133 217 c 0,48,49
 133 156 133 156 172 116 c 1,50,51
 215 70 215 70 298 70 c 0,36,37
EndSplineSet
EndChar

StartChar: Delta
Encoding: 8710 8710 232
Width: 721
Flags: W
LayerCount: 2
Fore
SplineSet
646 106 m 2,0,1
 654 85 654 85 654 70 c 0,2,3
 654 39 654 39 632.5 19.5 c 128,-1,4
 611 0 611 0 580 0 c 2,5,-1
 142 0 l 2,6,7
 111 0 111 0 89.5 19.5 c 128,-1,8
 68 39 68 39 68 70 c 0,9,10
 68 85 68 85 76 106 c 2,11,-1
 291 646 l 2,12,13
 311 698 311 698 361 698 c 128,-1,14
 411 698 411 698 431 646 c 2,15,-1
 646 106 l 2,0,1
576 71 m 1,16,-1
 361 610 l 1,17,-1
 146 71 l 1,18,-1
 576 71 l 1,16,-1
EndSplineSet
EndChar

StartChar: product
Encoding: 8719 8719 233
Width: 741
Flags: W
LayerCount: 2
Fore
SplineSet
692.5 685.5 m 128,-1,1
 705 673 705 673 705 655 c 256,2,3
 705 637 705 637 692.5 624.5 c 128,-1,4
 680 612 680 612 662 612 c 2,5,-1
 588 612 l 1,6,-1
 588 -72 l 2,7,8
 588 -90 588 -90 575.5 -102.5 c 128,-1,9
 563 -115 563 -115 545 -115 c 256,10,11
 527 -115 527 -115 514.5 -102.5 c 128,-1,12
 502 -90 502 -90 502 -72 c 2,13,-1
 502 612 l 1,14,-1
 239 612 l 1,15,-1
 239 -72 l 2,16,17
 239 -90 239 -90 226.5 -102.5 c 128,-1,18
 214 -115 214 -115 196 -115 c 256,19,20
 178 -115 178 -115 165.5 -102.5 c 128,-1,21
 153 -90 153 -90 153 -72 c 2,22,-1
 153 612 l 1,23,-1
 79 612 l 2,24,25
 61 612 61 612 48.5 624.5 c 128,-1,26
 36 637 36 637 36 655 c 256,27,28
 36 673 36 673 48.5 685.5 c 128,-1,29
 61 698 61 698 79 698 c 2,30,-1
 662 698 l 2,31,0
 680 698 680 698 692.5 685.5 c 128,-1,1
EndSplineSet
EndChar

StartChar: summation
Encoding: 8721 8721 234
Width: 631
Flags: W
LayerCount: 2
Fore
SplineSet
104 -103 m 2,0,1
 78 -103 78 -103 59.5 -84 c 128,-1,2
 41 -65 41 -65 41 -45 c 0,3,4
 41 -17 41 -17 60 7 c 1,5,-1
 332 298 l 1,6,-1
 60 589 l 1,7,8
 41 613 41 613 41 637 c 128,-1,9
 41 661 41 661 59.5 680 c 128,-1,10
 78 699 78 699 104 699 c 2,11,-1
 546 699 l 2,12,13
 564 699 564 699 577 686 c 128,-1,14
 590 673 590 673 590 655 c 256,15,16
 590 637 590 637 577 624.5 c 128,-1,17
 564 612 564 612 546 612 c 2,18,-1
 153 612 l 1,19,-1
 404 347 l 2,20,21
 423 326 423 326 423 298 c 256,22,23
 423 270 423 270 404 249 c 2,24,-1
 153 -16 l 1,25,-1
 546 -16 l 2,26,27
 564 -16 564 -16 577 -28.5 c 128,-1,28
 590 -41 590 -41 590 -59 c 256,29,30
 590 -77 590 -77 577 -90 c 128,-1,31
 564 -103 564 -103 546 -103 c 2,32,-1
 104 -103 l 2,0,1
EndSplineSet
EndChar

StartChar: minus
Encoding: 8722 8722 235
Width: 712
Flags: W
LayerCount: 2
Fore
SplineSet
627 359 m 128,-1,1
 639 347 639 347 639 330 c 256,2,3
 639 313 639 313 627 301.5 c 128,-1,4
 615 290 615 290 598 290 c 2,5,-1
 113 290 l 2,6,7
 96 290 96 290 84.5 301.5 c 128,-1,8
 73 313 73 313 73 330 c 256,9,10
 73 347 73 347 84.5 359 c 128,-1,11
 96 371 96 371 113 371 c 2,12,-1
 598 371 l 2,13,0
 615 371 615 371 627 359 c 128,-1,1
EndSplineSet
EndChar

StartChar: radical
Encoding: 8730 8730 236
Width: 620
Flags: W
LayerCount: 2
Fore
SplineSet
619 690 m 128,-1,1
 627 682 627 682 627 671 c 256,2,3
 627 660 627 660 619 652.5 c 128,-1,4
 611 645 611 645 600 645 c 2,5,-1
 511 645 l 1,6,-1
 316 34 l 2,7,8
 311 19 311 19 298.5 9.5 c 128,-1,9
 286 0 286 0 270 0 c 2,10,-1
 266 0 l 2,11,12
 233 0 233 0 219 37 c 2,13,-1
 105 348 l 1,14,-1
 49 326 l 2,15,16
 43 323 43 323 33.5 323 c 128,-1,17
 24 323 24 323 15.5 332 c 128,-1,18
 7 341 7 341 7 352.5 c 128,-1,19
 7 364 7 364 13.5 370 c 128,-1,20
 20 376 20 376 31 381 c 2,21,-1
 113 414 l 2,22,23
 123 418 123 418 134 418 c 0,24,25
 156 418 156 418 166 389 c 2,26,-1
 266 106 l 1,27,-1
 450 658 l 1,28,29
 462 698 462 698 497 698 c 2,30,-1
 600 698 l 2,31,0
 611 698 611 698 619 690 c 128,-1,1
EndSplineSet
EndChar

StartChar: infinity
Encoding: 8734 8734 237
Width: 963
Flags: W
LayerCount: 2
Fore
SplineSet
631.5 444.5 m 128,-1,1
 664 457 664 457 713 457 c 128,-1,2
 762 457 762 457 799 437 c 128,-1,3
 836 417 836 417 858 387 c 0,4,5
 898 332 898 332 898 255 c 256,6,7
 898 178 898 178 858 123 c 0,8,9
 807 53 807 53 705 53 c 0,10,11
 601 53 601 53 524 143 c 0,12,13
 502 168 502 168 483 193 c 1,14,-1
 480 193 l 1,15,16
 435 131 435 131 400 104 c 1,17,18
 330 53 330 53 265.5 53 c 128,-1,19
 201 53 201 53 164 73 c 128,-1,20
 127 93 127 93 105 123 c 0,21,22
 65 178 65 178 65 255 c 256,23,24
 65 332 65 332 105 387 c 0,25,26
 156 457 156 457 258 457 c 0,27,28
 361 457 361 457 440 367 c 0,29,30
 462 342 462 342 480 317 c 1,31,-1
 483 317 l 1,32,33
 534 384 534 384 566.5 408 c 128,-1,0
 599 432 599 432 631.5 444.5 c 128,-1,1
632 143.5 m 128,-1,35
 660 130 660 130 693 130 c 128,-1,36
 726 130 726 130 749.5 141 c 128,-1,37
 773 152 773 152 788 170 c 0,38,39
 818 204 818 204 818 255 c 256,40,41
 818 306 818 306 788 340 c 0,42,43
 754 380 754 380 695 380 c 0,44,45
 635 380 635 380 582 334 c 0,46,47
 561 315 561 315 545 293 c 128,-1,48
 529 271 529 271 517 255 c 1,49,50
 529 239 529 239 545 217.5 c 128,-1,51
 561 196 561 196 582.5 176.5 c 128,-1,34
 604 157 604 157 632 143.5 c 128,-1,35
270 130 m 0,52,53
 303 130 303 130 331 143.5 c 128,-1,54
 359 157 359 157 380 176 c 0,55,56
 411 204 411 204 446 255 c 1,57,58
 409 309 409 309 384 331 c 0,59,60
 328 380 328 380 268 380 c 0,61,62
 209 380 209 380 175 340 c 0,63,64
 145 306 145 306 145 255 c 256,65,66
 145 204 145 204 175 170 c 0,67,68
 209 130 209 130 270 130 c 0,52,53
EndSplineSet
EndChar

StartChar: integral
Encoding: 8747 8747 238
Width: 371
Flags: W
LayerCount: 2
Fore
SplineSet
37 -71 m 2,0,-1
 58 -72 l 1,1,2
 83 -72 83 -72 100 -63 c 128,-1,3
 117 -54 117 -54 119 -16 c 2,4,-1
 167 665 l 2,5,6
 170 720 170 720 201 757 c 128,-1,7
 232 794 232 794 300 794 c 0,8,9
 348 794 348 794 359 781.5 c 128,-1,10
 370 769 370 769 370 755 c 256,11,12
 370 741 370 741 359 730 c 128,-1,13
 348 719 348 719 334 719 c 2,14,-1
 314 720 l 1,15,16
 289 720 289 720 272 710.5 c 128,-1,17
 255 701 255 701 252 663 c 2,18,-1
 205 -18 l 2,19,20
 198 -109 198 -109 130 -137 c 0,21,22
 106 -147 106 -147 84 -147 c 0,23,24
 50 -147 50 -147 34 -144 c 0,25,26
 1 -138 1 -138 1 -107 c 0,27,28
 1 -93 1 -93 10.5 -82 c 128,-1,29
 20 -71 20 -71 37 -71 c 2,0,-1
EndSplineSet
EndChar

StartChar: approxequal
Encoding: 8776 8776 239
Width: 675
Flags: W
LayerCount: 2
Fore
SplineSet
586.5 436.5 m 128,-1,1
 595 428 595 428 595 420 c 128,-1,2
 595 412 595 412 593 406 c 0,3,4
 560 311 560 311 469 311 c 0,5,6
 413 311 413 311 330 348 c 0,7,8
 298 363 298 363 268 374.5 c 128,-1,9
 238 386 238 386 208 386 c 0,10,11
 154 386 154 386 136 335 c 0,12,13
 129 317 129 317 114.5 317 c 128,-1,14
 100 317 100 317 91.5 325.5 c 128,-1,15
 83 334 83 334 83 342 c 128,-1,16
 83 350 83 350 86 356 c 0,17,18
 127 451 127 451 209 451 c 0,19,20
 265 451 265 451 348 414 c 0,21,22
 380 399 380 399 410 387.5 c 128,-1,23
 440 376 440 376 469 376 c 0,24,25
 523 376 523 376 540 425 c 1,26,27
 548 445 548 445 563 445 c 128,-1,0
 578 445 578 445 586.5 436.5 c 128,-1,1
586.5 251.5 m 128,-1,29
 595 243 595 243 595 235 c 128,-1,30
 595 227 595 227 593 221 c 0,31,32
 560 126 560 126 469 126 c 0,33,34
 413 126 413 126 330 164 c 0,35,36
 298 178 298 178 268 189.5 c 128,-1,37
 238 201 238 201 208 201 c 0,38,39
 154 201 154 201 136 150 c 0,40,41
 129 132 129 132 114.5 132 c 128,-1,42
 100 132 100 132 91.5 140.5 c 128,-1,43
 83 149 83 149 83 157 c 128,-1,44
 83 165 83 165 86 171 c 0,45,46
 127 266 127 266 209 266 c 0,47,48
 265 266 265 266 348 228 c 0,49,50
 380 214 380 214 410 202.5 c 128,-1,51
 440 191 440 191 469 191 c 0,52,53
 523 191 523 191 540 240 c 1,54,55
 548 260 548 260 563 260 c 128,-1,28
 578 260 578 260 586.5 251.5 c 128,-1,29
EndSplineSet
EndChar

StartChar: notequal
Encoding: 8800 8800 240
Width: 688
Flags: W
LayerCount: 2
Fore
SplineSet
70 415 m 128,-1,1
 59 426 59 426 59 443 c 256,2,3
 59 460 59 460 70 471 c 128,-1,4
 81 482 81 482 98 482 c 2,5,-1
 402 482 l 1,6,-1
 488 618 l 2,7,8
 496 631 496 631 510.5 631 c 128,-1,9
 525 631 525 631 534 623.5 c 128,-1,10
 543 616 543 616 543 604.5 c 128,-1,11
 543 593 543 593 538 584 c 2,12,-1
 473 482 l 1,13,-1
 586 482 l 2,14,15
 603 482 603 482 614 471 c 128,-1,16
 625 460 625 460 625 443 c 256,17,18
 625 426 625 426 614 415 c 128,-1,19
 603 404 603 404 586 404 c 2,20,-1
 423 404 l 1,21,-1
 331 258 l 1,22,-1
 586 258 l 2,23,24
 603 258 603 258 614 247 c 128,-1,25
 625 236 625 236 625 219 c 256,26,27
 625 202 625 202 614 191 c 128,-1,28
 603 180 603 180 586 180 c 2,29,-1
 281 180 l 1,30,-1
 193 40 l 2,31,32
 185 27 185 27 170.5 27 c 128,-1,33
 156 27 156 27 147 34.5 c 128,-1,34
 138 42 138 42 138 53.5 c 128,-1,35
 138 65 138 65 143 74 c 2,36,-1
 210 180 l 1,37,-1
 98 180 l 2,38,39
 81 180 81 180 70 191 c 128,-1,40
 59 202 59 202 59 219 c 256,41,42
 59 236 59 236 70 247 c 128,-1,43
 81 258 81 258 98 258 c 2,44,-1
 260 258 l 1,45,-1
 352 404 l 1,46,-1
 98 404 l 2,47,0
 81 404 81 404 70 415 c 128,-1,1
EndSplineSet
EndChar

StartChar: lessequal
Encoding: 8804 8804 241
Width: 630
Flags: W
LayerCount: 2
Fore
SplineSet
541.5 124.5 m 128,-1,1
 530 113 530 113 517 113 c 128,-1,2
 504 113 504 113 497 116 c 2,3,-1
 98 295 l 2,4,5
 62 312 62 312 62 347 c 2,6,-1
 62 355 l 2,7,8
 62 390 62 390 98 407 c 2,9,-1
 497 586 l 2,10,11
 504 589 504 589 517 589 c 128,-1,12
 530 589 530 589 541.5 577.5 c 128,-1,13
 553 566 553 566 553 552 c 0,14,15
 553 522 553 522 526 511 c 2,16,-1
 166 351 l 1,17,-1
 526 191 l 2,18,19
 538 186 538 186 545.5 175.5 c 128,-1,20
 553 165 553 165 553 150.5 c 128,-1,0
 553 136 553 136 541.5 124.5 c 128,-1,1
517 73 m 2,21,22
 532 73 532 73 543 62 c 128,-1,23
 554 51 554 51 554 36 c 256,24,25
 554 21 554 21 543 10.5 c 128,-1,26
 532 0 532 0 517 0 c 2,27,-1
 94 0 l 2,28,29
 79 0 79 0 68.5 10.5 c 128,-1,30
 58 21 58 21 58 36 c 256,31,32
 58 51 58 51 68.5 62 c 128,-1,33
 79 73 79 73 94 73 c 2,34,-1
 517 73 l 2,21,22
EndSplineSet
EndChar

StartChar: greaterequal
Encoding: 8805 8805 242
Width: 630
Flags: W
LayerCount: 2
Fore
SplineSet
133 116 m 2,0,1
 125 113 125 113 112.5 113 c 128,-1,2
 100 113 100 113 88.5 124.5 c 128,-1,3
 77 136 77 136 77 150 c 0,4,5
 77 180 77 180 104 191 c 2,6,-1
 464 351 l 1,7,-1
 104 511 l 2,8,9
 92 516 92 516 84.5 526.5 c 128,-1,10
 77 537 77 537 77 551.5 c 128,-1,11
 77 566 77 566 88.5 577.5 c 128,-1,12
 100 589 100 589 112.5 589 c 128,-1,13
 125 589 125 589 133 586 c 2,14,-1
 532 407 l 2,15,16
 568 390 568 390 568 355 c 2,17,-1
 568 347 l 2,18,19
 568 312 568 312 532 295 c 2,20,-1
 133 116 l 2,0,1
536 73 m 2,21,22
 551 73 551 73 561.5 62 c 128,-1,23
 572 51 572 51 572 36 c 256,24,25
 572 21 572 21 561.5 10.5 c 128,-1,26
 551 0 551 0 536 0 c 2,27,-1
 113 0 l 2,28,29
 98 0 98 0 87 10.5 c 128,-1,30
 76 21 76 21 76 36 c 256,31,32
 76 51 76 51 87 62 c 128,-1,33
 98 73 98 73 113 73 c 2,34,-1
 536 73 l 2,21,22
EndSplineSet
EndChar

StartChar: lozenge
Encoding: 9674 9674 243
Width: 626
Flags: W
LayerCount: 2
Fore
SplineSet
309 -105 m 2,0,1
 274 -105 274 -105 258 -77 c 2,2,-1
 48 268 l 2,3,4
 40 282 40 282 40 299 c 256,5,6
 40 316 40 316 48 330 c 2,7,-1
 258 675 l 2,8,9
 274 703 274 703 309 703 c 2,10,-1
 317 703 l 2,11,12
 352 703 352 703 368 675 c 2,13,-1
 578 330 l 2,14,15
 586 316 586 316 586 299 c 256,16,17
 586 282 586 282 578 268 c 2,18,-1
 368 -77 l 2,19,20
 352 -105 352 -105 317 -105 c 2,21,-1
 309 -105 l 2,0,1
508 299 m 1,22,-1
 313 627 l 1,23,-1
 118 299 l 1,24,-1
 313 -29 l 1,25,-1
 508 299 l 1,22,-1
EndSplineSet
EndChar

StartChar: f_f
Encoding: 64256 64256 244
Width: 774
Flags: W
LayerCount: 2
Fore
SplineSet
734 647 m 1,0,-1
 684 653 l 1,1,2
 646 653 646 653 624 635.5 c 128,-1,3
 602 618 602 618 602 565 c 2,4,-1
 602 510 l 1,5,-1
 727 510 l 2,6,7
 744 510 744 510 755 499 c 128,-1,8
 766 488 766 488 766 471 c 256,9,10
 766 454 766 454 755 443 c 128,-1,11
 744 432 744 432 727 432 c 2,12,-1
 602 432 l 1,13,-1
 602 40 l 2,14,15
 602 21 602 21 589 8 c 128,-1,16
 576 -5 576 -5 556.5 -5 c 128,-1,17
 537 -5 537 -5 524 8 c 128,-1,18
 511 21 511 21 511 40 c 2,19,-1
 511 432 l 1,20,-1
 208 432 l 1,21,-1
 208 40 l 2,22,23
 208 21 208 21 195 8 c 128,-1,24
 182 -5 182 -5 162.5 -5 c 128,-1,25
 143 -5 143 -5 130 8 c 128,-1,26
 117 21 117 21 117 40 c 2,27,-1
 117 432 l 1,28,-1
 58 432 l 2,29,30
 41 432 41 432 30 443 c 128,-1,31
 19 454 19 454 19 471 c 256,32,33
 19 488 19 488 30 499 c 128,-1,34
 41 510 41 510 58 510 c 2,35,-1
 117 510 l 1,36,-1
 117 568 l 2,37,38
 117 655 117 655 166 702 c 0,39,40
 206 740 206 740 267 740 c 0,41,42
 314 740 314 740 354 720 c 1,43,44
 377 707 377 707 377 689 c 128,-1,45
 377 671 377 671 366.5 659 c 128,-1,46
 356 647 356 647 340 647 c 1,47,-1
 290 653 l 1,48,49
 252 653 252 653 230 635.5 c 128,-1,50
 208 618 208 618 208 565 c 2,51,-1
 208 510 l 1,52,-1
 511 510 l 1,53,-1
 511 568 l 2,54,55
 511 655 511 655 560 702 c 0,56,57
 600 740 600 740 661 740 c 0,58,59
 708 740 708 740 748 720 c 1,60,61
 771 707 771 707 771 689 c 128,-1,62
 771 671 771 671 760.5 659 c 128,-1,63
 750 647 750 647 734 647 c 1,0,-1
EndSplineSet
EndChar

StartChar: fi
Encoding: 64257 64257 245
Width: 641
Flags: W
LayerCount: 2
Fore
SplineSet
340 647 m 1,0,-1
 290 653 l 1,1,2
 252 653 252 653 230 635.5 c 128,-1,3
 208 618 208 618 208 565 c 2,4,-1
 208 510 l 1,5,-1
 515 510 l 1,6,7
 534 508 534 508 546 495.5 c 128,-1,8
 558 483 558 483 558 464 c 2,9,-1
 558 40 l 2,10,11
 558 21 558 21 545 8 c 128,-1,12
 532 -5 532 -5 512.5 -5 c 128,-1,13
 493 -5 493 -5 480 8 c 128,-1,14
 467 21 467 21 467 40 c 2,15,-1
 467 432 l 1,16,-1
 208 432 l 1,17,-1
 208 40 l 2,18,19
 208 21 208 21 195 8 c 128,-1,20
 182 -5 182 -5 162.5 -5 c 128,-1,21
 143 -5 143 -5 130 8 c 128,-1,22
 117 21 117 21 117 40 c 2,23,-1
 117 432 l 1,24,-1
 58 432 l 2,25,26
 41 432 41 432 30 443 c 128,-1,27
 19 454 19 454 19 471 c 256,28,29
 19 488 19 488 30 499 c 128,-1,30
 41 510 41 510 58 510 c 2,31,-1
 117 510 l 1,32,-1
 117 568 l 2,33,34
 117 655 117 655 166 702 c 0,35,36
 206 740 206 740 267 740 c 0,37,38
 314 740 314 740 354 720 c 1,39,40
 377 707 377 707 377 689 c 128,-1,41
 377 671 377 671 366.5 659 c 128,-1,42
 356 647 356 647 340 647 c 1,0,-1
567 665 m 2,43,44
 567 644 567 644 552 629 c 128,-1,45
 537 614 537 614 516 614 c 2,46,-1
 510 614 l 2,47,48
 489 614 489 614 474 629 c 128,-1,49
 459 644 459 644 459 665 c 2,50,-1
 459 669 l 2,51,52
 459 690 459 690 474 705 c 128,-1,53
 489 720 489 720 510 720 c 2,54,-1
 516 720 l 2,55,56
 537 720 537 720 552 705 c 128,-1,57
 567 690 567 690 567 669 c 2,58,-1
 567 665 l 2,43,44
EndSplineSet
EndChar

StartChar: f_f_i
Encoding: 64259 64259 247
Width: 1035
Flags: W
LayerCount: 2
Fore
SplineSet
734 647 m 1,0,-1
 684 653 l 1,1,2
 646 653 646 653 624 635.5 c 128,-1,3
 602 618 602 618 602 565 c 2,4,-1
 602 510 l 1,5,-1
 906 510 l 2,6,7
 926 510 926 510 939 497 c 128,-1,8
 952 484 952 484 952 464 c 2,9,-1
 952 40 l 2,10,11
 952 21 952 21 939 8 c 128,-1,12
 926 -5 926 -5 906.5 -5 c 128,-1,13
 887 -5 887 -5 874 8 c 128,-1,14
 861 21 861 21 861 40 c 2,15,-1
 861 432 l 1,16,-1
 602 432 l 1,17,-1
 602 40 l 2,18,19
 602 21 602 21 589 8 c 128,-1,20
 576 -5 576 -5 556.5 -5 c 128,-1,21
 537 -5 537 -5 524 8 c 128,-1,22
 511 21 511 21 511 40 c 2,23,-1
 511 432 l 1,24,-1
 208 432 l 1,25,-1
 208 40 l 2,26,27
 208 21 208 21 195 8 c 128,-1,28
 182 -5 182 -5 162.5 -5 c 128,-1,29
 143 -5 143 -5 130 8 c 128,-1,30
 117 21 117 21 117 40 c 2,31,-1
 117 432 l 1,32,-1
 58 432 l 2,33,34
 41 432 41 432 30 443 c 128,-1,35
 19 454 19 454 19 471 c 256,36,37
 19 488 19 488 30 499 c 128,-1,38
 41 510 41 510 58 510 c 2,39,-1
 117 510 l 1,40,-1
 117 568 l 2,41,42
 117 655 117 655 166 702 c 0,43,44
 206 740 206 740 267 740 c 0,45,46
 314 740 314 740 354 720 c 1,47,48
 377 707 377 707 377 689 c 128,-1,49
 377 671 377 671 366.5 659 c 128,-1,50
 356 647 356 647 340 647 c 1,51,-1
 290 653 l 1,52,53
 252 653 252 653 230 635.5 c 128,-1,54
 208 618 208 618 208 565 c 2,55,-1
 208 510 l 1,56,-1
 511 510 l 1,57,-1
 511 568 l 2,58,59
 511 655 511 655 560 702 c 0,60,61
 600 740 600 740 661 740 c 0,62,63
 708 740 708 740 748 720 c 1,64,65
 771 707 771 707 771 689 c 128,-1,66
 771 671 771 671 760.5 659 c 128,-1,67
 750 647 750 647 734 647 c 1,0,-1
961 665 m 2,68,69
 961 644 961 644 946 629 c 128,-1,70
 931 614 931 614 910 614 c 2,71,-1
 904 614 l 2,72,73
 883 614 883 614 868 629 c 128,-1,74
 853 644 853 644 853 665 c 2,75,-1
 853 669 l 2,76,77
 853 690 853 690 868 705 c 128,-1,78
 883 720 883 720 904 720 c 2,79,-1
 910 720 l 2,80,81
 931 720 931 720 946 705 c 128,-1,82
 961 690 961 690 961 669 c 2,83,-1
 961 665 l 2,68,69
EndSplineSet
EndChar

StartChar: s_t
Encoding: 64262 64262 249
Width: 842
Flags: W
LayerCount: 2
Fore
SplineSet
323 513 m 1,0,1
 297 550 297 550 297 594 c 128,-1,2
 297 638 297 638 309 669.5 c 128,-1,3
 321 701 321 701 344 724 c 0,4,5
 392 774 392 774 479 774 c 0,6,7
 564 774 564 774 614 716 c 0,8,9
 661 662 661 662 661 584 c 2,10,-1
 661 510 l 1,11,-1
 774 510 l 2,12,13
 791 510 791 510 802 499 c 128,-1,14
 813 488 813 488 813 471 c 256,15,16
 813 454 813 454 802 443 c 128,-1,17
 791 432 791 432 774 432 c 2,18,-1
 661 432 l 1,19,-1
 661 130 l 2,20,21
 661 92 661 92 684 78 c 0,22,23
 697 70 697 70 723.5 70 c 128,-1,24
 750 70 750 70 761.5 74.5 c 128,-1,25
 773 79 773 79 786.5 79 c 128,-1,26
 800 79 800 79 811 69 c 128,-1,27
 822 59 822 59 822 39 c 128,-1,28
 822 19 822 19 802 10 c 0,29,30
 759 -10 759 -10 728.5 -10 c 128,-1,31
 698 -10 698 -10 673 -7 c 128,-1,32
 648 -4 648 -4 625 10 c 0,33,34
 570 42 570 42 570 122 c 2,35,-1
 570 432 l 1,36,-1
 509 432 l 2,37,38
 492 432 492 432 481 443 c 128,-1,39
 470 454 470 454 470 471 c 256,40,41
 470 488 470 488 481 499 c 128,-1,42
 492 510 492 510 509 510 c 2,43,-1
 570 510 l 1,44,-1
 570 594 l 2,45,46
 570 670 570 670 512 697 c 0,47,48
 490 707 490 707 450.5 707 c 128,-1,49
 411 707 411 707 378 678 c 128,-1,50
 345 649 345 649 345 602.5 c 128,-1,51
 345 556 345 556 361 531 c 128,-1,52
 377 506 377 506 394 496 c 0,53,54
 421 479 421 479 421 460 c 128,-1,55
 421 441 421 441 409.5 429 c 128,-1,56
 398 417 398 417 387 417 c 128,-1,57
 376 417 376 417 360 422 c 0,58,59
 312 437 312 437 255 437 c 128,-1,60
 198 437 198 437 168.5 417 c 128,-1,61
 139 397 139 397 139 369 c 128,-1,62
 139 341 139 341 161.5 327.5 c 128,-1,63
 184 314 184 314 217 305 c 128,-1,64
 250 296 250 296 289.5 287 c 128,-1,65
 329 278 329 278 362 262 c 0,66,67
 440 222 440 222 440 138 c 0,68,69
 440 74 440 74 392 34 c 0,70,71
 340 -10 340 -10 247 -10 c 0,72,73
 146 -10 146 -10 65 35 c 1,74,75
 48 47 48 47 48 65 c 128,-1,76
 48 83 48 83 59 95.5 c 128,-1,77
 70 108 70 108 83 108 c 128,-1,78
 96 108 96 108 114 100 c 0,79,80
 172 74 172 74 241 74 c 0,81,82
 352 74 352 74 352 145 c 0,83,84
 352 167 352 167 330 178.5 c 128,-1,85
 308 190 308 190 274.5 199 c 128,-1,86
 241 208 241 208 202 217.5 c 128,-1,87
 163 227 163 227 129.5 244 c 128,-1,88
 96 261 96 261 74 288.5 c 128,-1,89
 52 316 52 316 52 356 c 128,-1,90
 52 396 52 396 64 425 c 128,-1,91
 76 454 76 454 100 475 c 0,92,93
 153 520 153 520 247 520 c 0,94,95
 281 520 281 520 323 513 c 1,0,1
EndSplineSet
EndChar

StartChar: f_j
Encoding: 65539 -1 250
Width: 641
Flags: W
LayerCount: 2
Fore
SplineSet
340 647 m 1,0,-1
 290 653 l 1,1,2
 252 653 252 653 230 635.5 c 128,-1,3
 208 618 208 618 208 565 c 2,4,-1
 208 510 l 1,5,-1
 515 510 l 1,6,7
 534 508 534 508 546 495.5 c 128,-1,8
 558 483 558 483 558 464 c 2,9,-1
 558 -103 l 2,10,11
 558 -200 558 -200 488 -230 c 0,12,13
 463 -240 463 -240 427 -240 c 256,14,15
 391 -240 391 -240 364.5 -231.5 c 128,-1,16
 338 -223 338 -223 338 -195 c 0,17,18
 338 -180 338 -180 348.5 -168.5 c 128,-1,19
 359 -157 359 -157 376 -157 c 1,20,-1
 406 -160 l 1,21,22
 437 -160 437 -160 447 -152 c 1,23,24
 467 -139 467 -139 467 -101 c 2,25,-1
 467 432 l 1,26,-1
 208 432 l 1,27,-1
 208 40 l 2,28,29
 208 21 208 21 195 8 c 128,-1,30
 182 -5 182 -5 162.5 -5 c 128,-1,31
 143 -5 143 -5 130 8 c 128,-1,32
 117 21 117 21 117 40 c 2,33,-1
 117 432 l 1,34,-1
 58 432 l 2,35,36
 41 432 41 432 30 443 c 128,-1,37
 19 454 19 454 19 471 c 256,38,39
 19 488 19 488 30 499 c 128,-1,40
 41 510 41 510 58 510 c 2,41,-1
 117 510 l 1,42,-1
 117 568 l 2,43,44
 117 655 117 655 166 702 c 0,45,46
 206 740 206 740 267 740 c 0,47,48
 314 740 314 740 354 720 c 1,49,50
 377 707 377 707 377 689 c 128,-1,51
 377 671 377 671 366.5 659 c 128,-1,52
 356 647 356 647 340 647 c 1,0,-1
567 665 m 2,53,54
 567 644 567 644 552 629 c 128,-1,55
 537 614 537 614 516 614 c 2,56,-1
 510 614 l 2,57,58
 489 614 489 614 474 629 c 128,-1,59
 459 644 459 644 459 665 c 2,60,-1
 459 669 l 2,61,62
 459 690 459 690 474 705 c 128,-1,63
 489 720 489 720 510 720 c 2,64,-1
 516 720 l 2,65,66
 537 720 537 720 552 705 c 128,-1,67
 567 690 567 690 567 669 c 2,68,-1
 567 665 l 2,53,54
EndSplineSet
EndChar
